<svg width="79" height="70" viewBox="0 0 79 70" fill="none" xmlns="http://www.w3.org/2000/svg">
<path fill-rule="evenodd" clip-rule="evenodd" d="M20.5729 16.0417C20.5729 10.8065 25.3625 6.5625 31.2708 6.5625C37.179 6.5625 41.9688 10.8065 41.9688 16.0417C41.9688 21.2769 37.179 25.5208 31.2708 25.5208H9.875C8.51156 25.5208 7.40625 24.5414 7.40625 23.3333C7.40625 22.1252 8.51156 21.1458 9.875 21.1458H31.2708C34.4522 21.1458 37.0312 18.8606 37.0312 16.0417C37.0312 13.2227 34.4522 10.9375 31.2708 10.9375C28.0894 10.9375 25.5104 13.2227 25.5104 16.0417V17.0833C25.5104 18.2915 24.4051 19.2708 23.0417 19.2708C21.6782 19.2708 20.5729 18.2915 20.5729 17.0833V16.0417Z" fill="white"/>
<path opacity="0.4" d="M10.6979 40.8333C10.6979 39.6252 11.8032 38.6458 13.1667 38.6458H60.8959C68.6221 38.6458 74.8854 44.1956 74.8854 51.0416C74.8854 57.8876 68.6221 63.4375 60.8959 63.4375C53.1697 63.4375 46.9063 57.8876 46.9063 51.0416V49.5833C46.9063 48.3752 48.0116 47.3958 49.375 47.3958C50.7384 47.3958 51.8438 48.3752 51.8438 49.5833V51.0416C51.8438 55.4715 55.8965 59.0625 60.8959 59.0625C65.8952 59.0625 69.9479 55.4715 69.9479 51.0416C69.9479 46.6118 65.8952 43.0208 60.8959 43.0208H13.1667C11.8032 43.0208 10.6979 42.0414 10.6979 40.8333Z" fill="white"/>
<path opacity="0.7" d="M46.9062 21.875C46.9062 15.029 53.1696 9.47919 60.8958 9.47919C68.622 9.47919 74.8854 15.029 74.8854 21.875C74.8854 28.721 68.622 34.2709 60.8958 34.2709H6.58331C5.21987 34.2709 4.11456 33.2914 4.11456 32.0834C4.11456 30.8753 5.21987 29.8959 6.58331 29.8959H60.8958C65.8952 29.8959 69.9479 26.3048 69.9479 21.875C69.9479 17.4452 65.8952 13.8542 60.8958 13.8542C55.8964 13.8542 51.8437 17.4452 51.8437 21.875V23.3334C51.8437 24.5415 50.7384 25.5209 49.375 25.5209C48.0116 25.5209 46.9062 24.5415 46.9062 23.3334V21.875Z" fill="white"/>
</svg>
