<svg width="363" height="207" viewBox="0 0 363 207" fill="none" xmlns="http://www.w3.org/2000/svg">
<path d="M194.75 15.936L194.145 17.2564L192.528 16.4405C189.925 15.1235 186.621 14.4007 183.223 14.4007C175.234 14.4007 168.737 18.3102 168.737 23.1208C168.737 23.5253 168.785 23.9413 168.882 24.3562L169.116 25.3399L167.688 25.4996C157.729 26.6017 150.776 30.2447 150.776 34.3588C150.776 39.4256 161.076 43.5489 173.734 43.5489C178.135 43.5489 182.421 43.0375 186.129 42.0733L186.69 41.9274L187.235 42.0952C191.239 43.3524 196.001 44.0178 201.016 44.0178C205.798 44.0178 210.389 43.4064 214.288 42.2503L214.932 42.0595L215.545 42.2882C218.972 43.5742 222.972 44.2522 227.112 44.2522C238.556 44.2522 247.868 39.0785 247.868 32.7212C247.868 27.074 240.597 22.2934 230.582 21.3545L229.278 21.2327L229.396 19.3744C229.396 12.8872 221.455 7.61011 211.693 7.61011C203.845 7.61011 197.037 10.9566 194.75 15.936Z" fill="url(#paint0_radial_14_2100)"/>
<path d="M245.16 32.3166C245.16 27.7347 239.002 23.8343 230.516 23.0391L226.449 22.6576C226.449 22.6576 226.682 19.0836 226.688 18.9514C226.672 13.6352 220.106 9.31311 212.037 9.31311C207.857 9.31311 204.042 10.4554 201.344 12.3573C203.658 11.3656 206.41 10.8013 209.348 10.8013C217.417 10.8013 223.98 15.1223 223.999 20.4385C223.99 20.5706 223.761 24.1458 223.761 24.1458L227.828 24.5284C236.312 25.3214 242.468 29.2241 242.468 33.8036C242.468 35.9699 241.088 37.9614 238.774 39.5565C242.67 37.8258 245.16 35.2217 245.16 32.3166Z" fill="url(#paint1_radial_14_2100)"/>
<path d="M133.106 83.3856C133.171 82.8489 133.208 82.31 133.208 81.763C133.208 70.2434 119.197 60.9073 101.914 60.9073C87.8233 60.9073 75.9104 67.1165 71.9882 75.6538C67.4822 73.375 61.6987 72.004 55.3896 72.004C41.0116 72.004 29.3565 79.1152 29.3565 87.8859C29.3565 88.6604 29.4546 89.4201 29.626 90.1647C12.5716 92.0529 0.00164795 98.5389 0.00164795 106.253C0.00164795 115.447 17.8544 122.9 39.8822 122.9C47.6284 122.9 54.8524 121.973 60.9718 120.381C67.5454 122.443 75.6692 123.665 84.4683 123.665C92.8832 123.665 100.674 122.547 107.093 120.646C112.833 122.793 119.716 124.049 127.12 124.049C147.157 124.049 163.398 114.882 163.398 103.574C163.396 93.4181 150.292 84.9956 133.106 83.3856Z" fill="url(#paint2_radial_14_2100)"/>
<path d="M74.6496 77.0558L73.7115 79.0934L71.2148 77.8292C67.2011 75.7986 62.1029 74.6827 56.86 74.6827C44.5296 74.6827 34.5046 80.7183 34.5046 88.1387C34.5046 88.7627 34.5761 89.4062 34.7308 90.0463L35.0901 91.5679L32.8845 91.8103C17.5184 93.5111 6.78813 99.1365 6.78813 105.483C6.78813 113.303 22.6815 119.663 42.2142 119.663C49.0073 119.663 55.6208 118.875 61.3444 117.386L62.2077 117.16L63.051 117.422C69.2287 119.363 76.5791 120.39 84.3153 120.39C91.6973 120.39 98.7798 119.445 104.798 117.662L105.789 117.367L106.736 117.721C112.022 119.704 118.198 120.752 124.587 120.752C142.247 120.752 156.613 112.767 156.613 102.955C156.613 94.2409 145.395 86.8642 129.939 85.4162L127.93 85.2277L128.111 82.3628C128.111 72.3522 115.854 64.2067 100.791 64.2067C88.685 64.2067 78.1775 69.3711 74.6496 77.0558Z" fill="url(#paint3_radial_14_2100)"/>
<path d="M152.436 102.33C152.436 95.2637 142.935 89.2419 129.841 88.0134L123.562 87.4261C123.562 87.4261 123.918 81.9077 123.933 81.7043C123.905 73.5025 113.777 66.8348 101.325 66.8348C94.8709 66.8348 88.9827 68.5989 84.821 71.5316C88.3922 70.002 92.6404 69.1321 97.1714 69.1321C109.623 69.1321 119.753 75.7997 119.78 84.0004C119.766 84.2049 119.41 89.7222 119.41 89.7222L125.686 90.3106C138.782 91.5368 148.283 97.5586 148.283 104.627C148.283 107.967 146.152 111.044 142.581 113.504C148.597 110.833 152.436 106.818 152.436 102.33Z" fill="url(#paint4_radial_14_2100)"/>
<path d="M86.2564 80.9458C86.2997 80.5965 86.3247 80.2483 86.3247 79.8932C86.3247 72.4303 77.2444 66.3798 66.045 66.3798C56.9132 66.3798 49.1936 70.4031 46.652 75.9342C43.7312 74.4563 39.9837 73.568 35.8935 73.568C26.5771 73.568 19.0238 78.1786 19.0238 83.8613C19.0238 84.3624 19.0886 84.8554 19.1984 85.3392C8.14376 86.5608 0 90.7645 0 95.7635C0 101.723 11.5686 106.552 25.8435 106.552C30.8651 106.552 35.5458 105.952 39.5096 104.918C43.7711 106.256 49.0356 107.049 54.7376 107.049C60.1884 107.049 65.24 106.322 69.3984 105.09C73.1176 106.483 77.5787 107.297 82.3775 107.297C95.3616 107.297 105.886 101.357 105.886 94.0294C105.886 87.4491 97.3942 81.9882 86.2564 80.9458Z" fill="url(#paint5_radial_14_2100)"/>
<path d="M48.3753 76.8433L47.7698 78.1637L46.153 77.3477C43.5499 76.0308 40.2464 75.3079 36.8482 75.3079C28.8591 75.3079 22.3621 79.2175 22.3621 84.028C22.3621 84.4325 22.4104 84.8485 22.5068 85.2634L22.7413 86.2471L21.3125 86.4068C11.354 87.5089 4.40122 91.1519 4.40122 95.266C4.40122 100.333 14.7007 104.456 27.3588 104.456C31.76 104.456 36.0465 103.945 39.7541 102.981L40.3147 102.835L40.8602 103.002C44.8639 104.26 49.6261 104.925 54.6411 104.925C59.4233 104.925 64.0141 104.314 67.913 103.158L68.5567 102.967L69.1705 103.195C72.597 104.481 76.5974 105.159 80.7375 105.159C92.1813 105.159 101.493 99.9857 101.493 93.6284C101.493 87.9812 94.2222 83.2006 84.2072 82.2617L82.9031 82.1399L83.0212 80.2816C83.0212 73.7944 75.0804 68.5173 65.3181 68.5173C57.4704 68.5173 50.6624 71.8638 48.3753 76.8433Z" fill="url(#paint6_radial_14_2100)"/>
<path d="M98.7848 93.2239C98.7848 88.6421 92.6271 84.7417 84.1407 83.9465L80.0737 83.5649C80.0737 83.5649 80.3066 79.9909 80.3133 79.8588C80.2967 74.5426 73.7314 70.2205 65.6625 70.2205C61.4825 70.2205 57.6668 71.3627 54.9688 73.2647C57.2825 72.2729 60.0354 71.7087 62.9729 71.7087C71.0418 71.7087 77.6053 76.0296 77.6236 81.3458C77.6153 81.478 77.3858 85.0531 77.3858 85.0531L81.4527 85.4358C89.9374 86.2287 96.0935 90.1314 96.0935 94.711C96.0935 96.8772 94.7129 98.8687 92.3992 100.464C96.2948 98.7331 98.7848 96.1291 98.7848 93.2239Z" fill="url(#paint7_radial_14_2100)"/>
<path d="M76.8186 107.423V108.484C76.8186 111.606 78.5202 114.654 80.0206 117.34C81.318 119.659 82.4357 121.655 82.4357 123.49C82.4357 127.899 77.2411 131.486 70.8621 131.486C64.4798 131.486 59.2885 127.899 59.2885 123.49C59.2885 119.517 66.1432 110.127 73.442 107.152L76.8186 105.772V107.423Z" fill="url(#paint8_radial_14_2100)"/>
<path d="M75.4563 108.484C75.4563 111.786 77.2078 114.917 78.7531 117.686C79.9973 119.911 81.0718 121.831 81.0718 123.492C81.0718 127.383 76.4909 130.546 70.8604 130.546C65.23 130.546 60.6492 127.383 60.6492 123.492C60.6492 119.807 67.3092 110.743 74.129 107.96L75.453 107.423V108.484H75.4563Z" fill="url(#paint9_radial_14_2100)"/>
<path d="M78.3356 121.63C78.3356 120.306 77.8133 118.766 77.0881 117.062C78.3755 119.376 79.5731 121.417 79.5731 123.062C79.5731 126.622 75.3964 129.509 70.2417 129.509C70.0122 129.509 69.786 129.496 69.5614 129.484C74.4517 129.242 78.3356 125.824 78.3356 121.63Z" fill="#D1DCEE"/>
<path d="M79.7927 134.531V135.322C79.7927 137.655 81.0651 139.931 82.1862 141.938C83.151 143.669 83.9876 145.16 83.9876 146.532C83.9876 149.822 80.1104 152.502 75.3449 152.502C70.5794 152.502 66.7037 149.822 66.7037 146.532C66.7037 143.563 71.8235 136.551 77.271 134.33L79.7943 133.3L79.7927 134.531Z" fill="url(#paint10_radial_14_2100)"/>
<path d="M78.7763 135.322C78.7763 137.789 80.0838 140.13 81.2381 142.195C82.1679 143.855 82.9713 145.289 82.9713 146.531C82.9713 149.435 79.5482 151.798 75.3449 151.798C71.1382 151.798 67.7217 149.435 67.7217 146.531C67.7217 143.777 72.6951 137.008 77.7866 134.931L78.7763 134.528V135.322Z" fill="url(#paint11_radial_14_2100)"/>
<path d="M80.9271 145.14C80.9271 144.152 80.5362 143.004 79.994 141.73C80.957 143.458 81.8519 144.981 81.8519 146.21C81.8519 148.87 78.7314 151.025 74.8841 151.025C74.7111 151.025 74.5431 151.016 74.3734 151.008C78.0262 150.827 80.9271 148.273 80.9271 145.14Z" fill="#D1DCEE"/>
<path d="M101.732 152.83V153.623C101.732 155.955 103.001 158.231 104.126 160.239C105.094 161.97 105.927 163.459 105.927 164.831C105.927 168.122 102.048 170.802 97.2828 170.802C92.5156 170.802 88.6417 168.122 88.6417 164.831C88.6417 161.863 93.7598 154.851 99.2089 152.629L101.732 151.601V152.83Z" fill="url(#paint12_radial_14_2100)"/>
<path d="M100.714 153.622C100.714 156.088 102.022 158.427 103.178 160.494C104.106 162.154 104.908 163.59 104.908 164.829C104.908 167.733 101.488 170.097 97.2811 170.097C93.0778 170.097 89.6563 167.733 89.6563 164.829C89.6563 162.077 94.6298 155.31 99.7213 153.23L100.713 152.828L100.714 153.622Z" fill="url(#paint13_radial_14_2100)"/>
<path d="M102.865 163.44C102.865 162.45 102.474 161.302 101.934 160.03C102.895 161.756 103.791 163.281 103.791 164.51C103.791 167.169 100.671 169.325 96.822 169.325C96.6507 169.325 96.4811 169.315 96.3114 169.306C99.9658 169.125 102.865 166.572 102.865 163.44Z" fill="#D1DCEE"/>
<path d="M96.155 158.041C96.0502 157.94 96.1167 157.702 96.2981 157.515C96.4744 157.326 96.7022 157.255 96.807 157.357C96.9118 157.459 96.8503 157.697 96.6706 157.886C96.4893 158.075 96.2565 158.143 96.155 158.041Z" fill="#F1E6DD"/>
<path d="M93.9062 160.705C93.7432 160.535 93.8796 160.152 94.1989 159.843C94.515 159.536 94.8975 159.418 95.0655 159.588C95.2369 159.757 95.1205 160.146 94.7978 160.458C94.4751 160.766 94.0692 160.876 93.9062 160.705Z" fill="#F1E6DD"/>
<path d="M112.479 114.767V116.055C112.479 119.845 114.543 123.541 116.366 126.806C117.938 129.617 119.292 132.04 119.292 134.267C119.292 139.618 112.992 143.97 105.249 143.97C97.504 143.97 91.2066 139.618 91.2066 134.267C91.2066 129.444 99.525 118.05 108.377 114.438L112.479 112.767V114.767Z" fill="url(#paint14_radial_14_2100)"/>
<path d="M110.824 116.055C110.824 120.061 112.952 123.864 114.828 127.221C116.338 129.921 117.642 132.253 117.642 134.268C117.642 138.987 112.083 142.828 105.249 142.828C98.4172 142.828 92.8566 138.987 92.8566 134.268C92.8566 129.797 100.942 118.797 109.219 115.422L110.824 114.768V116.055Z" fill="url(#paint15_radial_14_2100)"/>
<path d="M114.321 132.008C114.321 130.402 113.685 128.534 112.804 126.468C114.369 129.273 115.824 131.752 115.824 133.748C115.824 138.07 110.753 141.572 104.498 141.572C104.219 141.572 103.945 141.558 103.67 141.546C109.607 141.247 114.321 137.097 114.321 132.008Z" fill="#D1DCEE"/>
<path d="M103.414 123.233C103.244 123.069 103.351 122.684 103.643 122.378C103.935 122.072 104.304 121.956 104.472 122.123C104.64 122.289 104.542 122.675 104.249 122.982C103.958 123.291 103.579 123.403 103.414 123.233Z" fill="#F1E6DD"/>
<path d="M99.7612 127.563C99.4951 127.287 99.718 126.664 100.237 126.162C100.751 125.662 101.378 125.47 101.649 125.748C101.924 126.021 101.736 126.655 101.21 127.16C100.688 127.661 100.026 127.84 99.7612 127.563Z" fill="#F1E6DD"/>
<path d="M332.709 102.922C332.774 102.385 332.81 101.846 332.81 101.299C332.81 89.7798 318.8 80.4437 301.516 80.4437C287.426 80.4437 275.513 86.6528 271.59 95.1902C267.084 92.9113 261.301 91.5404 254.992 91.5404C240.614 91.5404 228.959 98.6516 228.959 107.422C228.959 108.197 229.057 108.956 229.228 109.701C212.174 111.589 199.604 118.075 199.604 125.79C199.604 134.983 217.457 142.436 239.484 142.436C247.231 142.436 254.455 141.51 260.574 139.917C267.148 141.98 275.271 143.201 284.071 143.201C292.485 143.201 300.277 142.083 306.696 140.182C312.436 142.329 319.319 143.585 326.722 143.585C346.759 143.585 363 134.418 363 123.11C362.998 112.954 349.894 104.532 332.709 102.922Z" fill="url(#paint16_radial_14_2100)"/>
<path d="M274.252 96.5922L273.314 98.6297L270.817 97.3656C266.803 95.335 261.705 94.2191 256.462 94.2191C244.132 94.2191 234.107 100.255 234.107 107.675C234.107 108.299 234.178 108.943 234.333 109.583L234.692 111.104L232.487 111.347C217.121 113.048 206.39 118.673 206.39 125.02C206.39 132.839 222.284 139.2 241.816 139.2C248.61 139.2 255.223 138.411 260.947 136.922L261.81 136.697L262.653 136.959C268.831 138.9 276.181 139.926 283.918 139.926C291.3 139.926 298.382 138.981 304.4 137.198L305.391 136.904L306.338 137.258C311.624 139.24 317.8 140.288 324.189 140.288C341.849 140.288 356.215 132.303 356.215 122.492C356.215 113.777 344.998 106.401 329.542 104.953L327.532 104.764L327.714 101.899C327.714 91.8886 315.456 83.743 300.393 83.743C288.287 83.743 277.78 88.9075 274.252 96.5922Z" fill="url(#paint17_radial_14_2100)"/>
<path d="M352.038 121.866C352.038 114.8 342.537 108.778 329.444 107.55L323.164 106.963C323.164 106.963 323.52 101.444 323.535 101.241C323.507 93.0389 313.379 86.3712 300.927 86.3712C294.473 86.3712 288.585 88.1352 284.423 91.068C287.994 89.5384 292.243 88.6685 296.774 88.6685C309.225 88.6685 319.355 95.3361 319.382 103.537C319.369 103.741 319.013 109.259 319.013 109.259L325.288 109.847C338.384 111.073 347.885 117.095 347.885 124.164C347.885 127.503 345.754 130.581 342.183 133.04C348.199 130.369 352.038 126.354 352.038 121.866Z" fill="url(#paint18_radial_14_2100)"/>
<path d="M285.859 100.482C285.902 100.133 285.927 99.7846 285.927 99.4295C285.927 91.9667 276.847 85.9161 265.647 85.9161C256.515 85.9161 248.796 89.9395 246.254 95.4705C243.333 93.9927 239.586 93.1044 235.496 93.1044C226.179 93.1044 218.626 97.7149 218.626 103.398C218.626 103.899 218.691 104.392 218.801 104.876C207.746 106.097 199.602 110.301 199.602 115.3C199.602 121.26 211.171 126.089 225.446 126.089C230.467 126.089 235.148 125.489 239.112 124.454C243.373 125.792 248.638 126.585 254.34 126.585C259.791 126.585 264.842 125.859 269.001 124.627C272.72 126.02 277.181 126.833 281.98 126.833C294.964 126.833 305.488 120.893 305.488 113.566C305.488 106.985 296.996 101.525 285.859 100.482Z" fill="url(#paint19_radial_14_2100)"/>
<path d="M247.978 96.3795L247.372 97.6999L245.755 96.884C243.152 95.567 239.849 94.8442 236.45 94.8442C228.461 94.8442 221.964 98.7537 221.964 103.564C221.964 103.969 222.013 104.385 222.109 104.8L222.344 105.783L220.915 105.943C210.956 107.045 204.003 110.688 204.003 114.802C204.003 119.869 214.303 123.992 226.961 123.992C231.362 123.992 235.649 123.481 239.356 122.517L239.917 122.371L240.463 122.539C244.466 123.796 249.228 124.461 254.243 124.461C259.026 124.461 263.616 123.85 267.515 122.694L268.159 122.503L268.773 122.732C272.199 124.018 276.2 124.696 280.34 124.696C291.784 124.696 301.095 119.522 301.095 113.165C301.095 107.517 293.825 102.737 283.809 101.798L282.505 101.676L282.623 99.8179C282.623 93.3307 274.683 88.0536 264.92 88.0536C257.073 88.0536 250.265 91.4 247.978 96.3795Z" fill="url(#paint20_radial_14_2100)"/>
<path d="M298.387 112.76C298.387 108.178 292.229 104.278 283.743 103.483L279.676 103.101C279.676 103.101 279.909 99.5272 279.916 99.395C279.899 94.0788 273.334 89.7567 265.265 89.7567C261.085 89.7567 257.269 90.899 254.571 92.8009C256.885 91.8092 259.638 91.2449 262.575 91.2449C270.644 91.2449 277.208 95.5659 277.226 100.882C277.218 101.014 276.988 104.589 276.988 104.589L281.055 104.972C289.54 105.765 295.696 109.668 295.696 114.247C295.696 116.413 294.315 118.405 292.001 120C295.897 118.269 298.387 115.665 298.387 112.76Z" fill="url(#paint21_radial_14_2100)"/>
<path d="M250.295 138.172V139.937C250.295 145.125 253.126 150.185 255.621 154.651C257.771 158.502 259.626 161.818 259.626 164.869C259.626 172.192 251 178.152 240.399 178.152C229.799 178.152 221.173 172.193 221.173 164.869C221.173 158.265 232.56 142.669 244.682 137.723L250.295 135.434V138.172Z" fill="url(#paint22_radial_14_2100)"/>
<path d="M248.032 139.937C248.032 145.421 250.943 150.625 253.513 155.222C255.579 158.919 257.364 162.11 257.364 164.869C257.364 171.33 249.754 176.587 240.399 176.587C231.046 176.587 223.436 171.33 223.436 164.869C223.436 158.747 234.503 143.69 245.833 139.068L248.031 138.174V139.937H248.032Z" fill="url(#paint23_radial_14_2100)"/>
<path d="M252.818 161.777C252.818 159.574 251.948 157.016 250.744 154.189C252.883 158.03 254.874 161.422 254.874 164.156C254.874 170.072 247.934 174.865 239.37 174.865C238.989 174.865 238.613 174.847 238.237 174.829C246.367 174.42 252.818 168.744 252.818 161.777Z" fill="#D1DCEE"/>
<path d="M237.888 149.764C237.656 149.538 237.804 149.012 238.205 148.592C238.603 148.17 239.109 148.014 239.336 148.242C239.569 148.467 239.435 148.998 239.032 149.418C238.633 149.839 238.112 149.993 237.888 149.764Z" fill="#F1E6DD"/>
<path d="M232.881 155.691C232.523 155.313 232.824 154.459 233.535 153.774C234.24 153.088 235.095 152.826 235.467 153.204C235.845 153.581 235.591 154.449 234.87 155.137C234.153 155.825 233.25 156.068 232.881 155.691Z" fill="#F1E6DD"/>
<path d="M276.421 126.96V128.02C276.421 131.143 278.122 134.19 279.623 136.876C280.92 139.195 282.038 141.191 282.038 143.027C282.038 147.435 276.843 151.023 270.464 151.023C264.082 151.023 258.891 147.435 258.891 143.027C258.891 139.054 265.745 129.664 273.044 126.689L276.421 125.308V126.96Z" fill="url(#paint24_radial_14_2100)"/>
<path d="M275.059 128.02C275.059 131.322 276.81 134.454 278.355 137.222C279.6 139.447 280.674 141.367 280.674 143.028C280.674 146.919 276.093 150.083 270.463 150.083C264.832 150.083 260.251 146.919 260.251 143.028C260.251 139.343 266.911 130.28 273.731 127.496L275.055 126.96V128.02H275.059Z" fill="url(#paint25_radial_14_2100)"/>
<path d="M277.938 141.166C277.938 139.842 277.416 138.302 276.69 136.598C277.978 138.913 279.175 140.953 279.175 142.598C279.175 146.158 274.999 149.045 269.844 149.045C269.614 149.045 269.388 149.032 269.164 149.021C274.054 148.778 277.938 145.361 277.938 141.166Z" fill="#D1DCEE"/>
<path d="M268.951 133.935C268.809 133.801 268.901 133.483 269.14 133.23C269.378 132.978 269.686 132.884 269.824 133.019C269.96 133.157 269.881 133.476 269.638 133.727C269.398 133.982 269.087 134.074 268.951 133.935Z" fill="#F1E6DD"/>
<path d="M265.94 137.503C265.724 137.275 265.905 136.761 266.333 136.349C266.757 135.937 267.272 135.78 267.495 136.007C267.723 136.232 267.568 136.753 267.136 137.171C266.702 137.585 266.16 137.73 265.94 137.503Z" fill="#F1E6DD"/>
<path d="M279.395 154.067V154.859C279.395 157.192 280.667 159.467 281.788 161.475C282.753 163.205 283.59 164.696 283.59 166.068C283.59 169.358 279.713 172.038 274.947 172.038C270.182 172.038 266.306 169.358 266.306 166.068C266.306 163.1 271.426 156.087 276.873 153.866L279.397 152.836L279.395 154.067Z" fill="url(#paint26_radial_14_2100)"/>
<path d="M278.379 154.859C278.379 157.325 279.686 159.666 280.84 161.731C281.77 163.391 282.574 164.826 282.574 166.067C282.574 168.971 279.15 171.335 274.947 171.335C270.74 171.335 267.324 168.971 267.324 166.067C267.324 163.313 272.297 156.545 277.389 154.467L278.379 154.065V154.859Z" fill="url(#paint27_radial_14_2100)"/>
<path d="M280.529 164.676C280.529 163.688 280.138 162.54 279.596 161.267C280.559 162.994 281.454 164.518 281.454 165.746C281.454 168.407 278.334 170.561 274.486 170.561C274.313 170.561 274.145 170.552 273.976 170.544C277.628 170.364 280.529 167.809 280.529 164.676Z" fill="#D1DCEE"/>
<path d="M273.818 159.278C273.713 159.175 273.781 158.941 273.961 158.752C274.137 158.564 274.365 158.491 274.47 158.595C274.575 158.695 274.513 158.934 274.333 159.122C274.154 159.313 273.917 159.38 273.818 159.278Z" fill="#F1E6DD"/>
<path d="M271.571 161.943C271.406 161.771 271.542 161.388 271.863 161.078C272.179 160.771 272.565 160.653 272.732 160.824C272.901 160.993 272.786 161.381 272.464 161.692C272.139 162.003 271.734 162.114 271.571 161.943Z" fill="#F1E6DD"/>
<path d="M301.335 172.367V173.16C301.335 175.491 302.604 177.767 303.728 179.776C304.696 181.506 305.529 182.996 305.529 184.368C305.529 187.658 301.651 190.338 296.885 190.338C292.118 190.338 288.244 187.658 288.244 184.368C288.244 181.399 293.362 174.387 298.811 172.166L301.335 171.137V172.367Z" fill="url(#paint28_radial_14_2100)"/>
<path d="M300.317 173.159C300.317 175.625 301.624 177.963 302.78 180.031C303.708 181.69 304.51 183.127 304.51 184.366C304.51 187.27 301.09 189.633 296.883 189.633C292.68 189.633 289.259 187.27 289.259 184.366C289.259 181.613 294.232 174.847 299.324 172.767L300.315 172.365L300.317 173.159Z" fill="url(#paint29_radial_14_2100)"/>
<path d="M302.467 182.976C302.467 181.987 302.076 180.839 301.536 179.566C302.497 181.292 303.394 182.817 303.394 184.046C303.394 186.705 300.273 188.861 296.424 188.861C296.253 188.861 296.083 188.851 295.914 188.843C299.568 188.661 302.467 186.109 302.467 182.976Z" fill="#D1DCEE"/>
<path d="M295.757 177.577C295.652 177.476 295.719 177.238 295.9 177.051C296.077 176.862 296.304 176.791 296.409 176.893C296.514 176.996 296.453 177.234 296.273 177.422C296.092 177.612 295.859 177.68 295.757 177.577Z" fill="#F1E6DD"/>
<path d="M293.508 180.241C293.345 180.071 293.482 179.688 293.801 179.379C294.117 179.072 294.5 178.954 294.668 179.124C294.839 179.293 294.723 179.683 294.4 179.994C294.077 180.302 293.671 180.412 293.508 180.241Z" fill="#F1E6DD"/>
<path d="M270.865 177.797V179.084C270.865 182.877 272.928 186.571 274.753 189.836C276.324 192.647 277.677 195.07 277.677 197.297C277.677 202.648 271.378 207 263.633 207C255.892 207 249.591 202.648 249.591 197.297C249.591 192.474 257.909 181.08 266.765 177.468L270.864 175.797L270.865 177.797Z" fill="url(#paint30_radial_14_2100)"/>
<path d="M269.212 179.085C269.212 183.092 271.338 186.895 273.214 190.252C274.723 192.952 276.028 195.284 276.028 197.298C276.028 202.019 270.468 205.859 263.635 205.859C256.803 205.859 251.244 202.018 251.244 197.298C251.244 192.826 259.33 181.828 267.605 178.453L269.214 177.799V179.085H269.212Z" fill="url(#paint31_radial_14_2100)"/>
<path d="M272.708 195.038C272.708 193.431 272.073 191.564 271.191 189.498C272.755 192.303 274.21 194.782 274.21 196.778C274.21 201.1 269.139 204.6 262.886 204.6C262.607 204.6 262.332 204.588 262.056 204.575C267.994 204.276 272.708 200.128 272.708 195.038Z" fill="#D1DCEE"/>
<path d="M261.8 186.264C261.632 186.099 261.74 185.714 262.031 185.411C262.322 185.103 262.692 184.987 262.858 185.154C263.029 185.319 262.931 185.706 262.635 186.013C262.344 186.321 261.965 186.434 261.8 186.264Z" fill="#F1E6DD"/>
<path d="M258.146 190.594C257.883 190.317 258.106 189.694 258.623 189.193C259.137 188.692 259.764 188.5 260.035 188.779C260.311 189.053 260.122 189.687 259.598 190.191C259.074 190.693 258.413 190.869 258.146 190.594Z" fill="#F1E6DD"/>
<path d="M312.081 134.303V135.591C312.081 139.381 314.146 143.077 315.969 146.342C317.541 149.153 318.895 151.577 318.895 153.804C318.895 159.154 312.594 163.506 304.851 163.506C297.106 163.506 290.809 159.154 290.809 153.804C290.809 148.981 299.127 137.586 307.98 133.974L312.081 132.303V134.303Z" fill="url(#paint32_radial_14_2100)"/>
<path d="M310.426 135.591C310.426 139.597 312.554 143.4 314.43 146.757C315.94 149.457 317.244 151.789 317.244 153.804C317.244 158.523 311.686 162.364 304.851 162.364C298.019 162.364 292.459 158.523 292.459 153.804C292.459 149.333 300.544 138.333 308.821 134.958L310.426 134.304V135.591Z" fill="url(#paint33_radial_14_2100)"/>
<path d="M313.923 151.545C313.923 149.938 313.287 148.071 312.406 146.004C313.971 148.809 315.426 151.288 315.426 153.284C315.426 157.607 310.355 161.108 304.101 161.108C303.821 161.108 303.547 161.094 303.272 161.083C309.209 160.783 313.923 156.633 313.923 151.545Z" fill="#D1DCEE"/>
<path d="M303.016 142.769C302.846 142.605 302.953 142.22 303.246 141.914C303.537 141.608 303.906 141.492 304.074 141.659C304.242 141.826 304.144 142.212 303.851 142.519C303.56 142.828 303.181 142.939 303.016 142.769Z" fill="#F1E6DD"/>
<path d="M299.363 147.099C299.097 146.823 299.32 146.201 299.839 145.698C300.353 145.199 300.98 145.007 301.251 145.285C301.526 145.557 301.338 146.191 300.812 146.696C300.29 147.197 299.628 147.376 299.363 147.099Z" fill="#F1E6DD"/>
<path d="M279.481 22.4783C279.546 21.9416 279.583 21.4026 279.583 20.8556C279.583 9.33608 265.572 0 248.289 0C234.198 0 222.285 6.2091 218.363 14.7465C213.857 12.4676 208.074 11.0966 201.765 11.0966C187.387 11.0966 175.731 18.2079 175.731 26.9785C175.731 27.7531 175.83 28.5127 176.001 29.2574C158.947 31.1455 146.377 37.6316 146.377 45.3461C146.377 54.5397 164.229 61.9922 186.257 61.9922C194.003 61.9922 201.227 61.066 207.347 59.4732C213.92 61.536 222.044 62.7576 230.843 62.7576C239.258 62.7576 247.049 61.6394 253.468 59.7386C259.208 61.8853 266.091 63.1414 273.495 63.1414C293.532 63.1414 309.773 53.9743 309.773 42.6662C309.771 32.5108 296.667 24.0883 279.481 22.4783Z" fill="url(#paint34_radial_14_2100)"/>
<path d="M221.025 16.1485L220.086 18.186L217.59 16.9219C213.576 14.8913 208.478 13.7754 203.235 13.7754C190.905 13.7754 180.88 19.811 180.88 27.2313C180.88 27.8553 180.951 28.4989 181.106 29.139L181.465 30.6605L179.259 30.903C163.893 32.6038 153.163 38.2291 153.163 44.5761C153.163 52.3952 169.056 58.756 188.589 58.756C195.382 58.756 201.996 57.9677 207.719 56.4783L208.583 56.2531L209.426 56.5151C215.604 58.4561 222.954 59.4823 230.69 59.4823C238.072 59.4823 245.155 58.5377 251.173 56.7542L252.164 56.46L253.111 56.8139C258.397 58.7963 264.573 59.8443 270.962 59.8443C288.622 59.8443 302.988 51.8597 302.988 42.0479C302.988 33.3335 291.77 25.9568 276.314 24.5089L274.305 24.3204L274.486 21.4555C274.486 11.4448 262.229 3.29932 247.166 3.29932C235.06 3.29932 224.553 8.4638 221.025 16.1485Z" fill="url(#paint35_radial_14_2100)"/>
<path d="M298.811 41.4227C298.811 34.3563 289.31 28.3345 276.216 27.106L269.937 26.5188C269.937 26.5188 270.293 21.0004 270.308 20.797C270.28 12.5952 260.152 5.92749 247.7 5.92749C241.246 5.92749 235.358 7.69151 231.196 10.6243C234.767 9.09468 239.015 8.22476 243.546 8.22476C255.998 8.22476 266.128 14.8924 266.155 23.093C266.141 23.2976 265.785 28.8149 265.785 28.8149L272.061 29.4033C285.157 30.6295 294.658 36.6513 294.658 43.72C294.658 47.0595 292.527 50.1371 288.956 52.5963C294.972 49.9256 298.811 45.9103 298.811 41.4227Z" fill="url(#paint36_radial_14_2100)"/>
<path d="M232.631 20.0385C232.675 19.6891 232.7 19.3409 232.7 18.9858C232.7 11.5229 223.619 5.47241 212.42 5.47241C203.288 5.47241 195.569 9.49574 193.027 15.0268C190.106 13.549 186.359 12.6606 182.268 12.6606C172.952 12.6606 165.399 17.2712 165.399 22.954C165.399 23.455 165.464 23.948 165.573 24.4319C154.519 25.6535 146.375 29.8572 146.375 34.8562C146.375 40.8159 157.944 45.6448 172.218 45.6448C177.24 45.6448 181.921 45.045 185.885 44.0107C190.146 45.3483 195.411 46.1413 201.113 46.1413C206.563 46.1413 211.615 45.415 215.773 44.1831C219.493 45.5759 223.954 46.3895 228.753 46.3895C241.737 46.3895 252.261 40.4493 252.261 33.1221C252.261 26.5418 243.769 21.0808 232.631 20.0385Z" fill="url(#paint37_radial_14_2100)"/>
<path d="M197.067 57.7288V59.4928C197.067 64.6814 199.898 69.7413 202.393 74.2071C204.544 78.058 206.399 81.3746 206.399 84.4257C206.399 91.7484 197.773 97.7081 187.172 97.7081C176.571 97.7081 167.945 91.7495 167.945 84.4257C167.945 77.8213 179.333 62.2256 191.455 57.2794L197.067 54.9902V57.7288Z" fill="url(#paint38_radial_14_2100)"/>
<path d="M194.805 59.4928C194.805 64.9768 197.716 70.1815 200.286 74.7783C202.352 78.4752 204.137 81.6665 204.137 84.4258C204.137 90.8865 196.527 96.143 187.172 96.143C177.819 96.143 170.209 90.8865 170.209 84.4258C170.209 78.3029 181.275 63.2461 192.606 58.624L194.803 57.73V59.4928H194.805Z" fill="url(#paint39_radial_14_2100)"/>
<path d="M199.591 81.3332C199.591 79.1302 198.721 76.572 197.516 73.745C199.655 77.5868 201.647 80.978 201.647 83.712C201.647 89.628 194.707 94.4213 186.142 94.4213C185.761 94.4213 185.386 94.4029 185.01 94.3857C193.14 93.9766 199.591 88.3007 199.591 81.3332Z" fill="#D1DCEE"/>
<path d="M184.66 69.3207C184.429 69.0943 184.577 68.5679 184.978 68.1485C185.376 67.7267 185.881 67.5704 186.109 67.798C186.342 68.0232 186.207 68.5541 185.805 68.9747C185.406 69.3953 184.885 69.5494 184.66 69.3207Z" fill="#F1E6DD"/>
<path d="M179.654 75.2472C179.296 74.8691 179.597 74.0152 180.307 73.3303C181.013 72.6442 181.868 72.3822 182.24 72.7603C182.618 73.1372 182.363 74.0049 181.643 74.6933C180.926 75.3816 180.023 75.6241 179.654 75.2472Z" fill="#F1E6DD"/>
<path d="M223.194 46.516V47.5767C223.194 50.6991 224.895 53.7468 226.396 56.4324C227.693 58.7515 228.811 60.7477 228.811 62.5829C228.811 66.9912 223.616 70.579 217.237 70.579C210.855 70.579 205.663 66.9912 205.663 62.5829C205.663 58.6102 212.518 49.2201 219.817 46.2448L223.194 44.8646V46.516Z" fill="url(#paint40_radial_14_2100)"/>
<path d="M221.831 47.5767C221.831 50.8783 223.583 54.0099 225.128 56.7783C226.372 59.0032 227.447 60.9235 227.447 62.5841C227.447 66.4752 222.866 69.639 217.235 69.639C211.605 69.639 207.024 66.4752 207.024 62.5841C207.024 58.8997 213.684 49.836 220.504 47.0527L221.828 46.516V47.5767H221.831Z" fill="url(#paint41_radial_14_2100)"/>
<path d="M224.711 60.7223C224.711 59.3984 224.188 57.8586 223.463 56.1543C224.75 58.4688 225.948 60.5097 225.948 62.1542C225.948 65.7144 221.771 68.6012 216.617 68.6012C216.387 68.6012 216.161 68.5886 215.936 68.5771C220.827 68.3346 224.711 64.9169 224.711 60.7223Z" fill="#D1DCEE"/>
<path d="M215.723 53.4916C215.582 53.3571 215.674 53.0388 215.913 52.786C216.151 52.5343 216.459 52.4401 216.597 52.5757C216.733 52.7136 216.653 53.0319 216.41 53.2836C216.171 53.5387 215.86 53.6306 215.723 53.4916Z" fill="#F1E6DD"/>
<path d="M212.713 57.0598C212.497 56.8311 212.678 56.3174 213.105 55.9048C213.529 55.4934 214.045 55.336 214.268 55.5635C214.496 55.7888 214.341 56.3093 213.909 56.7277C213.475 57.1414 212.932 57.2862 212.713 57.0598Z" fill="#F1E6DD"/>
<path d="M226.168 73.6233V74.4151C226.168 76.7479 227.44 79.0233 228.561 81.031C229.526 82.7617 230.363 84.2522 230.363 85.6243C230.363 88.9144 226.485 91.5944 221.72 91.5944C216.954 91.5944 213.079 88.9144 213.079 85.6243C213.079 82.6559 218.198 75.6436 223.646 73.4222L226.169 72.3925L226.168 73.6233Z" fill="url(#paint42_radial_14_2100)"/>
<path d="M225.151 74.415C225.151 76.8811 226.459 79.2221 227.613 81.2872C228.543 82.9477 229.346 84.3819 229.346 85.623C229.346 88.5271 225.923 90.891 221.72 90.891C217.513 90.891 214.097 88.5271 214.097 85.623C214.097 82.8696 219.07 76.1008 224.162 74.0231L225.151 73.6208V74.415Z" fill="url(#paint43_radial_14_2100)"/>
<path d="M227.302 84.2326C227.302 83.2443 226.911 82.0963 226.369 80.823C227.332 82.5502 228.227 84.074 228.227 85.3025C228.227 87.9629 225.106 90.1177 221.259 90.1177C221.086 90.1177 220.918 90.1085 220.748 90.1005C224.401 89.92 227.302 87.3653 227.302 84.2326Z" fill="#D1DCEE"/>
<path d="M220.59 78.8337C220.486 78.7314 220.554 78.4969 220.734 78.3085C220.91 78.12 221.138 78.0476 221.242 78.151C221.347 78.251 221.286 78.49 221.106 78.6785C220.926 78.8693 220.69 78.9359 220.59 78.8337Z" fill="#F1E6DD"/>
<path d="M218.343 81.4998C218.179 81.3275 218.315 80.9448 218.636 80.6345C218.952 80.3277 219.338 80.2093 219.504 80.3805C219.674 80.5495 219.559 80.9379 219.236 81.2482C218.912 81.5596 218.506 81.6699 218.343 81.4998Z" fill="#F1E6DD"/>
<path d="M248.107 91.9231V92.7161C248.107 95.0478 249.376 97.3232 250.501 99.332C251.469 101.063 252.302 102.552 252.302 103.924C252.302 107.214 248.423 109.894 243.658 109.894C238.891 109.894 235.017 107.214 235.017 103.924C235.017 100.956 240.135 93.9434 245.584 91.722L248.107 90.6935V91.9231Z" fill="url(#paint44_radial_14_2100)"/>
<path d="M247.089 92.7149C247.089 95.1811 248.397 97.5196 249.553 99.587C250.481 101.246 251.283 102.683 251.283 103.922C251.283 106.826 247.863 109.19 243.656 109.19C239.453 109.19 236.031 106.826 236.031 103.922C236.031 101.17 241.005 94.403 246.096 92.323L247.088 91.9208L247.089 92.7149Z" fill="url(#paint45_radial_14_2100)"/>
<path d="M249.24 102.532C249.24 101.543 248.849 100.395 248.308 99.1228C249.27 100.849 250.166 102.374 250.166 103.602C250.166 106.262 247.046 108.418 243.197 108.418C243.026 108.418 242.856 108.407 242.686 108.399C246.341 108.218 249.24 105.665 249.24 102.532Z" fill="#D1DCEE"/>
<path d="M242.53 97.1335C242.425 97.0324 242.492 96.7945 242.673 96.6072C242.849 96.4187 243.077 96.3474 243.182 96.4497C243.287 96.552 243.225 96.7899 243.046 96.9783C242.864 97.168 242.631 97.2358 242.53 97.1335Z" fill="#F1E6DD"/>
<path d="M240.281 99.7973C240.118 99.6272 240.255 99.2445 240.574 98.9354C240.89 98.6286 241.273 98.5102 241.44 98.6803C241.612 98.8492 241.495 99.2388 241.173 99.5503C240.85 99.8582 240.444 99.9685 240.281 99.7973Z" fill="#F1E6DD"/>
<path d="M217.638 97.353V98.6401C217.638 102.434 219.701 106.127 221.525 109.392C223.097 112.203 224.449 114.627 224.449 116.854C224.449 122.204 218.15 126.556 210.406 126.556C202.664 126.556 196.364 122.204 196.364 116.854C196.364 112.031 204.682 100.636 213.538 97.0243L217.636 95.3534L217.638 97.353Z" fill="url(#paint46_radial_14_2100)"/>
<path d="M215.985 98.6413C215.985 102.649 218.11 106.451 219.987 109.808C221.495 112.509 222.801 114.84 222.801 116.855C222.801 121.576 217.24 125.415 210.407 125.415C203.576 125.415 198.017 121.575 198.017 116.855C198.017 112.382 206.103 101.384 214.378 98.0092L215.986 97.3553V98.6413H215.985Z" fill="url(#paint47_radial_14_2100)"/>
<path d="M219.481 114.594C219.481 112.988 218.846 111.12 217.964 109.054C219.528 111.859 220.983 114.338 220.983 116.334C220.983 120.656 215.911 124.157 209.659 124.157C209.379 124.157 209.105 124.144 208.829 124.132C214.767 123.833 219.481 119.684 219.481 114.594Z" fill="#D1DCEE"/>
<path d="M208.573 105.82C208.405 105.656 208.513 105.271 208.804 104.968C209.095 104.66 209.464 104.543 209.631 104.71C209.802 104.876 209.704 105.263 209.408 105.57C209.117 105.878 208.737 105.99 208.573 105.82Z" fill="#F1E6DD"/>
<path d="M204.918 110.15C204.655 109.873 204.878 109.25 205.396 108.749C205.91 108.248 206.537 108.056 206.808 108.336C207.084 108.609 206.894 109.244 206.37 109.747C205.846 110.249 205.186 110.425 204.918 110.15Z" fill="#F1E6DD"/>
<path d="M258.854 53.8595V55.1477C258.854 58.9378 260.918 62.6336 262.741 65.8984C264.313 68.7094 265.667 71.133 265.667 73.3601C265.667 78.7108 259.367 83.0628 251.624 83.0628C243.879 83.0628 237.582 78.7108 237.582 73.3601C237.582 68.537 245.9 57.1427 254.752 53.5308L258.854 51.8599V53.8595Z" fill="url(#paint48_radial_14_2100)"/>
<path d="M257.199 55.1477C257.199 59.1538 259.327 62.9565 261.203 66.3133C262.713 69.0139 264.017 71.3456 264.017 73.3601C264.017 78.0799 258.458 81.9205 251.624 81.9205C244.792 81.9205 239.232 78.0799 239.232 73.3601C239.232 68.8898 247.317 57.8897 255.594 54.5145L257.199 53.8606V55.1477Z" fill="url(#paint49_radial_14_2100)"/>
<path d="M260.696 71.1008C260.696 69.4942 260.06 67.6268 259.179 65.5605C260.744 68.3657 262.199 70.8445 262.199 72.8407C262.199 77.1628 257.128 80.6644 250.873 80.6644C250.594 80.6644 250.319 80.6506 250.045 80.6391C255.982 80.3392 260.696 76.1894 260.696 71.1008Z" fill="#D1DCEE"/>
<path d="M249.789 62.3255C249.619 62.1612 249.726 61.7762 250.018 61.4705C250.31 61.1648 250.679 61.0488 250.847 61.2154C251.015 61.382 250.917 61.7682 250.624 62.075C250.333 62.3841 249.954 62.4956 249.789 62.3255Z" fill="#F1E6DD"/>
<path d="M246.136 66.6557C245.87 66.3799 246.093 65.757 246.612 65.2548C247.126 64.7549 247.753 64.563 248.024 64.8411C248.299 65.1135 248.111 65.7478 247.585 66.2523C247.063 66.7534 246.401 66.9327 246.136 66.6557Z" fill="#F1E6DD"/>
<defs>
<radialGradient id="paint0_radial_14_2100" cx="0" cy="0" r="1" gradientUnits="userSpaceOnUse" gradientTransform="translate(232.638 18.9843) scale(52.7015 36.411)">
<stop offset="0.0056" stop-color="#A9D1EF"/>
<stop offset="0.5393" stop-color="#1998D5"/>
<stop offset="1" stop-color="#0073BB"/>
</radialGradient>
<radialGradient id="paint1_radial_14_2100" cx="0" cy="0" r="1" gradientUnits="userSpaceOnUse" gradientTransform="translate(232.474 21.6832) scale(63.1911 43.6581)">
<stop stop-color="#CBEBFB"/>
<stop offset="0.7767" stop-color="#BDCDDA"/>
<stop offset="1" stop-color="#B9C4D0"/>
</radialGradient>
<radialGradient id="paint2_radial_14_2100" cx="0" cy="0" r="1" gradientUnits="userSpaceOnUse" gradientTransform="translate(112.359 138.481) scale(128.412 88.7185)">
<stop offset="0.0056" stop-color="#A9D1EF"/>
<stop offset="0.5393" stop-color="#1998D5"/>
<stop offset="1" stop-color="#0073BB"/>
</radialGradient>
<radialGradient id="paint3_radial_14_2100" cx="0" cy="0" r="1" gradientUnits="userSpaceOnUse" gradientTransform="translate(135.016 83.0919) scale(81.3349 56.1936)">
<stop offset="0.0056" stop-color="#A9D1EF"/>
<stop offset="0.5393" stop-color="#1998D5"/>
<stop offset="1" stop-color="#0073BB"/>
</radialGradient>
<radialGradient id="paint4_radial_14_2100" cx="0" cy="0" r="1" gradientUnits="userSpaceOnUse" gradientTransform="translate(134.549 86.737) scale(97.5434 67.3785)">
<stop stop-color="#CBEBFB"/>
<stop offset="0.7767" stop-color="#BDCDDA"/>
<stop offset="1" stop-color="#B9C4D0"/>
</radialGradient>
<radialGradient id="paint5_radial_14_2100" cx="0" cy="0" r="1" gradientUnits="userSpaceOnUse" gradientTransform="translate(71.5839 115.779) scale(83.2031 57.4844)">
<stop offset="0.0056" stop-color="#A9D1EF"/>
<stop offset="0.5393" stop-color="#1998D5"/>
<stop offset="1" stop-color="#0073BB"/>
</radialGradient>
<radialGradient id="paint6_radial_14_2100" cx="0" cy="0" r="1" gradientUnits="userSpaceOnUse" gradientTransform="translate(86.2627 79.8915) scale(52.7015 36.411)">
<stop offset="0.0056" stop-color="#A9D1EF"/>
<stop offset="0.5393" stop-color="#1998D5"/>
<stop offset="1" stop-color="#0073BB"/>
</radialGradient>
<radialGradient id="paint7_radial_14_2100" cx="0" cy="0" r="1" gradientUnits="userSpaceOnUse" gradientTransform="translate(86.099 82.5905) scale(63.1911 43.6581)">
<stop stop-color="#CBEBFB"/>
<stop offset="0.7767" stop-color="#BDCDDA"/>
<stop offset="1" stop-color="#B9C4D0"/>
</radialGradient>
<radialGradient id="paint8_radial_14_2100" cx="0" cy="0" r="1" gradientUnits="userSpaceOnUse" gradientTransform="translate(59.4698 112.989) scale(37.6797 26.0326)">
<stop offset="0.0056" stop-color="#D3DFF2"/>
<stop offset="0.5393" stop-color="#1998D5"/>
<stop offset="1" stop-color="#0073BB"/>
</radialGradient>
<radialGradient id="paint9_radial_14_2100" cx="0" cy="0" r="1" gradientUnits="userSpaceOnUse" gradientTransform="translate(71.8385 118.251) rotate(180) scale(13.8548 9.57219)">
<stop offset="0.0056" stop-color="#A9D1EF"/>
<stop offset="0.5393" stop-color="#1998D5"/>
<stop offset="1" stop-color="#0073BB"/>
</radialGradient>
<radialGradient id="paint10_radial_14_2100" cx="0" cy="0" r="1" gradientUnits="userSpaceOnUse" gradientTransform="translate(67.4778 139.109) scale(28.1437 19.4443)">
<stop offset="0.0056" stop-color="#D3DFF2"/>
<stop offset="0.5393" stop-color="#1998D5"/>
<stop offset="1" stop-color="#0073BB"/>
</radialGradient>
<radialGradient id="paint11_radial_14_2100" cx="0" cy="0" r="1" gradientUnits="userSpaceOnUse" gradientTransform="translate(75.5795 142.988) rotate(180) scale(10.3505 7.15108)">
<stop offset="0.0056" stop-color="#A9D1EF"/>
<stop offset="0.5393" stop-color="#1998D5"/>
<stop offset="1" stop-color="#0073BB"/>
</radialGradient>
<radialGradient id="paint12_radial_14_2100" cx="0" cy="0" r="1" gradientUnits="userSpaceOnUse" gradientTransform="translate(89.4165 157.408) scale(28.1439 19.4443)">
<stop offset="0.0056" stop-color="#D3DFF2"/>
<stop offset="0.5393" stop-color="#1998D5"/>
<stop offset="1" stop-color="#0073BB"/>
</radialGradient>
<radialGradient id="paint13_radial_14_2100" cx="0" cy="0" r="1" gradientUnits="userSpaceOnUse" gradientTransform="translate(97.5185 161.288) rotate(180) scale(10.3513 7.1516)">
<stop offset="0.0056" stop-color="#A9D1EF"/>
<stop offset="0.5393" stop-color="#1998D5"/>
<stop offset="1" stop-color="#0073BB"/>
</radialGradient>
<radialGradient id="paint14_radial_14_2100" cx="0" cy="0" r="1" gradientUnits="userSpaceOnUse" gradientTransform="translate(91.8046 121.77) scale(45.7284 31.5933)">
<stop offset="0.0056" stop-color="#D3DFF2"/>
<stop offset="0.5393" stop-color="#1998D5"/>
<stop offset="1" stop-color="#0073BB"/>
</radialGradient>
<radialGradient id="paint15_radial_14_2100" cx="0" cy="0" r="1" gradientUnits="userSpaceOnUse" gradientTransform="translate(105.391 128.688) rotate(180) scale(16.8217 11.622)">
<stop offset="0.0056" stop-color="#A9D1EF"/>
<stop offset="0.5393" stop-color="#1998D5"/>
<stop offset="1" stop-color="#0073BB"/>
</radialGradient>
<radialGradient id="paint16_radial_14_2100" cx="0" cy="0" r="1" gradientUnits="userSpaceOnUse" gradientTransform="translate(311.961 158.017) scale(128.412 88.7185)">
<stop offset="0.0056" stop-color="#A9D1EF"/>
<stop offset="0.5393" stop-color="#1998D5"/>
<stop offset="1" stop-color="#0073BB"/>
</radialGradient>
<radialGradient id="paint17_radial_14_2100" cx="0" cy="0" r="1" gradientUnits="userSpaceOnUse" gradientTransform="translate(334.618 102.628) scale(81.3349 56.1936)">
<stop offset="0.0056" stop-color="#A9D1EF"/>
<stop offset="0.5393" stop-color="#1998D5"/>
<stop offset="1" stop-color="#0073BB"/>
</radialGradient>
<radialGradient id="paint18_radial_14_2100" cx="0" cy="0" r="1" gradientUnits="userSpaceOnUse" gradientTransform="translate(334.151 106.273) scale(97.5434 67.3785)">
<stop stop-color="#CBEBFB"/>
<stop offset="0.7767" stop-color="#BDCDDA"/>
<stop offset="1" stop-color="#B9C4D0"/>
</radialGradient>
<radialGradient id="paint19_radial_14_2100" cx="0" cy="0" r="1" gradientUnits="userSpaceOnUse" gradientTransform="translate(271.186 135.315) scale(83.2031 57.4844)">
<stop offset="0.0056" stop-color="#A9D1EF"/>
<stop offset="0.5393" stop-color="#1998D5"/>
<stop offset="1" stop-color="#0073BB"/>
</radialGradient>
<radialGradient id="paint20_radial_14_2100" cx="0" cy="0" r="1" gradientUnits="userSpaceOnUse" gradientTransform="translate(285.865 99.4278) scale(52.7015 36.411)">
<stop offset="0.0056" stop-color="#A9D1EF"/>
<stop offset="0.5393" stop-color="#1998D5"/>
<stop offset="1" stop-color="#0073BB"/>
</radialGradient>
<radialGradient id="paint21_radial_14_2100" cx="0" cy="0" r="1" gradientUnits="userSpaceOnUse" gradientTransform="translate(285.701 102.127) scale(63.1911 43.6581)">
<stop stop-color="#CBEBFB"/>
<stop offset="0.7767" stop-color="#BDCDDA"/>
<stop offset="1" stop-color="#B9C4D0"/>
</radialGradient>
<radialGradient id="paint22_radial_14_2100" cx="0" cy="0" r="1" gradientUnits="userSpaceOnUse" gradientTransform="translate(222.802 148.291) scale(62.6076 43.255)">
<stop offset="0.0056" stop-color="#D3DFF2"/>
<stop offset="0.5393" stop-color="#1998D5"/>
<stop offset="1" stop-color="#0073BB"/>
</radialGradient>
<radialGradient id="paint23_radial_14_2100" cx="0" cy="0" r="1" gradientUnits="userSpaceOnUse" gradientTransform="translate(239.457 158.087) rotate(180) scale(23.0368 15.9159)">
<stop offset="0.0056" stop-color="#A9D1EF"/>
<stop offset="0.5393" stop-color="#1998D5"/>
<stop offset="1" stop-color="#0073BB"/>
</radialGradient>
<radialGradient id="paint24_radial_14_2100" cx="0" cy="0" r="1" gradientUnits="userSpaceOnUse" gradientTransform="translate(259.072 132.525) scale(37.6797 26.0326)">
<stop offset="0.0056" stop-color="#D3DFF2"/>
<stop offset="0.5393" stop-color="#1998D5"/>
<stop offset="1" stop-color="#0073BB"/>
</radialGradient>
<radialGradient id="paint25_radial_14_2100" cx="0" cy="0" r="1" gradientUnits="userSpaceOnUse" gradientTransform="translate(271.441 137.787) rotate(180) scale(13.8548 9.57219)">
<stop offset="0.0056" stop-color="#A9D1EF"/>
<stop offset="0.5393" stop-color="#1998D5"/>
<stop offset="1" stop-color="#0073BB"/>
</radialGradient>
<radialGradient id="paint26_radial_14_2100" cx="0" cy="0" r="1" gradientUnits="userSpaceOnUse" gradientTransform="translate(267.08 158.646) scale(28.1437 19.4443)">
<stop offset="0.0056" stop-color="#D3DFF2"/>
<stop offset="0.5393" stop-color="#1998D5"/>
<stop offset="1" stop-color="#0073BB"/>
</radialGradient>
<radialGradient id="paint27_radial_14_2100" cx="0" cy="0" r="1" gradientUnits="userSpaceOnUse" gradientTransform="translate(275.182 162.524) rotate(180) scale(10.3505 7.15108)">
<stop offset="0.0056" stop-color="#A9D1EF"/>
<stop offset="0.5393" stop-color="#1998D5"/>
<stop offset="1" stop-color="#0073BB"/>
</radialGradient>
<radialGradient id="paint28_radial_14_2100" cx="0" cy="0" r="1" gradientUnits="userSpaceOnUse" gradientTransform="translate(289.019 176.944) scale(28.1439 19.4443)">
<stop offset="0.0056" stop-color="#D3DFF2"/>
<stop offset="0.5393" stop-color="#1998D5"/>
<stop offset="1" stop-color="#0073BB"/>
</radialGradient>
<radialGradient id="paint29_radial_14_2100" cx="0" cy="0" r="1" gradientUnits="userSpaceOnUse" gradientTransform="translate(297.121 180.825) rotate(180) scale(10.3513 7.1516)">
<stop offset="0.0056" stop-color="#A9D1EF"/>
<stop offset="0.5393" stop-color="#1998D5"/>
<stop offset="1" stop-color="#0073BB"/>
</radialGradient>
<radialGradient id="paint30_radial_14_2100" cx="0" cy="0" r="1" gradientUnits="userSpaceOnUse" gradientTransform="translate(250.191 184.801) scale(45.7285 31.5935)">
<stop offset="0.0056" stop-color="#D3DFF2"/>
<stop offset="0.5393" stop-color="#1998D5"/>
<stop offset="1" stop-color="#0073BB"/>
</radialGradient>
<radialGradient id="paint31_radial_14_2100" cx="0" cy="0" r="1" gradientUnits="userSpaceOnUse" gradientTransform="translate(263.779 191.718) rotate(180) scale(16.8217 11.622)">
<stop offset="0.0056" stop-color="#A9D1EF"/>
<stop offset="0.5393" stop-color="#1998D5"/>
<stop offset="1" stop-color="#0073BB"/>
</radialGradient>
<radialGradient id="paint32_radial_14_2100" cx="0" cy="0" r="1" gradientUnits="userSpaceOnUse" gradientTransform="translate(291.407 141.306) scale(45.7284 31.5933)">
<stop offset="0.0056" stop-color="#D3DFF2"/>
<stop offset="0.5393" stop-color="#1998D5"/>
<stop offset="1" stop-color="#0073BB"/>
</radialGradient>
<radialGradient id="paint33_radial_14_2100" cx="0" cy="0" r="1" gradientUnits="userSpaceOnUse" gradientTransform="translate(304.993 148.224) rotate(180) scale(16.8217 11.622)">
<stop offset="0.0056" stop-color="#A9D1EF"/>
<stop offset="0.5393" stop-color="#1998D5"/>
<stop offset="1" stop-color="#0073BB"/>
</radialGradient>
<radialGradient id="paint34_radial_14_2100" cx="0" cy="0" r="1" gradientUnits="userSpaceOnUse" gradientTransform="translate(258.734 77.5734) scale(128.412 88.7185)">
<stop offset="0.0056" stop-color="#A9D1EF"/>
<stop offset="0.5393" stop-color="#1998D5"/>
<stop offset="1" stop-color="#0073BB"/>
</radialGradient>
<radialGradient id="paint35_radial_14_2100" cx="0" cy="0" r="1" gradientUnits="userSpaceOnUse" gradientTransform="translate(281.391 22.1845) scale(81.3349 56.1936)">
<stop offset="0.0056" stop-color="#A9D1EF"/>
<stop offset="0.5393" stop-color="#1998D5"/>
<stop offset="1" stop-color="#0073BB"/>
</radialGradient>
<radialGradient id="paint36_radial_14_2100" cx="0" cy="0" r="1" gradientUnits="userSpaceOnUse" gradientTransform="translate(280.924 25.8296) scale(97.5434 67.3785)">
<stop stop-color="#CBEBFB"/>
<stop offset="0.7767" stop-color="#BDCDDA"/>
<stop offset="1" stop-color="#B9C4D0"/>
</radialGradient>
<radialGradient id="paint37_radial_14_2100" cx="0" cy="0" r="1" gradientUnits="userSpaceOnUse" gradientTransform="translate(217.959 54.8712) scale(83.2031 57.4844)">
<stop offset="0.0056" stop-color="#A9D1EF"/>
<stop offset="0.5393" stop-color="#1998D5"/>
<stop offset="1" stop-color="#0073BB"/>
</radialGradient>
<radialGradient id="paint38_radial_14_2100" cx="0" cy="0" r="1" gradientUnits="userSpaceOnUse" gradientTransform="translate(169.574 67.8476) scale(62.6076 43.255)">
<stop offset="0.0056" stop-color="#D3DFF2"/>
<stop offset="0.5393" stop-color="#1998D5"/>
<stop offset="1" stop-color="#0073BB"/>
</radialGradient>
<radialGradient id="paint39_radial_14_2100" cx="0" cy="0" r="1" gradientUnits="userSpaceOnUse" gradientTransform="translate(186.229 77.6432) rotate(180) scale(23.0368 15.9159)">
<stop offset="0.0056" stop-color="#A9D1EF"/>
<stop offset="0.5393" stop-color="#1998D5"/>
<stop offset="1" stop-color="#0073BB"/>
</radialGradient>
<radialGradient id="paint40_radial_14_2100" cx="0" cy="0" r="1" gradientUnits="userSpaceOnUse" gradientTransform="translate(205.845 52.0816) scale(37.6797 26.0326)">
<stop offset="0.0056" stop-color="#D3DFF2"/>
<stop offset="0.5393" stop-color="#1998D5"/>
<stop offset="1" stop-color="#0073BB"/>
</radialGradient>
<radialGradient id="paint41_radial_14_2100" cx="0" cy="0" r="1" gradientUnits="userSpaceOnUse" gradientTransform="translate(218.213 57.3432) rotate(180) scale(13.8548 9.57219)">
<stop offset="0.0056" stop-color="#A9D1EF"/>
<stop offset="0.5393" stop-color="#1998D5"/>
<stop offset="1" stop-color="#0073BB"/>
</radialGradient>
<radialGradient id="paint42_radial_14_2100" cx="0" cy="0" r="1" gradientUnits="userSpaceOnUse" gradientTransform="translate(213.853 78.2021) scale(28.1437 19.4443)">
<stop offset="0.0056" stop-color="#D3DFF2"/>
<stop offset="0.5393" stop-color="#1998D5"/>
<stop offset="1" stop-color="#0073BB"/>
</radialGradient>
<radialGradient id="paint43_radial_14_2100" cx="0" cy="0" r="1" gradientUnits="userSpaceOnUse" gradientTransform="translate(221.954 82.0807) rotate(180) scale(10.3505 7.15108)">
<stop offset="0.0056" stop-color="#A9D1EF"/>
<stop offset="0.5393" stop-color="#1998D5"/>
<stop offset="1" stop-color="#0073BB"/>
</radialGradient>
<radialGradient id="paint44_radial_14_2100" cx="0" cy="0" r="1" gradientUnits="userSpaceOnUse" gradientTransform="translate(235.792 96.5006) scale(28.1439 19.4443)">
<stop offset="0.0056" stop-color="#D3DFF2"/>
<stop offset="0.5393" stop-color="#1998D5"/>
<stop offset="1" stop-color="#0073BB"/>
</radialGradient>
<radialGradient id="paint45_radial_14_2100" cx="0" cy="0" r="1" gradientUnits="userSpaceOnUse" gradientTransform="translate(243.893 100.381) rotate(180) scale(10.3513 7.1516)">
<stop offset="0.0056" stop-color="#A9D1EF"/>
<stop offset="0.5393" stop-color="#1998D5"/>
<stop offset="1" stop-color="#0073BB"/>
</radialGradient>
<radialGradient id="paint46_radial_14_2100" cx="0" cy="0" r="1" gradientUnits="userSpaceOnUse" gradientTransform="translate(196.963 104.358) scale(45.7285 31.5935)">
<stop offset="0.0056" stop-color="#D3DFF2"/>
<stop offset="0.5393" stop-color="#1998D5"/>
<stop offset="1" stop-color="#0073BB"/>
</radialGradient>
<radialGradient id="paint47_radial_14_2100" cx="0" cy="0" r="1" gradientUnits="userSpaceOnUse" gradientTransform="translate(210.552 111.274) rotate(180) scale(16.8217 11.622)">
<stop offset="0.0056" stop-color="#A9D1EF"/>
<stop offset="0.5393" stop-color="#1998D5"/>
<stop offset="1" stop-color="#0073BB"/>
</radialGradient>
<radialGradient id="paint48_radial_14_2100" cx="0" cy="0" r="1" gradientUnits="userSpaceOnUse" gradientTransform="translate(238.18 60.8626) scale(45.7284 31.5933)">
<stop offset="0.0056" stop-color="#D3DFF2"/>
<stop offset="0.5393" stop-color="#1998D5"/>
<stop offset="1" stop-color="#0073BB"/>
</radialGradient>
<radialGradient id="paint49_radial_14_2100" cx="0" cy="0" r="1" gradientUnits="userSpaceOnUse" gradientTransform="translate(251.766 67.7803) rotate(180) scale(16.8217 11.622)">
<stop offset="0.0056" stop-color="#A9D1EF"/>
<stop offset="0.5393" stop-color="#1998D5"/>
<stop offset="1" stop-color="#0073BB"/>
</radialGradient>
</defs>
</svg>
