<svg width="363" height="207" viewBox="0 0 363 207" fill="none" xmlns="http://www.w3.org/2000/svg">
<path d="M16.0119 133.195C26.2364 155.214 63.6697 162.991 87.9306 153.713C107.338 146.288 116.439 125.99 108.262 108.374C101.716 94.283 83.8283 87.6718 68.3026 93.613C55.8824 98.3624 50.0577 111.355 55.29 122.631C48.3878 107.765 56.0701 90.6408 72.4423 84.3778C92.9123 76.5472 116.492 85.2606 125.118 103.837C135.901 127.061 123.902 153.821 98.3183 163.605C66.3389 175.839 29.4898 162.221 16.0119 133.195Z" fill="url(#paint0_radial_14_1884)"/>
<path d="M44.6317 156.366C59.9929 164.933 79.5358 166.895 97.3808 160.068C108.669 155.753 117.425 147.706 122.042 137.408C126.658 127.11 126.584 115.803 121.826 105.559C114.053 88.8171 92.7245 80.9367 74.2801 87.9925C71.1001 89.2087 68.2642 90.9203 65.8247 93.0033C63.5706 94.1391 61.5742 95.5553 59.8227 97.1589C63.0913 92.2148 67.9575 88.3281 73.921 86.0449C93.3414 78.6166 115.798 86.9139 123.983 104.543C128.991 115.328 129.07 127.234 124.211 138.076C119.35 148.915 110.129 157.389 98.2438 161.936C76.0048 170.442 51.2646 165.991 34.2802 152.375C37.5336 153.981 41.0156 155.308 44.6317 156.366Z" fill="url(#paint1_radial_14_1884)"/>
<path d="M109.457 163.358C112.857 156.043 125.295 153.459 133.356 156.543C139.806 159.009 142.83 165.755 140.112 171.608C137.94 176.29 131.993 178.487 126.833 176.513C122.706 174.938 120.771 170.62 122.511 166.871C120.216 171.811 122.769 177.502 128.21 179.583C135.009 182.184 142.85 179.289 145.715 173.118C149.297 165.401 145.31 156.51 136.808 153.258C126.18 149.189 113.936 153.712 109.457 163.358Z" fill="url(#paint2_radial_14_1884)"/>
<path d="M61.7199 144.773C73.8393 149.923 91.8079 141.721 97.4799 130.72C102.018 121.917 97.8356 111.444 88.1417 107.326C80.3847 104.032 71.1561 107.066 67.5225 114.106C64.6189 119.736 67.2951 126.443 73.4988 129.079C78.4641 131.186 84.3705 129.243 86.6934 124.737C88.5533 121.133 86.9639 114.858 82.9921 113.169C87.7907 115.211 89.8594 120.392 87.6123 124.748C84.8066 130.191 77.67 132.537 71.6715 129.989C64.1734 126.806 60.941 118.707 64.451 111.9C68.8344 103.395 79.9894 99.7268 89.3603 103.709C101.075 108.686 106.125 121.34 100.642 131.974C93.7915 145.264 76.3639 150.993 61.7199 144.773Z" fill="url(#paint3_radial_14_1884)"/>
<path d="M124.668 159.088C128.749 157.354 134.798 160.121 136.708 163.821C138.237 166.783 136.828 170.309 133.562 171.699C130.952 172.806 127.843 171.786 126.623 169.416C125.646 167.52 126.546 165.262 128.634 164.375C130.306 163.664 132.294 164.317 133.078 165.835C133.702 167.051 133.169 169.162 131.831 169.728C133.451 169.044 134.145 167.298 133.389 165.832C132.441 163.998 130.04 163.208 128.021 164.065C125.495 165.138 124.41 167.867 125.59 170.159C127.066 173.017 130.82 174.257 133.976 172.916C137.917 171.239 139.62 166.979 137.774 163.398C135.466 158.924 129.598 156.993 124.668 159.088Z" fill="url(#paint4_radial_14_1884)"/>
<path d="M0 159.258C8.99305 152.22 34.1845 154.782 41.938 162.945C30.9428 151.366 12.7549 149.273 0 159.258Z" fill="url(#paint5_radial_14_1884)"/>
<path d="M18.7942 163.338C24.1758 159.13 39.2501 160.662 43.8901 165.546C37.3097 158.618 26.4276 157.366 18.7942 163.338Z" fill="url(#paint6_radial_14_1884)"/>
<path d="M174.09 117.049C129.815 112.031 138.87 136.235 138.87 136.235C149.189 126.87 161.515 123.902 161.515 123.902C147.424 130.302 135.572 141.297 135.572 141.297L133.81 147.129L141.894 138.979C156.479 156.788 174.09 117.049 174.09 117.049Z" fill="#94C63D"/>
<path d="M171.168 120.104C171.533 119.389 171.872 118.699 172.168 118.083C157.262 116.617 146.918 118.514 142.289 123.644C140.023 126.159 139.434 129.078 139.434 131.43C139.434 131.786 139.466 132.098 139.487 132.419C139.659 130.301 140.368 127.881 142.289 125.751C146.813 120.733 156.806 118.823 171.168 120.104Z" fill="url(#paint7_linear_14_1884)"/>
<path d="M174.09 117.049C129.815 112.031 138.87 136.235 138.87 136.235C149.189 126.87 161.515 123.902 161.515 123.902C147.424 130.302 135.572 141.297 135.572 141.297L133.81 147.129L141.894 138.979C156.479 156.788 174.09 117.049 174.09 117.049Z" fill="#94C63D"/>
<path d="M171.168 120.104C171.533 119.389 171.872 118.699 172.168 118.083C157.262 116.617 146.918 118.514 142.289 123.644C140.023 126.159 139.434 129.078 139.434 131.43C139.434 131.786 139.466 132.098 139.487 132.419C139.659 130.301 140.368 127.881 142.289 125.751C146.813 120.733 156.806 118.823 171.168 120.104Z" fill="url(#paint8_linear_14_1884)"/>
<path d="M54.3233 131.228C54.3233 131.228 55.6002 129.682 59.2396 129.827C59.2396 129.827 57.852 128.654 59.179 127.954C59.179 127.954 50.5859 131.434 46.2888 135.588C46.2888 135.588 50.2745 131.082 53.423 129.434C53.423 129.434 41.636 122.944 38.3755 143.686C38.3755 143.686 58.9341 138.478 54.3233 131.228Z" fill="#94C63D"/>
<path d="M46.6491 131.653C47.6298 131.229 48.5708 131.107 49.4209 131.122C50.0098 130.613 50.6209 130.117 51.2401 129.671C50.0576 129.38 48.4006 129.214 46.6479 129.978C43.3618 131.403 41.018 135.723 39.7469 142.313C39.874 142.276 40.0151 142.23 40.1503 142.186C41.4844 136.622 43.6755 132.94 46.6491 131.653Z" fill="url(#paint9_linear_14_1884)"/>
<path d="M54.3233 131.228C54.3233 131.228 55.6002 129.682 59.2396 129.827C59.2396 129.827 57.852 128.654 59.179 127.954C59.179 127.954 50.5859 131.434 46.2888 135.588C46.2888 135.588 50.2745 131.082 53.423 129.434C53.423 129.434 41.636 122.944 38.3755 143.686C38.3755 143.686 58.9341 138.478 54.3233 131.228Z" fill="#94C63D"/>
<path d="M46.6491 131.653C47.6298 131.229 48.5708 131.107 49.4209 131.122C50.0098 130.613 50.6209 130.117 51.2401 129.671C50.0576 129.38 48.4006 129.214 46.6479 129.978C43.3618 131.403 41.018 135.723 39.7469 142.313C39.874 142.276 40.0151 142.23 40.1503 142.186C41.4844 136.622 43.6755 132.94 46.6491 131.653Z" fill="url(#paint10_linear_14_1884)"/>
<path d="M193.261 51.6922C203.485 73.7116 240.919 81.4883 265.18 72.2107C284.587 64.7855 293.688 44.4871 285.511 26.872C278.965 12.7805 261.077 6.16932 245.552 12.1105C233.131 16.8599 227.307 29.8527 232.539 41.1286C225.637 26.2623 233.319 9.13837 249.691 2.87538C270.161 -4.95521 293.741 3.75812 302.367 22.3343C313.15 45.5583 301.151 72.3187 275.567 82.1021C243.588 94.337 206.739 80.7187 193.261 51.6922Z" fill="url(#paint11_radial_14_1884)"/>
<path d="M221.881 74.8633C237.242 83.4306 256.785 85.3929 274.63 78.5658C285.918 74.2504 294.674 66.2039 299.291 55.906C303.907 45.6071 303.833 34.3004 299.075 24.0565C291.302 7.31462 269.973 -0.565725 251.529 6.49006C248.349 7.70625 245.513 9.41781 243.074 11.5009C240.819 12.6366 238.823 14.0529 237.072 15.6565C240.34 10.7124 245.206 6.82564 251.17 4.54251C270.59 -2.88586 293.047 5.41146 301.232 23.0403C306.24 33.8251 306.319 45.7319 301.46 56.5739C296.599 67.4127 287.378 75.8868 275.493 80.434C253.254 88.9399 228.513 84.489 211.529 70.8728C214.783 72.4785 218.265 73.8058 221.881 74.8633Z" fill="url(#paint12_radial_14_1884)"/>
<path d="M286.706 81.8556C290.106 74.5404 302.544 71.9567 310.605 75.041C317.055 77.5062 320.079 84.253 317.361 90.1053C315.189 94.788 309.242 96.9843 304.082 95.0102C299.955 93.4352 298.02 89.1177 299.759 85.3686C297.465 90.3085 300.018 95.9999 305.459 98.0809C312.258 100.682 320.099 97.7867 322.964 91.6158C326.546 83.8984 322.559 75.0072 314.057 71.7556C303.429 67.6868 291.185 72.2097 286.706 81.8556Z" fill="url(#paint13_radial_14_1884)"/>
<path d="M238.969 63.2709C251.088 68.4203 269.057 60.2182 274.729 49.2175C279.267 40.4142 275.084 29.9417 265.391 25.8231C257.634 22.5292 248.405 25.5638 244.771 32.6037C241.868 38.2338 244.544 44.9402 250.748 47.5769C255.713 49.6833 261.619 47.741 263.942 43.235C265.802 39.6309 264.213 33.3552 260.241 31.667C265.04 33.7088 267.108 38.89 264.861 43.2456C262.056 48.6883 254.919 51.0349 248.92 48.4861C241.422 45.3033 238.19 37.2049 241.7 30.3978C246.083 21.893 257.238 18.2244 266.609 22.2063C278.324 27.1833 283.374 39.8373 277.891 50.4718C271.04 63.762 253.613 69.4905 238.969 63.2709Z" fill="url(#paint14_radial_14_1884)"/>
<path d="M301.917 77.5856C305.998 75.8518 312.047 78.6186 313.957 82.318C315.486 85.2806 314.077 88.8065 310.811 90.1963C308.201 91.3034 305.092 90.283 303.872 87.9131C302.895 86.0174 303.795 83.7597 305.883 82.8727C307.555 82.1614 309.543 82.8144 310.327 84.3323C310.951 85.5485 310.418 87.6591 309.08 88.2254C310.7 87.5416 311.394 85.7951 310.638 84.3291C309.69 82.4958 307.289 81.7051 305.27 82.5625C302.743 83.6358 301.659 86.3646 302.839 88.6562C304.315 91.514 308.069 92.7545 311.225 91.4135C315.166 89.7368 316.869 85.4765 315.023 81.8957C312.715 77.4215 306.847 75.4909 301.917 77.5856Z" fill="url(#paint15_radial_14_1884)"/>
<path d="M177.249 77.755C186.242 70.7172 211.433 73.2798 219.187 81.4428C208.192 69.8631 190.004 67.7704 177.249 77.755Z" fill="url(#paint16_radial_14_1884)"/>
<path d="M196.043 81.8353C201.425 77.6279 216.499 79.1595 221.139 84.0433C214.559 77.1156 203.677 75.8634 196.043 81.8353Z" fill="url(#paint17_radial_14_1884)"/>
<path d="M351.339 35.5461C307.064 30.5289 316.119 54.732 316.119 54.732C326.438 45.3677 338.764 42.3998 338.764 42.3998C324.673 48.7993 312.821 59.7947 312.821 59.7947L311.059 65.6269L319.143 57.4766C333.728 75.2854 351.339 35.5461 351.339 35.5461Z" fill="#94C63D"/>
<path d="M348.417 38.6011C348.782 37.8867 349.121 37.1965 349.417 36.5805C334.511 35.1145 324.167 37.0113 319.538 42.1418C317.272 44.6567 316.683 47.576 316.683 49.9279C316.683 50.2836 316.715 50.5958 316.736 50.9165C316.908 48.7985 317.617 46.3788 319.538 44.2481C324.062 39.231 334.055 37.3204 348.417 38.6011Z" fill="url(#paint18_linear_14_1884)"/>
<path d="M351.339 35.5461C307.064 30.5289 316.119 54.732 316.119 54.732C326.438 45.3677 338.764 42.3998 338.764 42.3998C324.673 48.7993 312.821 59.7947 312.821 59.7947L311.059 65.6269L319.143 57.4766C333.728 75.2854 351.339 35.5461 351.339 35.5461Z" fill="#94C63D"/>
<path d="M348.417 38.6011C348.782 37.8867 349.121 37.1965 349.417 36.5805C334.511 35.1145 324.167 37.0113 319.538 42.1418C317.272 44.6567 316.683 47.576 316.683 49.9279C316.683 50.2836 316.715 50.5958 316.736 50.9165C316.908 48.7985 317.617 46.3788 319.538 44.2481C324.062 39.231 334.055 37.3204 348.417 38.6011Z" fill="url(#paint19_linear_14_1884)"/>
<path d="M231.572 49.7255C231.572 49.7255 232.849 48.1791 236.489 48.3241C236.489 48.3241 235.101 47.1513 236.428 46.4517C236.428 46.4517 227.835 49.9319 223.538 54.0853C223.538 54.0853 227.523 49.5794 230.672 47.9314C230.672 47.9314 218.885 41.4419 215.624 62.1837C215.624 62.1837 236.183 56.975 231.572 49.7255Z" fill="#94C63D"/>
<path d="M223.898 50.151C224.879 49.7266 225.82 49.6049 226.67 49.6197C227.259 49.1105 227.87 48.6141 228.489 48.1685C227.307 47.8774 225.65 47.7113 223.897 48.4755C220.611 49.9002 218.267 54.2209 216.996 60.8109C217.123 60.7739 217.264 60.7273 217.399 60.6839C218.733 55.1195 220.924 51.4371 223.898 50.151Z" fill="url(#paint20_linear_14_1884)"/>
<path d="M231.572 49.7255C231.572 49.7255 232.849 48.1791 236.489 48.3241C236.489 48.3241 235.101 47.1513 236.428 46.4517C236.428 46.4517 227.835 49.9319 223.538 54.0853C223.538 54.0853 227.523 49.5794 230.672 47.9314C230.672 47.9314 218.885 41.4419 215.624 62.1837C215.624 62.1837 236.183 56.975 231.572 49.7255Z" fill="#94C63D"/>
<path d="M223.898 50.151C224.879 49.7266 225.82 49.6049 226.67 49.6197C227.259 49.1105 227.87 48.6141 228.489 48.1685C227.307 47.8774 225.65 47.7113 223.897 48.4755C220.611 49.9002 218.267 54.2209 216.996 60.8109C217.123 60.7739 217.264 60.7273 217.399 60.6839C218.733 55.1195 220.924 51.4371 223.898 50.151Z" fill="url(#paint21_linear_14_1884)"/>
<path d="M204.922 159.657C215.146 181.676 252.58 189.453 276.841 180.175C296.248 172.75 305.349 152.451 297.172 134.836C290.626 120.745 272.738 114.134 257.213 120.075C244.792 124.824 238.968 137.817 244.2 149.093C237.298 134.227 244.98 117.103 261.352 110.84C281.822 103.009 305.402 111.722 314.028 130.299C324.811 153.523 312.812 180.283 287.228 190.066C255.249 202.301 218.4 188.683 204.922 159.657Z" fill="url(#paint22_radial_14_1884)"/>
<path d="M233.542 182.828C248.903 191.395 268.446 193.357 286.291 186.53C297.579 182.215 306.335 174.168 310.952 163.87C315.568 153.571 315.494 142.265 310.736 132.021C302.963 115.279 281.635 107.399 263.19 114.454C260.01 115.671 257.174 117.382 254.735 119.465C252.481 120.601 250.484 122.017 248.733 123.621C252.001 118.677 256.868 114.79 262.831 112.507C282.251 105.078 304.708 113.376 312.893 131.005C317.901 141.789 317.98 153.696 313.121 164.538C308.26 175.377 299.039 183.851 287.154 188.398C264.915 196.904 240.175 192.453 223.19 178.837C226.444 180.443 229.926 181.77 233.542 182.828Z" fill="url(#paint23_radial_14_1884)"/>
<path d="M298.367 189.82C301.767 182.505 314.205 179.921 322.267 183.005C328.716 185.471 331.74 192.217 329.022 198.07C326.851 202.752 320.903 204.949 315.743 202.975C311.616 201.4 309.681 197.082 311.421 193.333C309.126 198.273 311.679 203.964 317.121 206.045C323.919 208.646 331.76 205.751 334.625 199.58C338.207 191.863 334.22 182.972 325.718 179.72C315.09 175.651 302.846 180.174 298.367 189.82Z" fill="url(#paint24_radial_14_1884)"/>
<path d="M250.63 171.235C262.749 176.385 280.718 168.183 286.39 157.182C290.928 148.379 286.746 137.906 277.052 133.787C269.295 130.494 260.066 133.528 256.433 140.568C253.529 146.198 256.205 152.905 262.409 155.541C267.374 157.648 273.281 155.705 275.603 151.199C277.463 147.595 275.874 141.32 271.902 139.631C276.701 141.673 278.769 146.854 276.522 151.21C273.717 156.653 266.58 158.999 260.582 156.45C253.083 153.268 249.851 145.169 253.361 138.362C257.744 129.857 268.899 126.189 278.27 130.171C289.985 135.148 295.035 147.802 289.552 158.436C282.702 171.726 265.274 177.455 250.63 171.235Z" fill="url(#paint25_radial_14_1884)"/>
<path d="M313.578 185.55C317.659 183.816 323.708 186.583 325.618 190.282C327.147 193.245 325.738 196.771 322.472 198.16C319.862 199.268 316.753 198.247 315.533 195.877C314.556 193.982 315.456 191.724 317.544 190.837C319.216 190.126 321.204 190.779 321.988 192.296C322.612 193.513 322.079 195.623 320.741 196.19C322.361 195.506 323.055 193.759 322.299 192.293C321.351 190.46 318.95 189.669 316.932 190.527C314.405 191.6 313.32 194.329 314.5 196.62C315.977 199.478 319.73 200.719 322.886 199.378C326.827 197.701 328.53 193.441 326.684 189.86C324.376 185.386 318.508 183.455 313.578 185.55Z" fill="url(#paint26_radial_14_1884)"/>
<path d="M188.91 185.719C197.903 178.682 223.095 181.244 230.848 189.407C219.853 177.827 201.665 175.735 188.91 185.719Z" fill="url(#paint27_radial_14_1884)"/>
<path d="M207.704 189.8C213.086 185.592 228.16 187.124 232.8 192.008C226.22 185.08 215.338 183.828 207.704 189.8Z" fill="url(#paint28_radial_14_1884)"/>
<path d="M363 143.511C318.725 138.493 327.78 162.697 327.78 162.697C338.099 153.332 350.425 150.364 350.425 150.364C336.335 156.764 324.482 167.759 324.482 167.759L322.72 173.591L330.804 165.441C345.389 183.25 363 143.511 363 143.511Z" fill="#94C63D"/>
<path d="M360.078 146.565C360.443 145.851 360.782 145.161 361.078 144.545C346.172 143.079 335.828 144.976 331.199 150.106C328.933 152.621 328.344 155.54 328.344 157.892C328.344 158.248 328.376 158.56 328.397 158.881C328.569 156.763 329.278 154.343 331.199 152.212C335.723 147.195 345.716 145.285 360.078 146.565Z" fill="url(#paint29_linear_14_1884)"/>
<path d="M363 143.511C318.725 138.493 327.78 162.697 327.78 162.697C338.099 153.332 350.425 150.364 350.425 150.364C336.335 156.764 324.482 167.759 324.482 167.759L322.72 173.591L330.804 165.441C345.389 183.25 363 143.511 363 143.511Z" fill="#94C63D"/>
<path d="M360.078 146.565C360.443 145.851 360.782 145.161 361.078 144.545C346.172 143.079 335.828 144.976 331.199 150.106C328.933 152.621 328.344 155.54 328.344 157.892C328.344 158.248 328.376 158.56 328.397 158.881C328.569 156.763 329.278 154.343 331.199 152.212C335.723 147.195 345.716 145.285 360.078 146.565Z" fill="url(#paint30_linear_14_1884)"/>
<path d="M243.233 157.69C243.233 157.69 244.51 156.143 248.15 156.288C248.15 156.288 246.762 155.116 248.089 154.416C248.089 154.416 239.496 157.896 235.199 162.05C235.199 162.05 239.185 157.544 242.333 155.896C242.333 155.896 230.546 149.406 227.286 170.148C227.286 170.148 247.844 164.939 243.233 157.69Z" fill="#94C63D"/>
<path d="M235.559 158.115C236.54 157.691 237.481 157.569 238.331 157.584C238.92 157.075 239.531 156.578 240.15 156.133C238.968 155.842 237.311 155.675 235.558 156.44C232.272 157.864 229.928 162.185 228.657 168.775C228.784 168.738 228.925 168.692 229.06 168.648C230.394 163.084 232.586 159.401 235.559 158.115Z" fill="url(#paint31_linear_14_1884)"/>
<path d="M243.233 157.69C243.233 157.69 244.51 156.143 248.15 156.288C248.15 156.288 246.762 155.116 248.089 154.416C248.089 154.416 239.496 157.896 235.199 162.05C235.199 162.05 239.185 157.544 242.333 155.896C242.333 155.896 230.546 149.406 227.286 170.148C227.286 170.148 247.844 164.939 243.233 157.69Z" fill="#94C63D"/>
<path d="M235.559 158.115C236.54 157.691 237.481 157.569 238.331 157.584C238.92 157.075 239.531 156.578 240.15 156.133C238.968 155.842 237.311 155.675 235.558 156.44C232.272 157.864 229.928 162.185 228.657 168.775C228.784 168.738 228.925 168.692 229.06 168.648C230.394 163.084 232.586 159.401 235.559 158.115Z" fill="url(#paint32_linear_14_1884)"/>
<defs>
<radialGradient id="paint0_radial_14_1884" cx="0" cy="0" r="1" gradientUnits="userSpaceOnUse" gradientTransform="translate(73.0281 124.315) rotate(180) scale(52.2981 47.4708)">
<stop offset="0.0056" stop-color="#A9D1EF"/>
<stop offset="0.5393" stop-color="#1998D5"/>
<stop offset="1" stop-color="#0073BB"/>
</radialGradient>
<radialGradient id="paint1_radial_14_1884" cx="0" cy="0" r="1" gradientUnits="userSpaceOnUse" gradientTransform="translate(130.56 119.415) rotate(180) scale(93.1292 84.5329)">
<stop offset="0.0056" stop-color="#A9D1EF"/>
<stop offset="0.5393" stop-color="#1998D5"/>
<stop offset="1" stop-color="#0073BB"/>
</radialGradient>
<radialGradient id="paint2_radial_14_1884" cx="0" cy="0" r="1" gradientUnits="userSpaceOnUse" gradientTransform="translate(127.875 165.782) rotate(180) scale(17.3845 15.7798)">
<stop offset="0.0056" stop-color="#A9D1EF"/>
<stop offset="0.5393" stop-color="#1998D5"/>
<stop offset="1" stop-color="#0073BB"/>
</radialGradient>
<radialGradient id="paint3_radial_14_1884" cx="0" cy="0" r="1" gradientUnits="userSpaceOnUse" gradientTransform="translate(82.8101 124.171) rotate(180) scale(22.8166 20.7105)">
<stop offset="0.0056" stop-color="#A9D1EF"/>
<stop offset="0.5393" stop-color="#1998D5"/>
<stop offset="1" stop-color="#0073BB"/>
</radialGradient>
<radialGradient id="paint4_radial_14_1884" cx="0" cy="0" r="1" gradientUnits="userSpaceOnUse" gradientTransform="translate(131.335 165.603) rotate(180) scale(7.68313 6.97392)">
<stop offset="0.0056" stop-color="#A9D1EF"/>
<stop offset="0.5393" stop-color="#1998D5"/>
<stop offset="1" stop-color="#0073BB"/>
</radialGradient>
<radialGradient id="paint5_radial_14_1884" cx="0" cy="0" r="1" gradientUnits="userSpaceOnUse" gradientTransform="translate(33.8334 172.693) rotate(180) scale(18.2885 16.6004)">
<stop offset="0.0056" stop-color="#A9D1EF"/>
<stop offset="0.5393" stop-color="#1998D5"/>
<stop offset="1" stop-color="#0073BB"/>
</radialGradient>
<radialGradient id="paint6_radial_14_1884" cx="0" cy="0" r="1" gradientUnits="userSpaceOnUse" gradientTransform="translate(33.8333 172.69) rotate(180) scale(18.2885 16.6004)">
<stop offset="0.0056" stop-color="#A9D1EF"/>
<stop offset="0.5393" stop-color="#1998D5"/>
<stop offset="1" stop-color="#0073BB"/>
</radialGradient>
<linearGradient id="paint7_linear_14_1884" x1="139.242" y1="125.011" x2="171.977" y2="125.011" gradientUnits="userSpaceOnUse">
<stop stop-color="#B7D333"/>
<stop offset="0.228" stop-color="#C5DB54"/>
<stop offset="0.7268" stop-color="#EAEFA7"/>
<stop offset="1" stop-color="#FFFBD7"/>
</linearGradient>
<linearGradient id="paint8_linear_14_1884" x1="139.242" y1="125.011" x2="171.977" y2="125.011" gradientUnits="userSpaceOnUse">
<stop stop-color="#B7D333"/>
<stop offset="0.3431" stop-color="#BDD754"/>
<stop offset="1" stop-color="#CBE19C"/>
</linearGradient>
<linearGradient id="paint9_linear_14_1884" x1="39.2556" y1="135.87" x2="50.7481" y2="135.87" gradientUnits="userSpaceOnUse">
<stop stop-color="#B7D333"/>
<stop offset="0.228" stop-color="#C5DB54"/>
<stop offset="0.7268" stop-color="#EAEFA7"/>
<stop offset="1" stop-color="#FFFBD7"/>
</linearGradient>
<linearGradient id="paint10_linear_14_1884" x1="39.2556" y1="135.87" x2="50.7481" y2="135.87" gradientUnits="userSpaceOnUse">
<stop stop-color="#B7D333"/>
<stop offset="0.3431" stop-color="#BDD754"/>
<stop offset="1" stop-color="#CBE19C"/>
</linearGradient>
<radialGradient id="paint11_radial_14_1884" cx="0" cy="0" r="1" gradientUnits="userSpaceOnUse" gradientTransform="translate(250.277 42.8126) rotate(180) scale(52.2981 47.4708)">
<stop offset="0.0056" stop-color="#A9D1EF"/>
<stop offset="0.5393" stop-color="#1998D5"/>
<stop offset="1" stop-color="#0073BB"/>
</radialGradient>
<radialGradient id="paint12_radial_14_1884" cx="0" cy="0" r="1" gradientUnits="userSpaceOnUse" gradientTransform="translate(307.809 37.9126) rotate(180) scale(93.1292 84.5329)">
<stop offset="0.0056" stop-color="#A9D1EF"/>
<stop offset="0.5393" stop-color="#1998D5"/>
<stop offset="1" stop-color="#0073BB"/>
</radialGradient>
<radialGradient id="paint13_radial_14_1884" cx="0" cy="0" r="1" gradientUnits="userSpaceOnUse" gradientTransform="translate(305.124 84.2797) rotate(180) scale(17.3845 15.7798)">
<stop offset="0.0056" stop-color="#A9D1EF"/>
<stop offset="0.5393" stop-color="#1998D5"/>
<stop offset="1" stop-color="#0073BB"/>
</radialGradient>
<radialGradient id="paint14_radial_14_1884" cx="0" cy="0" r="1" gradientUnits="userSpaceOnUse" gradientTransform="translate(260.059 42.6686) rotate(180) scale(22.8166 20.7105)">
<stop offset="0.0056" stop-color="#A9D1EF"/>
<stop offset="0.5393" stop-color="#1998D5"/>
<stop offset="1" stop-color="#0073BB"/>
</radialGradient>
<radialGradient id="paint15_radial_14_1884" cx="0" cy="0" r="1" gradientUnits="userSpaceOnUse" gradientTransform="translate(308.584 84.1) rotate(180) scale(7.68313 6.97392)">
<stop offset="0.0056" stop-color="#A9D1EF"/>
<stop offset="0.5393" stop-color="#1998D5"/>
<stop offset="1" stop-color="#0073BB"/>
</radialGradient>
<radialGradient id="paint16_radial_14_1884" cx="0" cy="0" r="1" gradientUnits="userSpaceOnUse" gradientTransform="translate(211.082 91.1903) rotate(180) scale(18.2885 16.6004)">
<stop offset="0.0056" stop-color="#A9D1EF"/>
<stop offset="0.5393" stop-color="#1998D5"/>
<stop offset="1" stop-color="#0073BB"/>
</radialGradient>
<radialGradient id="paint17_radial_14_1884" cx="0" cy="0" r="1" gradientUnits="userSpaceOnUse" gradientTransform="translate(211.082 91.1871) rotate(180) scale(18.2885 16.6004)">
<stop offset="0.0056" stop-color="#A9D1EF"/>
<stop offset="0.5393" stop-color="#1998D5"/>
<stop offset="1" stop-color="#0073BB"/>
</radialGradient>
<linearGradient id="paint18_linear_14_1884" x1="316.491" y1="43.5084" x2="349.226" y2="43.5084" gradientUnits="userSpaceOnUse">
<stop stop-color="#B7D333"/>
<stop offset="0.228" stop-color="#C5DB54"/>
<stop offset="0.7268" stop-color="#EAEFA7"/>
<stop offset="1" stop-color="#FFFBD7"/>
</linearGradient>
<linearGradient id="paint19_linear_14_1884" x1="316.491" y1="43.5084" x2="349.226" y2="43.5084" gradientUnits="userSpaceOnUse">
<stop stop-color="#B7D333"/>
<stop offset="0.3431" stop-color="#BDD754"/>
<stop offset="1" stop-color="#CBE19C"/>
</linearGradient>
<linearGradient id="paint20_linear_14_1884" x1="216.505" y1="54.3673" x2="227.997" y2="54.3673" gradientUnits="userSpaceOnUse">
<stop stop-color="#B7D333"/>
<stop offset="0.228" stop-color="#C5DB54"/>
<stop offset="0.7268" stop-color="#EAEFA7"/>
<stop offset="1" stop-color="#FFFBD7"/>
</linearGradient>
<linearGradient id="paint21_linear_14_1884" x1="216.505" y1="54.3673" x2="227.997" y2="54.3673" gradientUnits="userSpaceOnUse">
<stop stop-color="#B7D333"/>
<stop offset="0.3431" stop-color="#BDD754"/>
<stop offset="1" stop-color="#CBE19C"/>
</linearGradient>
<radialGradient id="paint22_radial_14_1884" cx="0" cy="0" r="1" gradientUnits="userSpaceOnUse" gradientTransform="translate(261.938 150.777) rotate(180) scale(52.2981 47.4708)">
<stop offset="0.0056" stop-color="#A9D1EF"/>
<stop offset="0.5393" stop-color="#1998D5"/>
<stop offset="1" stop-color="#0073BB"/>
</radialGradient>
<radialGradient id="paint23_radial_14_1884" cx="0" cy="0" r="1" gradientUnits="userSpaceOnUse" gradientTransform="translate(319.47 145.877) rotate(180) scale(93.1292 84.5329)">
<stop offset="0.0056" stop-color="#A9D1EF"/>
<stop offset="0.5393" stop-color="#1998D5"/>
<stop offset="1" stop-color="#0073BB"/>
</radialGradient>
<radialGradient id="paint24_radial_14_1884" cx="0" cy="0" r="1" gradientUnits="userSpaceOnUse" gradientTransform="translate(316.785 192.244) rotate(180) scale(17.3845 15.7798)">
<stop offset="0.0056" stop-color="#A9D1EF"/>
<stop offset="0.5393" stop-color="#1998D5"/>
<stop offset="1" stop-color="#0073BB"/>
</radialGradient>
<radialGradient id="paint25_radial_14_1884" cx="0" cy="0" r="1" gradientUnits="userSpaceOnUse" gradientTransform="translate(271.72 150.633) rotate(180) scale(22.8166 20.7105)">
<stop offset="0.0056" stop-color="#A9D1EF"/>
<stop offset="0.5393" stop-color="#1998D5"/>
<stop offset="1" stop-color="#0073BB"/>
</radialGradient>
<radialGradient id="paint26_radial_14_1884" cx="0" cy="0" r="1" gradientUnits="userSpaceOnUse" gradientTransform="translate(320.245 192.064) rotate(180) scale(7.68313 6.97392)">
<stop offset="0.0056" stop-color="#A9D1EF"/>
<stop offset="0.5393" stop-color="#1998D5"/>
<stop offset="1" stop-color="#0073BB"/>
</radialGradient>
<radialGradient id="paint27_radial_14_1884" cx="0" cy="0" r="1" gradientUnits="userSpaceOnUse" gradientTransform="translate(222.743 199.155) rotate(180) scale(18.2885 16.6004)">
<stop offset="0.0056" stop-color="#A9D1EF"/>
<stop offset="0.5393" stop-color="#1998D5"/>
<stop offset="1" stop-color="#0073BB"/>
</radialGradient>
<radialGradient id="paint28_radial_14_1884" cx="0" cy="0" r="1" gradientUnits="userSpaceOnUse" gradientTransform="translate(222.743 199.151) rotate(180) scale(18.2885 16.6004)">
<stop offset="0.0056" stop-color="#A9D1EF"/>
<stop offset="0.5393" stop-color="#1998D5"/>
<stop offset="1" stop-color="#0073BB"/>
</radialGradient>
<linearGradient id="paint29_linear_14_1884" x1="328.152" y1="151.473" x2="360.887" y2="151.473" gradientUnits="userSpaceOnUse">
<stop stop-color="#B7D333"/>
<stop offset="0.228" stop-color="#C5DB54"/>
<stop offset="0.7268" stop-color="#EAEFA7"/>
<stop offset="1" stop-color="#FFFBD7"/>
</linearGradient>
<linearGradient id="paint30_linear_14_1884" x1="328.152" y1="151.473" x2="360.887" y2="151.473" gradientUnits="userSpaceOnUse">
<stop stop-color="#B7D333"/>
<stop offset="0.3431" stop-color="#BDD754"/>
<stop offset="1" stop-color="#CBE19C"/>
</linearGradient>
<linearGradient id="paint31_linear_14_1884" x1="228.166" y1="162.331" x2="239.658" y2="162.331" gradientUnits="userSpaceOnUse">
<stop stop-color="#B7D333"/>
<stop offset="0.228" stop-color="#C5DB54"/>
<stop offset="0.7268" stop-color="#EAEFA7"/>
<stop offset="1" stop-color="#FFFBD7"/>
</linearGradient>
<linearGradient id="paint32_linear_14_1884" x1="228.166" y1="162.331" x2="239.658" y2="162.331" gradientUnits="userSpaceOnUse">
<stop stop-color="#B7D333"/>
<stop offset="0.3431" stop-color="#BDD754"/>
<stop offset="1" stop-color="#CBE19C"/>
</linearGradient>
</defs>
</svg>
