<svg width="99" height="104" viewBox="0 0 99 104" fill="none" xmlns="http://www.w3.org/2000/svg">
<path d="M80.602 19.702C80.641 19.229 80.664 18.757 80.664 18.279C80.664 8.18199 72.181 0 61.715 0C53.182 0 45.967 5.43997 43.593 12.923C40.864 10.927 37.363 9.72601 33.54 9.72601C24.834 9.72601 17.777 15.958 17.777 23.647C17.777 24.323 17.835 24.991 17.938 25.643C7.61099 27.298 0 32.983 0 39.745C0 47.803 10.811 54.336 24.15 54.336C28.839 54.336 33.214 53.524 36.92 52.125C40.9 53.935 45.821 55.005 51.148 55.005C56.244 55.005 60.963 54.024 64.848 52.359C68.325 54.241 72.492 55.342 76.975 55.342C89.108 55.342 98.944 47.309 98.944 37.398C98.945 28.496 91.009 21.112 80.602 19.702Z" fill="url(#paint0_radial_14_1564)"/>
<path d="M45.205 14.153L44.637 15.94L43.125 14.832C40.693 13.054 37.608 12.074 34.433 12.074C26.967 12.074 20.894 17.364 20.894 23.868C20.894 24.418 20.94 24.98 21.032 25.542L21.249 26.873L19.915 27.087C10.61 28.578 4.11099 33.505 4.11099 39.07C4.11099 45.924 13.734 51.501 25.563 51.501C29.677 51.501 33.682 50.808 37.147 49.502L37.669 49.304L38.179 49.533C41.92 51.234 46.372 52.135 51.056 52.135C55.528 52.135 59.815 51.307 63.458 49.743L64.059 49.485L64.633 49.796C67.834 51.532 71.573 52.449 75.443 52.449C86.134 52.449 94.836 45.453 94.836 36.853C94.836 29.215 88.043 22.749 78.684 21.48L77.466 21.316L77.577 18.804C77.577 10.029 70.154 2.89197 61.032 2.89197C53.703 2.89097 47.342 7.41802 45.205 14.153Z" fill="url(#paint1_radial_14_1564)"/>
<path d="M92.308 36.3051C92.308 30.1111 86.553 24.835 78.622 23.756L74.822 23.241C74.822 23.241 75.038 18.4051 75.045 18.2261C75.028 11.0371 68.896 5.19507 61.356 5.19507C57.445 5.19507 53.883 6.74002 51.361 9.30902C53.524 7.96802 56.096 7.20605 58.839 7.20605C66.38 7.20605 72.513 13.0501 72.53 20.2391C72.521 20.4171 72.306 25.2531 72.306 25.2531L76.107 25.7681C84.036 26.8471 89.791 32.1211 89.791 38.3171C89.791 41.2461 88.501 43.943 86.337 46.095C89.983 43.758 92.308 40.2371 92.308 36.3051Z" fill="url(#paint2_radial_14_1564)"/>
<path d="M52.233 17.562C52.257 17.257 52.274 16.9519 52.274 16.6419C52.274 10.0989 46.775 4.7959 39.992 4.7959C34.465 4.7959 29.788 8.3219 28.25 13.1709C26.481 11.8759 24.213 11.0979 21.735 11.0979C16.095 11.0979 11.521 15.137 11.521 20.119C11.521 20.559 11.559 20.9899 11.625 21.4129C4.933 22.4849 0.000976562 26.1699 0.000976562 30.5499C0.000976562 35.7749 7.00799 40.007 15.65 40.007C18.689 40.007 21.525 39.4809 23.925 38.5759C26.505 39.7469 29.694 40.4399 33.147 40.4399C36.447 40.4399 39.506 39.8039 42.024 38.7269C44.276 39.9449 46.978 40.6579 49.882 40.6579C57.744 40.6579 64.118 35.4519 64.118 29.0289C64.119 23.2639 58.977 18.478 52.233 17.562Z" fill="url(#paint3_radial_14_1564)"/>
<path d="M29.296 13.9679L28.927 15.1249L27.947 14.4078C26.372 13.2548 24.372 12.6199 22.314 12.6199C17.475 12.6199 13.543 16.0499 13.543 20.2659C13.543 20.6179 13.57 20.9848 13.631 21.3478L13.772 22.2119L12.908 22.3499C6.87699 23.3149 2.66599 26.5088 2.66599 30.1158C2.66599 34.5548 8.90199 38.1708 16.567 38.1708C19.233 38.1708 21.829 37.7229 24.074 36.8769L24.412 36.7479L24.743 36.8959C27.168 37.9989 30.053 38.5819 33.089 38.5819C35.986 38.5819 38.765 38.0449 41.127 37.0319L41.515 36.8669L41.886 37.0669C43.96 38.1909 46.384 38.7849 48.891 38.7849C55.822 38.7849 61.457 34.2519 61.457 28.6789C61.457 23.7309 57.058 19.5389 50.99 18.7169L50.202 18.6108L50.275 16.9849C50.275 11.2969 45.466 6.67188 39.553 6.67188C34.8 6.66988 30.678 9.6029 29.296 13.9679Z" fill="url(#paint4_radial_14_1564)"/>
<path d="M59.819 28.3239C59.819 24.3099 56.089 20.8889 50.951 20.1919L48.488 19.8569C48.488 19.8569 48.626 16.7238 48.634 16.6078C48.623 11.9508 44.647 8.16284 39.76 8.16284C37.228 8.16284 34.917 9.16589 33.285 10.8299C34.687 9.9629 36.354 9.46887 38.13 9.46887C43.018 9.46887 46.992 13.2548 47.003 17.9128C46.997 18.0288 46.859 21.1628 46.859 21.1628L49.322 21.4958C54.459 22.1948 58.188 25.6139 58.188 29.6299C58.188 31.5259 57.352 33.2738 55.95 34.6708C58.312 33.1528 59.819 30.8719 59.819 28.3239Z" fill="url(#paint5_radial_14_1564)"/>
<path d="M46.999 67.911C46.941 67.691 46.104 67.725 45.128 67.983C44.874 68.054 44.636 68.13 44.424 68.212C44.284 68.121 44.143 68.029 43.995 67.938C44.581 67.743 44.986 67.503 44.948 67.359C44.899 67.187 44.241 67.213 43.474 67.419C43.387 67.443 43.306 67.465 43.227 67.491C42.602 67.148 42.004 66.872 41.485 66.677L42.102 65.607L41.553 64.654C41.964 64.485 42.413 64.268 42.883 64.015C43.034 64.07 43.199 64.124 43.38 64.172C44.145 64.375 44.804 64.402 44.849 64.228C44.894 64.064 44.366 63.779 43.651 63.576C43.835 63.464 44.009 63.351 44.179 63.238C44.443 63.351 44.759 63.461 45.109 63.556C46.084 63.817 46.924 63.85 46.982 63.63C47.043 63.41 46.299 63.018 45.325 62.757C45.205 62.726 45.085 62.697 44.973 62.673C45.876 61.975 46.389 61.354 46.23 61.075C46.07 60.801 45.281 60.934 44.224 61.367C44.262 61.251 44.297 61.131 44.331 61.006C44.592 60.03 44.628 59.193 44.403 59.132C44.185 59.072 43.795 59.817 43.532 60.792C43.439 61.146 43.371 61.48 43.342 61.768C43.161 61.859 42.979 61.954 42.795 62.053C42.973 61.336 42.986 60.737 42.822 60.695C42.65 60.647 42.342 61.23 42.137 61.998C42.091 62.173 42.053 62.342 42.027 62.5C41.567 62.78 41.152 63.066 40.795 63.34L40.23 62.363H39.044C39.116 61.941 39.167 61.45 39.194 60.916C39.324 60.812 39.459 60.688 39.595 60.552C40.155 59.989 40.51 59.434 40.379 59.307C40.26 59.185 39.748 59.498 39.217 60.013C39.217 59.86 39.214 59.705 39.21 59.557C39.447 59.379 39.718 59.149 39.986 58.881C40.699 58.162 41.148 57.456 40.987 57.297C40.826 57.134 40.116 57.581 39.404 58.296C39.315 58.385 39.231 58.475 39.151 58.56C39.018 57.153 38.705 56.163 38.338 56.163C37.981 56.163 37.673 57.108 37.538 58.464C37.488 58.412 37.439 58.363 37.388 58.31C36.675 57.599 35.965 57.151 35.804 57.311C35.643 57.473 36.091 58.182 36.803 58.895C37.032 59.126 37.259 59.325 37.47 59.487C37.466 59.661 37.46 59.84 37.46 60.02C36.932 59.51 36.424 59.201 36.304 59.319C36.178 59.448 36.529 60.005 37.091 60.566C37.224 60.699 37.358 60.82 37.484 60.926C37.512 61.454 37.563 61.942 37.634 62.364H36.482L35.946 63.294C35.452 62.878 34.797 62.422 34.051 61.983C34.024 61.835 33.988 61.674 33.943 61.509C33.739 60.743 33.431 60.16 33.259 60.205C33.094 60.25 33.109 60.846 33.284 61.562C33.102 61.466 32.919 61.377 32.741 61.295C32.71 61.004 32.642 60.664 32.546 60.302C32.286 59.329 31.896 58.585 31.675 58.645C31.456 58.703 31.489 59.541 31.749 60.517C31.79 60.658 31.828 60.795 31.873 60.928C30.973 60.591 30.315 60.506 30.172 60.754C30.025 61.01 30.441 61.545 31.194 62.166C31.052 62.196 30.907 62.229 30.755 62.27C29.781 62.531 29.039 62.921 29.098 63.138C29.157 63.361 29.995 63.326 30.97 63.066C31.338 62.968 31.674 62.849 31.945 62.73C32.109 62.843 32.284 62.962 32.466 63.076C31.733 63.279 31.186 63.572 31.231 63.74C31.276 63.916 31.936 63.889 32.704 63.683C32.883 63.634 33.054 63.58 33.21 63.524C33.947 63.94 34.655 64.272 35.252 64.493L34.61 65.607L35.201 66.635C34.765 66.8 34.277 67.023 33.763 67.292C33.642 67.251 33.515 67.212 33.378 67.174C32.613 66.97 31.952 66.942 31.904 67.118C31.865 67.269 32.326 67.532 32.973 67.732C32.859 67.801 32.746 67.866 32.637 67.937C32.407 67.847 32.142 67.759 31.855 67.683C30.881 67.419 30.041 67.385 29.986 67.606C29.925 67.827 30.669 68.216 31.642 68.476C31.693 68.491 31.734 68.502 31.78 68.513C30.702 69.298 30.054 70.022 30.233 70.328C30.419 70.649 31.47 70.41 32.792 69.794C32.747 69.93 32.705 70.068 32.664 70.216C32.404 71.192 32.37 72.029 32.59 72.088C32.81 72.146 33.2 71.405 33.464 70.428C33.567 70.033 33.638 69.66 33.663 69.352C33.782 69.289 33.896 69.224 34.016 69.155C34.016 69.16 34.014 69.164 34.013 69.167C33.807 69.935 33.783 70.594 33.954 70.641C34.126 70.689 34.433 70.103 34.64 69.338C34.703 69.106 34.747 68.89 34.777 68.694C35.206 68.416 35.59 68.135 35.914 67.872L36.481 68.855H37.68C37.603 69.359 37.549 69.95 37.534 70.584C37.391 70.7 37.239 70.835 37.09 70.984C36.528 71.547 36.177 72.103 36.303 72.231C36.428 72.357 36.976 72.011 37.531 71.461C37.537 71.646 37.545 71.824 37.553 72.003C37.321 72.177 37.063 72.396 36.802 72.658C36.09 73.371 35.642 74.084 35.803 74.242C35.964 74.403 36.674 73.957 37.387 73.24C37.476 73.152 37.562 73.063 37.644 72.976C37.792 74.143 38.078 74.932 38.404 74.932C38.731 74.932 39.013 74.146 39.165 72.98C39.241 73.059 39.319 73.142 39.403 73.226C40.115 73.939 40.825 74.385 40.986 74.225C41.147 74.066 40.698 73.357 39.985 72.641C39.734 72.389 39.483 72.17 39.254 72.001C39.263 71.858 39.268 71.714 39.274 71.566C39.785 72.047 40.264 72.334 40.377 72.217C40.508 72.09 40.152 71.532 39.593 70.97C39.487 70.864 39.38 70.766 39.28 70.678C39.263 70.002 39.212 69.38 39.128 68.852H40.228L40.777 67.903C41.136 68.199 41.57 68.51 42.062 68.823C42.087 69.043 42.136 69.305 42.21 69.578C42.415 70.345 42.724 70.93 42.896 70.884C43.068 70.839 43.041 70.177 42.837 69.412C42.824 69.36 42.81 69.312 42.797 69.265C42.969 69.363 43.139 69.456 43.311 69.543C43.33 69.872 43.401 70.287 43.524 70.735C43.784 71.707 44.172 72.452 44.392 72.389C44.614 72.333 44.58 71.494 44.319 70.52C44.267 70.315 44.204 70.125 44.141 69.947C45.358 70.487 46.304 70.68 46.481 70.377C46.64 70.106 46.137 69.497 45.252 68.807C45.283 68.798 45.311 68.792 45.343 68.785C46.317 68.524 47.061 68.133 46.999 67.911ZM39.754 68.03H36.958L35.563 65.606L36.958 63.185H39.754L41.155 65.606L39.754 68.03Z" fill="url(#paint6_radial_14_1564)"/>
<path d="M37.835 58.4921L37.769 59.1271L37.182 58.52C36.791 58.132 36.457 57.8721 36.221 57.7291C36.369 57.9621 36.628 58.2971 37.016 58.6851C37.227 58.8961 37.448 59.094 37.655 59.251L37.769 59.3431L37.747 60.699L37.257 60.2321C37.136 60.1141 37.021 60.0141 36.92 59.9301C37.023 60.0591 37.148 60.201 37.302 60.355C37.425 60.479 37.548 60.5911 37.675 60.6951L37.774 60.7811L37.783 60.908C37.808 61.422 37.857 61.894 37.928 62.313L37.985 62.6591C37.985 62.6591 36.903 62.6591 36.656 62.6591C36.536 62.8681 36.027 63.743 36.027 63.743L35.759 63.5161C35.257 63.0941 34.613 62.6531 33.904 62.2371L33.794 62.1721L33.762 62.0361L33.66 61.5861C33.605 61.3801 33.544 61.2021 33.488 61.0521C33.507 61.1811 33.535 61.323 33.578 61.491L33.728 62.11L32.475 61.491L32.45 61.327C32.419 61.04 32.353 60.713 32.264 60.376C32.12 59.851 31.961 59.4601 31.83 59.2161C31.841 59.4921 31.894 59.906 32.037 60.441L32.325 61.402L31.771 61.204C30.965 60.905 30.579 60.889 30.448 60.918C30.491 61.049 30.71 61.385 31.385 61.938L31.846 62.316L30.836 62.5551C30.306 62.6991 29.918 62.857 29.673 62.988C29.948 62.977 30.363 62.9241 30.898 62.7841C31.241 62.6901 31.563 62.5801 31.829 62.4631L31.978 62.397L33.163 63.183L32.548 63.3621C32.364 63.4131 32.21 63.4651 32.075 63.5161C32.234 63.4921 32.421 63.453 32.631 63.399C32.796 63.355 32.956 63.302 33.109 63.248L33.241 63.2001L33.358 63.2651C34.061 63.6631 34.754 63.9921 35.358 64.2141L35.69 64.335C35.69 64.335 35.083 65.3851 34.956 65.6071C35.078 65.8241 35.636 66.7891 35.636 66.7891L35.314 66.9111C34.881 67.0781 34.394 67.295 33.906 67.556L33.799 67.611L33.308 67.462C33.099 67.407 32.914 67.3701 32.756 67.3461C32.848 67.3811 32.949 67.416 33.065 67.454L33.693 67.647L32.675 68.2651L32.534 68.2141C32.304 68.1231 32.051 68.041 31.786 67.97C31.252 67.826 30.839 67.772 30.562 67.762C30.808 67.891 31.195 68.0521 31.727 68.1931L32.468 68.384L31.96 68.754C30.948 69.486 30.57 69.9901 30.516 70.1691C30.715 70.2131 31.408 70.1161 32.67 69.5261L33.267 69.248L32.955 70.2911C32.812 70.8241 32.759 71.24 32.749 71.517C32.878 71.272 33.039 70.8841 33.181 70.3561C33.28 69.9871 33.346 69.631 33.376 69.326L33.391 69.1741L34.487 68.558L34.303 69.2451C34.247 69.4531 34.21 69.6381 34.186 69.7991C34.245 69.6471 34.303 69.47 34.358 69.262C34.415 69.052 34.46 68.8461 34.488 68.6541L34.508 68.5181L34.619 68.449C35.034 68.178 35.41 67.907 35.733 67.644L36.003 67.423C36.003 67.423 36.533 68.345 36.658 68.559C36.909 68.559 38.03 68.559 38.03 68.559L37.976 68.899C37.9 69.403 37.849 69.9891 37.834 70.5961L37.83 70.73L37.725 70.816C37.585 70.929 37.443 71.058 37.304 71.199C37.152 71.349 37.028 71.4901 36.925 71.6171C37.048 71.5181 37.182 71.3991 37.329 71.2551L37.807 70.78L37.86 72.1461L37.736 72.241C37.506 72.414 37.258 72.6301 37.018 72.8701C36.63 73.2591 36.371 73.594 36.223 73.829C36.458 73.682 36.793 73.427 37.184 73.035L37.856 72.332L37.942 72.941C38.085 74.05 38.307 74.4951 38.409 74.6151C38.513 74.4951 38.736 74.052 38.878 72.944L38.957 72.332L39.616 73.02C40.006 73.408 40.34 73.665 40.576 73.813C40.429 73.576 40.171 73.243 39.779 72.853C39.549 72.622 39.307 72.411 39.083 72.241L38.957 72.1461L39.013 70.915L39.482 71.3511C39.587 71.4541 39.682 71.5331 39.771 71.6071C39.668 71.4781 39.542 71.336 39.389 71.183L38.998 70.8181L38.987 70.689C38.974 70.046 38.924 69.427 38.841 68.899L38.789 68.559C38.789 68.559 39.817 68.559 40.062 68.559C40.184 68.345 40.7 67.457 40.7 67.457L40.968 67.678C41.323 67.969 41.757 68.28 42.224 68.576L42.344 68.652C42.344 68.652 42.344 68.672 42.347 68.686C42.384 68.706 42.948 69.0081 42.948 69.0081L43.595 69.3621L43.612 69.5261C43.631 69.8481 43.705 70.2501 43.814 70.6591C43.956 71.1891 44.117 71.5801 44.246 71.8231C44.234 71.5471 44.182 71.1331 44.038 70.6021C43.989 70.4111 43.932 70.2281 43.87 70.0471L43.64 69.402L44.268 69.6771C45.404 70.1831 46.024 70.262 46.209 70.222C46.16 70.078 45.9 69.684 45.076 69.043L44.597 68.671L45.214 68.5151L45.269 68.501C45.797 68.36 46.187 68.1971 46.432 68.0701C46.157 68.0781 45.742 68.1331 45.21 68.2731C44.973 68.3381 44.743 68.4111 44.533 68.4901L44.389 68.545L43.321 67.8591L43.909 67.662C43.979 67.639 44.046 67.612 44.111 67.59C43.95 67.615 43.761 67.653 43.556 67.707L43.202 67.8101L43.088 67.7521C42.494 67.4271 41.904 67.1511 41.386 66.9561L41.058 66.834C41.058 66.834 41.64 65.8311 41.766 65.6091C41.643 65.3991 41.132 64.5131 41.132 64.5131L41.442 64.3831C41.856 64.2111 42.295 63.9991 42.746 63.7571L42.864 63.6931L42.988 63.7391C43.135 63.7961 43.296 63.845 43.459 63.887C43.67 63.942 43.853 63.98 44.015 64.006C43.891 63.959 43.744 63.906 43.575 63.86L42.943 63.6801L44.15 62.9111L44.3 62.97C44.563 63.08 44.867 63.1841 45.19 63.2731C45.725 63.4151 46.137 63.4671 46.418 63.4791C46.171 63.3511 45.781 63.188 45.253 63.045L44.318 62.8181L44.795 62.4401C45.643 61.7871 45.909 61.3861 45.959 61.2371C45.811 61.2111 45.334 61.2361 44.343 61.6431L43.774 61.873L44.051 60.931C44.192 60.399 44.248 59.9841 44.26 59.7061C44.128 59.9521 43.969 60.34 43.825 60.871C43.736 61.197 43.675 61.5201 43.64 61.8041L43.623 61.96L42.358 62.6171L42.511 61.983C42.552 61.818 42.579 61.6721 42.601 61.5411C42.544 61.6941 42.484 61.8691 42.429 62.0751C42.384 62.2361 42.35 62.397 42.323 62.55L42.298 62.684L42.185 62.7521C41.745 63.0241 41.338 63.3 40.979 63.577L40.708 63.782C40.708 63.782 40.186 62.8741 40.063 62.6611C39.815 62.6611 38.702 62.6611 38.702 62.6611L38.76 62.3151C38.831 61.8931 38.88 61.417 38.905 60.902L38.914 60.7731L39.012 60.6921C39.138 60.5841 39.266 60.467 39.392 60.342C39.544 60.19 39.67 60.0491 39.774 59.9221C39.671 60.0061 39.556 60.1061 39.43 60.2241L38.939 60.701L38.919 59.4111L39.043 59.3181C39.276 59.1461 39.533 58.921 39.782 58.671C40.174 58.279 40.431 57.9461 40.579 57.7131C40.343 57.8601 40.009 58.1171 39.619 58.5051L38.928 59.2291L38.862 58.5891C38.74 57.2501 38.48 56.6301 38.346 56.4871C38.212 56.6251 37.962 57.2201 37.835 58.4921ZM36.703 68.178L35.217 65.6061L36.789 62.889H39.927L41.494 65.6061L39.927 68.3231H36.789L36.703 68.178ZM42.353 68.788C42.382 69.004 42.43 69.2541 42.499 69.5031C42.554 69.7101 42.613 69.8861 42.671 70.0391C42.644 69.8781 42.608 69.696 42.554 69.485C42.554 69.485 42.398 68.938 42.354 68.782V68.788H42.353Z" fill="url(#paint7_radial_14_1564)"/>
<path d="M37.385 63.923C37.307 64.053 36.487 65.476 36.411 65.607C36.486 65.74 37.307 67.161 37.385 67.293C37.533 67.293 39.18 67.293 39.327 67.293C39.404 67.161 40.225 65.74 40.3 65.607C40.226 65.476 39.405 64.053 39.327 63.923C39.18 63.923 37.534 63.923 37.385 63.923Z" fill="url(#paint8_radial_14_1564)"/>
<path d="M75.488 59.299C75.396 58.964 74.129 59.015 72.652 59.412C72.266 59.515 71.903 59.631 71.583 59.755C71.375 59.618 71.156 59.479 70.937 59.341C71.819 59.046 72.435 58.682 72.377 58.46C72.305 58.201 71.305 58.239 70.142 58.551C70.014 58.586 69.892 58.623 69.768 58.658C68.822 58.141 67.915 57.722 67.131 57.427L68.066 55.806L67.23 54.358C67.854 54.104 68.539 53.775 69.246 53.391C69.478 53.476 69.727 53.556 70 53.627C71.163 53.941 72.161 53.978 72.231 53.719C72.299 53.468 71.494 53.033 70.415 52.722C70.69 52.556 70.955 52.385 71.212 52.215C71.61 52.385 72.094 52.556 72.624 52.695C74.102 53.092 75.37 53.141 75.463 52.808C75.554 52.475 74.425 51.884 72.947 51.487C72.765 51.439 72.587 51.395 72.416 51.357C73.784 50.297 74.564 49.36 74.321 48.939C74.079 48.521 72.881 48.724 71.282 49.38C71.336 49.202 71.392 49.019 71.444 48.828C71.838 47.354 71.891 46.082 71.554 45.993C71.222 45.903 70.632 47.029 70.234 48.506C70.092 49.044 69.993 49.553 69.945 49.985C69.672 50.121 69.391 50.266 69.113 50.42C69.385 49.332 69.41 48.422 69.157 48.356C68.896 48.287 68.432 49.172 68.118 50.335C68.05 50.599 67.992 50.856 67.95 51.09C67.255 51.519 66.624 51.953 66.081 52.367L65.223 50.888H63.426C63.538 50.245 63.615 49.502 63.661 48.695C63.851 48.534 64.058 48.348 64.263 48.143C65.114 47.291 65.649 46.445 65.455 46.253C65.274 46.071 64.498 46.545 63.69 47.324C63.69 47.091 63.688 46.859 63.679 46.63C64.042 46.363 64.449 46.014 64.861 45.606C65.938 44.523 66.618 43.451 66.375 43.205C66.131 42.959 65.056 43.641 63.974 44.722C63.841 44.858 63.711 44.994 63.593 45.125C63.388 42.992 62.915 41.491 62.362 41.491C61.821 41.491 61.354 42.925 61.146 44.978C61.074 44.902 61 44.827 60.922 44.747C59.842 43.664 58.762 42.985 58.521 43.229C58.275 43.472 58.956 44.548 60.037 45.631C60.385 45.978 60.728 46.28 61.046 46.527C61.037 46.79 61.032 47.058 61.032 47.334C60.226 46.559 59.461 46.092 59.279 46.271C59.086 46.466 59.62 47.313 60.472 48.161C60.671 48.363 60.873 48.549 61.064 48.705C61.111 49.509 61.187 50.249 61.293 50.888H59.546L58.735 52.292C57.987 51.664 56.993 50.974 55.862 50.312C55.82 50.085 55.768 49.841 55.702 49.594C55.388 48.432 54.922 47.547 54.661 47.616C54.41 47.683 54.434 48.59 54.705 49.675C54.424 49.53 54.146 49.394 53.88 49.269C53.831 48.827 53.731 48.314 53.584 47.765C53.189 46.287 52.6 45.163 52.264 45.251C51.931 45.341 51.979 46.612 52.377 48.089C52.433 48.305 52.496 48.515 52.565 48.712C51.198 48.204 50.2 48.075 49.984 48.449C49.763 48.833 50.391 49.647 51.534 50.588C51.32 50.632 51.099 50.685 50.871 50.747C49.394 51.142 48.269 51.733 48.359 52.066C48.447 52.401 49.719 52.351 51.197 51.954C51.757 51.806 52.264 51.628 52.674 51.444C52.923 51.618 53.187 51.795 53.461 51.966C52.35 52.277 51.521 52.721 51.589 52.974C51.66 53.239 52.66 53.197 53.824 52.886C54.096 52.814 54.353 52.732 54.589 52.646C55.708 53.283 56.781 53.784 57.686 54.113L56.713 55.805L57.611 57.364C56.948 57.615 56.206 57.951 55.429 58.358C55.245 58.295 55.052 58.238 54.846 58.181C53.684 57.869 52.686 57.83 52.614 58.095C52.549 58.328 53.253 58.722 54.233 59.027C54.061 59.13 53.89 59.234 53.725 59.336C53.375 59.199 52.974 59.068 52.539 58.952C51.063 58.556 49.793 58.504 49.705 58.839C49.613 59.169 50.739 59.765 52.219 60.159C52.289 60.177 52.355 60.195 52.429 60.212C50.789 61.402 49.813 62.496 50.08 62.961C50.361 63.449 51.95 63.086 53.955 62.153C53.891 62.355 53.826 62.568 53.764 62.788C53.371 64.268 53.319 65.54 53.654 65.63C53.986 65.716 54.578 64.592 54.974 63.113C55.135 62.514 55.239 61.949 55.283 61.483C55.461 61.386 55.636 61.288 55.815 61.184C55.815 61.191 55.81 61.196 55.81 61.2C55.495 62.362 55.46 63.363 55.722 63.434C55.982 63.503 56.448 62.616 56.76 61.457C56.853 61.11 56.921 60.778 56.964 60.481C57.614 60.059 58.195 59.637 58.691 59.237L59.548 60.724H61.366C61.249 61.489 61.17 62.382 61.144 63.348C60.929 63.523 60.7 63.727 60.473 63.956C59.62 64.806 59.086 65.648 59.28 65.844C59.468 66.034 60.3 65.512 61.142 64.676C61.147 64.953 61.161 65.229 61.174 65.499C60.821 65.759 60.429 66.098 60.037 66.49C58.957 67.572 58.275 68.647 58.521 68.892C58.762 69.136 59.842 68.458 60.922 67.374C61.056 67.24 61.187 67.103 61.31 66.972C61.539 68.743 61.968 69.937 62.462 69.937C62.958 69.937 63.385 68.746 63.615 66.976C63.728 67.099 63.849 67.229 63.973 67.351C65.055 68.433 66.13 69.112 66.374 68.865C66.617 68.62 65.938 67.549 64.86 66.466C64.476 66.082 64.095 65.752 63.75 65.495C63.764 65.279 63.771 65.062 63.78 64.834C64.552 65.563 65.279 65.998 65.454 65.822C65.647 65.63 65.112 64.786 64.262 63.933C64.103 63.774 63.942 63.624 63.784 63.49C63.764 62.467 63.684 61.524 63.559 60.723H65.222L66.054 59.285C66.601 59.73 67.259 60.208 68.004 60.679C68.043 61.015 68.116 61.408 68.232 61.822C68.54 62.987 69.004 63.869 69.269 63.801C69.53 63.731 69.489 62.731 69.176 61.568C69.159 61.493 69.138 61.419 69.115 61.346C69.383 61.494 69.638 61.635 69.894 61.77C69.927 62.266 70.031 62.895 70.216 63.573C70.615 65.049 71.203 66.177 71.535 66.088C71.871 65.997 71.82 64.73 71.425 63.251C71.344 62.942 71.25 62.648 71.155 62.381C73.003 63.202 74.436 63.498 74.704 63.036C74.941 62.624 74.18 61.697 72.839 60.651C72.885 60.641 72.929 60.63 72.974 60.621C74.451 60.224 75.581 59.635 75.488 59.299ZM64.506 59.477H60.268L58.148 55.805L60.268 52.131H64.506L66.627 55.805L64.506 59.477Z" fill="url(#paint9_radial_14_1564)"/>
<path d="M61.594 45.024L61.495 45.982L60.606 45.06C60.015 44.474 59.505 44.085 59.149 43.86C59.373 44.215 59.762 44.724 60.352 45.314C60.673 45.632 61.006 45.931 61.323 46.174L61.495 46.311L61.463 48.366L60.719 47.656C60.537 47.478 60.363 47.329 60.209 47.202C60.366 47.396 60.553 47.612 60.787 47.845C60.973 48.032 61.161 48.204 61.353 48.362L61.503 48.488L61.514 48.684C61.549 49.46 61.628 50.179 61.735 50.814L61.823 51.338C61.823 51.338 60.181 51.338 59.807 51.338C59.625 51.651 58.857 52.982 58.857 52.982L58.447 52.638C57.688 52 56.711 51.328 55.634 50.7L55.466 50.599L55.419 50.391L55.266 49.707C55.183 49.394 55.091 49.127 55.003 48.898C55.03 49.093 55.074 49.312 55.139 49.567L55.371 50.503L53.468 49.567L53.431 49.32C53.382 48.885 53.288 48.387 53.148 47.879C52.933 47.077 52.691 46.489 52.495 46.119C52.512 46.537 52.591 47.165 52.806 47.97L53.242 49.433L52.403 49.13C51.178 48.677 50.595 48.653 50.399 48.695C50.464 48.892 50.794 49.397 51.819 50.24L52.518 50.814L50.986 51.177C50.18 51.393 49.593 51.636 49.219 51.832C49.642 51.816 50.268 51.734 51.077 51.518C51.598 51.38 52.086 51.21 52.49 51.033L52.714 50.935L54.511 52.128L53.577 52.399C53.299 52.475 53.064 52.555 52.864 52.63C53.105 52.591 53.385 52.534 53.702 52.453C53.951 52.385 54.197 52.307 54.431 52.225L54.627 52.153L54.806 52.254C55.871 52.86 56.919 53.358 57.836 53.689L58.34 53.872C58.34 53.872 57.419 55.469 57.226 55.804C57.416 56.133 58.258 57.593 58.258 57.593L57.766 57.781C57.111 58.028 56.376 58.365 55.633 58.754L55.47 58.84L54.727 58.613C54.412 58.527 54.131 58.474 53.889 58.434C54.031 58.485 54.184 58.542 54.361 58.595L55.309 58.893L53.769 59.831L53.555 59.753C53.207 59.616 52.824 59.49 52.421 59.38C51.611 59.164 50.986 59.084 50.566 59.068C50.934 59.265 51.527 59.508 52.33 59.723L53.455 60.01L52.685 60.573C51.155 61.684 50.58 62.446 50.499 62.716C50.802 62.784 51.848 62.637 53.764 61.745L54.667 61.324L54.196 62.902C53.976 63.712 53.897 64.338 53.883 64.759C54.079 64.386 54.321 63.8 54.539 62.996C54.686 62.44 54.788 61.903 54.833 61.436L54.854 61.204L56.513 60.272L56.24 61.309C56.154 61.627 56.098 61.905 56.062 62.151C56.147 61.916 56.24 61.651 56.322 61.336C56.408 61.017 56.475 60.703 56.517 60.412L56.545 60.211L56.716 60.101C57.346 59.692 57.915 59.282 58.405 58.883L58.813 58.551C58.813 58.551 59.617 59.946 59.805 60.272C60.185 60.272 61.883 60.272 61.883 60.272L61.804 60.787C61.687 61.546 61.613 62.434 61.588 63.355L61.582 63.561L61.421 63.691C61.21 63.864 60.992 64.058 60.784 64.27C60.555 64.501 60.366 64.71 60.209 64.902C60.398 64.752 60.6 64.576 60.823 64.354L61.546 63.639L61.626 65.704L61.44 65.853C61.09 66.111 60.713 66.44 60.349 66.801C59.759 67.394 59.37 67.899 59.146 68.255C59.502 68.034 60.012 67.645 60.603 67.054L61.622 65.984L61.749 66.907C61.969 68.596 62.304 69.27 62.459 69.451C62.617 69.27 62.953 68.596 63.169 66.917L63.289 65.984L64.288 67.031C64.878 67.618 65.387 68.008 65.741 68.234C65.52 67.877 65.127 67.371 64.536 66.777C64.186 66.427 63.819 66.105 63.478 65.847L63.289 65.704L63.372 63.841L64.087 64.505C64.243 64.653 64.39 64.777 64.521 64.887C64.363 64.695 64.174 64.482 63.945 64.248L63.351 63.694L63.336 63.494C63.314 62.524 63.24 61.587 63.114 60.785L63.035 60.27C63.035 60.27 64.594 60.27 64.963 60.27C65.148 59.949 65.929 58.597 65.929 58.597L66.337 58.935C66.872 59.376 67.53 59.844 68.241 60.293L68.42 60.406C68.42 60.406 68.423 60.441 68.423 60.458C68.481 60.489 69.335 60.952 69.335 60.952L70.318 61.487L70.339 61.734C70.372 62.22 70.481 62.831 70.648 63.451C70.862 64.256 71.108 64.844 71.3 65.216C71.283 64.794 71.204 64.169 70.986 63.359C70.912 63.075 70.825 62.794 70.729 62.525L70.382 61.542L71.33 61.966C73.054 62.729 73.997 62.847 74.277 62.789C74.202 62.57 73.808 61.974 72.56 61.002L71.835 60.439L72.77 60.201L72.852 60.179C73.653 59.964 74.244 59.721 74.617 59.526C74.198 59.543 73.568 59.622 72.763 59.837C72.403 59.935 72.057 60.046 71.737 60.166L71.524 60.246L69.902 59.207L70.789 58.908C70.901 58.871 71.001 58.833 71.1 58.798C70.853 58.834 70.573 58.889 70.256 58.978L69.719 59.131L69.547 59.046C68.649 58.552 67.756 58.134 66.968 57.839L66.473 57.651C66.473 57.651 67.352 56.131 67.545 55.799C67.358 55.48 66.581 54.137 66.581 54.137L67.054 53.94C67.679 53.679 68.346 53.361 69.03 52.993L69.208 52.896L69.396 52.962C69.623 53.047 69.863 53.122 70.113 53.188C70.428 53.277 70.707 53.329 70.952 53.37C70.762 53.295 70.543 53.222 70.287 53.147L69.328 52.874L71.16 51.708L71.387 51.799C71.783 51.967 72.25 52.126 72.739 52.256C73.546 52.472 74.173 52.557 74.594 52.57C74.22 52.374 73.631 52.131 72.83 51.917L71.412 51.568L72.137 50.996C73.421 50.004 73.823 49.396 73.899 49.175C73.675 49.13 72.952 49.174 71.45 49.79L70.589 50.139L71.008 48.71C71.224 47.9 71.306 47.272 71.323 46.855C71.126 47.227 70.883 47.813 70.664 48.618C70.533 49.117 70.437 49.604 70.388 50.033L70.362 50.269L68.445 51.269L68.678 50.305C68.738 50.052 68.781 49.832 68.813 49.633C68.726 49.862 68.633 50.133 68.553 50.446C68.486 50.686 68.431 50.932 68.39 51.164L68.354 51.364L68.184 51.468C67.513 51.879 66.896 52.3 66.355 52.719L65.947 53.032C65.947 53.032 65.154 51.654 64.966 51.334C64.586 51.334 62.901 51.334 62.901 51.334L62.983 50.81C63.095 50.171 63.172 49.448 63.212 48.669L63.221 48.472L63.371 48.347C63.562 48.189 63.756 48.009 63.947 47.819C64.176 47.588 64.365 47.375 64.523 47.179C64.365 47.309 64.194 47.46 64.002 47.642L63.26 48.362L63.231 46.408L63.416 46.266C63.773 46.004 64.164 45.663 64.54 45.283C65.131 44.693 65.524 44.187 65.745 43.834C65.391 44.059 64.882 44.445 64.292 45.034L63.244 46.133L63.145 45.161C62.956 43.132 62.563 42.188 62.362 41.975C62.165 42.19 61.788 43.092 61.594 45.024ZM59.882 59.7L57.629 55.805L60.009 51.685H64.766L67.144 55.805L64.766 59.923H60.009L59.882 59.7ZM68.446 60.626C68.487 60.955 68.56 61.33 68.661 61.709C68.746 62.024 68.839 62.292 68.928 62.52C68.889 62.279 68.834 61.998 68.746 61.686C68.746 61.686 68.515 60.852 68.446 60.619V60.626Z" fill="url(#paint10_radial_14_1564)"/>
<path d="M60.915 53.2529C60.8 53.4489 59.555 55.6079 59.44 55.8059C59.554 56.0039 60.799 58.1619 60.915 58.3589C61.142 58.3589 63.637 58.3589 63.864 58.3589C63.975 58.1619 65.219 56.0039 65.336 55.8059C65.22 55.6089 63.976 53.4489 63.864 53.2529C63.636 53.2529 61.141 53.2529 60.915 53.2529Z" fill="url(#paint11_radial_14_1564)"/>
<path d="M31.506 87.814C31.442 87.575 30.532 87.6101 29.472 87.8931C29.198 87.9681 28.936 88.0501 28.703 88.1401C28.556 88.0401 28.398 87.942 28.241 87.842C28.875 87.63 29.317 87.3691 29.275 87.2111C29.223 87.0251 28.506 87.053 27.673 87.274C27.577 87.3 27.489 87.3271 27.402 87.3541C26.723 86.9821 26.075 86.683 25.509 86.467L26.182 85.308L25.583 84.269C26.03 84.083 26.519 83.85 27.027 83.576C27.193 83.635 27.375 83.6951 27.567 83.7451C28.4 83.9711 29.119 83.9981 29.168 83.8101C29.215 83.6311 28.641 83.317 27.862 83.097C28.062 82.976 28.253 82.856 28.436 82.733C28.724 82.856 29.069 82.976 29.451 83.076C30.511 83.36 31.421 83.398 31.486 83.158C31.55 82.919 30.744 82.496 29.681 82.209C29.551 82.176 29.421 82.1451 29.301 82.1171C30.281 81.3571 30.841 80.6831 30.666 80.3821C30.493 80.0801 29.631 80.23 28.487 80.697C28.525 80.57 28.566 80.4401 28.601 80.3051C28.885 79.2451 28.925 78.332 28.682 78.269C28.443 78.206 28.02 79.012 27.736 80.072C27.632 80.457 27.561 80.8231 27.527 81.1351C27.332 81.2321 27.13 81.3341 26.93 81.4451C27.125 80.6661 27.143 80.0141 26.963 79.9661C26.775 79.9161 26.441 80.55 26.217 81.386C26.168 81.574 26.124 81.76 26.097 81.928C25.597 82.235 25.147 82.5461 24.755 82.8441L24.142 81.78H22.855C22.932 81.321 22.989 80.7871 23.017 80.2081C23.158 80.0941 23.305 79.9601 23.452 79.8121C24.06 79.2031 24.448 78.5951 24.307 78.4581C24.178 78.3281 23.621 78.6651 23.042 79.2261C23.042 79.0581 23.039 78.8931 23.034 78.7261C23.293 78.5361 23.586 78.2871 23.881 77.9951C24.656 77.2171 25.142 76.445 24.967 76.27C24.793 76.095 24.023 76.582 23.247 77.358C23.147 77.454 23.057 77.551 22.971 77.645C22.829 76.115 22.486 75.04 22.086 75.04C21.701 75.04 21.365 76.068 21.217 77.543C21.166 77.487 21.112 77.4331 21.057 77.3751C20.281 76.6031 19.507 76.113 19.331 76.287C19.158 76.466 19.646 77.234 20.421 78.012C20.671 78.259 20.918 78.48 21.145 78.655C21.139 78.846 21.134 79.038 21.134 79.236C20.559 78.679 20.008 78.342 19.876 78.473C19.738 78.61 20.123 79.217 20.733 79.827C20.877 79.972 21.021 80.1021 21.159 80.2181C21.189 80.7951 21.245 81.3231 21.323 81.7811H20.071L19.486 82.79C18.949 82.339 18.237 81.844 17.427 81.368C17.394 81.207 17.359 81.032 17.31 80.855C17.085 80.02 16.752 79.3851 16.564 79.4351C16.384 79.4841 16.403 80.1361 16.594 80.9141C16.395 80.8081 16.197 80.7121 16.003 80.6221C15.967 80.3051 15.895 79.934 15.791 79.543C15.507 78.482 15.083 77.675 14.844 77.741C14.607 77.804 14.639 78.7141 14.923 79.7761C14.967 79.9291 15.012 80.078 15.058 80.222C14.079 79.858 13.364 79.762 13.208 80.032C13.05 80.307 13.5 80.8901 14.322 81.5681C14.166 81.5981 14.009 81.6371 13.846 81.6801C12.786 81.9631 11.979 82.3871 12.042 82.6271C12.106 82.8651 13.018 82.827 14.075 82.545C14.476 82.44 14.843 82.3131 15.139 82.1791C15.316 82.3031 15.504 82.4301 15.703 82.5551C14.908 82.7781 14.31 83.0971 14.359 83.2791C14.41 83.4661 15.126 83.44 15.962 83.215C16.156 83.164 16.342 83.1051 16.51 83.0441C17.312 83.4971 18.083 83.8591 18.734 84.0961L18.034 85.311L18.677 86.426C18.204 86.607 17.672 86.8471 17.114 87.1411C16.982 87.0951 16.842 87.055 16.694 87.014C15.861 86.789 15.145 86.7611 15.093 86.9501C15.048 87.1171 15.552 87.4031 16.256 87.6201C16.131 87.6971 16.009 87.769 15.888 87.842C15.639 87.743 15.35 87.6481 15.04 87.5651C13.981 87.2831 13.068 87.247 13.007 87.485C12.942 87.725 13.749 88.151 14.809 88.433C14.86 88.447 14.908 88.46 14.958 88.47C13.783 89.324 13.083 90.1091 13.275 90.4431C13.479 90.7931 14.62 90.5341 16.055 89.8621C16.007 90.0091 15.96 90.162 15.916 90.319C15.635 91.382 15.597 92.2911 15.837 92.3561C16.078 92.4191 16.501 91.612 16.786 90.551C16.899 90.122 16.974 89.715 17.005 89.381C17.132 89.315 17.259 89.2411 17.386 89.1671C17.386 89.1721 17.386 89.1761 17.383 89.1801C17.16 90.0131 17.132 90.731 17.32 90.782C17.508 90.834 17.841 90.1961 18.065 89.3651C18.13 89.1181 18.177 88.878 18.21 88.665C18.679 88.361 19.098 88.0591 19.451 87.7711L20.067 88.8381H21.37C21.285 89.3851 21.227 90.027 21.211 90.717C21.056 90.844 20.892 90.99 20.73 91.155C20.12 91.765 19.735 92.3721 19.873 92.5101C20.008 92.6471 20.605 92.2741 21.21 91.6721C21.214 91.8751 21.224 92.0701 21.234 92.2631C20.981 92.4511 20.699 92.6951 20.418 92.9761C19.644 93.7511 19.155 94.523 19.328 94.701C19.504 94.873 20.277 94.386 21.054 93.611C21.15 93.515 21.242 93.4161 21.33 93.3201C21.493 94.5891 21.804 95.446 22.157 95.446C22.513 95.446 22.82 94.592 22.986 93.324C23.066 93.413 23.154 93.502 23.244 93.592C24.019 94.37 24.79 94.8561 24.964 94.6791C25.139 94.5061 24.653 93.736 23.878 92.957C23.604 92.682 23.331 92.4481 23.083 92.2631C23.091 92.1101 23.098 91.949 23.103 91.79C23.659 92.312 24.177 92.6241 24.303 92.4971C24.445 92.3601 24.057 91.7521 23.448 91.1431C23.333 91.0291 23.219 90.9221 23.106 90.8251C23.092 90.0911 23.033 89.415 22.945 88.84H24.138L24.734 87.809C25.125 88.128 25.596 88.471 26.131 88.809C26.16 89.049 26.213 89.3321 26.294 89.6281C26.518 90.4651 26.85 91.0981 27.04 91.0471C27.226 90.9961 27.197 90.2821 26.975 89.4481C26.959 89.3941 26.946 89.339 26.929 89.288C27.118 89.396 27.306 89.496 27.489 89.592C27.513 89.948 27.588 90.402 27.718 90.886C28.003 91.944 28.427 92.7521 28.665 92.6901C28.905 92.6251 28.867 91.7131 28.586 90.6541C28.526 90.4311 28.46 90.2221 28.391 90.0291C29.715 90.6171 30.744 90.8321 30.936 90.5001C31.107 90.2051 30.561 89.5391 29.599 88.7921C29.632 88.7821 29.665 88.775 29.695 88.767C30.763 88.474 31.571 88.055 31.506 87.814ZM23.631 87.939H20.589L19.069 85.308L20.589 82.6741H23.631L25.15 85.308L23.631 87.939Z" fill="url(#paint12_radial_14_1564)"/>
<path d="M21.54 77.572L21.472 78.2601L20.832 77.6021C20.406 77.1801 20.044 76.8981 19.787 76.7391C19.948 76.9951 20.227 77.358 20.65 77.78C20.88 78.01 21.12 78.2231 21.346 78.3981L21.471 78.4971L21.446 79.97L20.915 79.4641C20.782 79.3351 20.658 79.228 20.547 79.139C20.66 79.277 20.795 79.4311 20.963 79.5961C21.096 79.7301 21.231 79.8571 21.368 79.9691L21.474 80.061L21.483 80.2001C21.511 80.7581 21.565 81.2711 21.641 81.7261L21.706 82.103C21.706 82.103 20.529 82.103 20.258 82.103C20.128 82.33 19.576 83.283 19.576 83.283L19.285 83.033C18.737 82.579 18.039 82.0961 17.265 81.6431L17.145 81.574L17.11 81.4271L17.001 80.936C16.941 80.713 16.875 80.519 16.814 80.353C16.836 80.495 16.864 80.65 16.914 80.834L17.077 81.504L15.712 80.834L15.688 80.6591C15.651 80.3441 15.582 79.988 15.486 79.624C15.331 79.051 15.156 78.626 15.015 78.361C15.025 78.663 15.084 79.1121 15.238 79.6901L15.551 80.738L14.947 80.522C14.071 80.196 13.653 80.1801 13.509 80.2081C13.56 80.3511 13.791 80.7151 14.527 81.3181L15.029 81.73L13.931 81.9901C13.355 82.1451 12.934 82.32 12.665 82.46C12.97 82.449 13.416 82.391 13.996 82.236C14.367 82.137 14.72 82.014 15.01 81.887L15.173 81.8151L16.459 82.6721L15.79 82.866C15.591 82.923 15.422 82.978 15.277 83.033C15.452 83.006 15.653 82.967 15.88 82.905C16.059 82.858 16.237 82.801 16.4 82.741L16.541 82.6901L16.673 82.764C17.436 83.195 18.19 83.5511 18.846 83.7911L19.205 83.9241C19.205 83.9241 18.546 85.0671 18.406 85.3101C18.543 85.5431 19.147 86.5911 19.147 86.5911L18.794 86.7271C18.327 86.9041 17.798 87.147 17.265 87.423L17.149 87.486L16.613 87.322C16.389 87.261 16.19 87.2231 16.015 87.1951C16.116 87.2321 16.226 87.2711 16.353 87.3121L17.036 87.5211L15.931 88.197L15.778 88.1411C15.527 88.0411 15.252 87.949 14.962 87.873C14.383 87.719 13.936 87.66 13.632 87.649C13.898 87.79 14.321 87.963 14.897 88.118L15.704 88.3251L15.154 88.7261C14.052 89.5261 13.644 90.069 13.584 90.264C13.803 90.312 14.554 90.2091 15.927 89.5681L16.574 89.2661L16.238 90.4011C16.08 90.9801 16.022 91.4291 16.011 91.7321C16.152 91.4631 16.326 91.0401 16.481 90.4661C16.586 90.0671 16.66 89.68 16.693 89.348L16.709 89.1801L17.899 88.511L17.703 89.2581C17.64 89.4851 17.601 89.6861 17.574 89.8591C17.638 89.6941 17.703 89.5021 17.762 89.2781C17.824 89.0471 17.871 88.8261 17.902 88.6141L17.923 88.472L18.045 88.3931C18.497 88.0991 18.903 87.803 19.256 87.517L19.548 87.2791C19.548 87.2791 20.127 88.281 20.26 88.511C20.533 88.511 21.752 88.511 21.752 88.511L21.694 88.884C21.611 89.427 21.557 90.0651 21.539 90.7261L21.536 90.874L21.421 90.9681C21.269 91.0901 21.112 91.2311 20.964 91.3821C20.799 91.5471 20.662 91.7 20.552 91.835C20.686 91.728 20.83 91.6011 20.991 91.4431L21.509 90.926L21.569 92.407L21.433 92.5161C21.184 92.7021 20.912 92.937 20.652 93.199C20.228 93.62 19.95 93.986 19.789 94.241C20.046 94.082 20.408 93.8021 20.834 93.3781L21.564 92.611L21.657 93.2731C21.812 94.4811 22.055 94.966 22.165 95.095C22.279 94.966 22.519 94.484 22.676 93.28L22.762 92.611L23.479 93.36C23.902 93.784 24.265 94.062 24.519 94.222C24.36 93.967 24.081 93.606 23.66 93.178C23.405 92.929 23.143 92.697 22.897 92.512L22.763 92.4111L22.821 91.074L23.332 91.5491C23.446 91.6561 23.551 91.7461 23.647 91.8231C23.534 91.6821 23.398 91.533 23.231 91.363L22.808 90.967L22.794 90.8231C22.783 90.1271 22.726 89.4551 22.636 88.8821L22.578 88.509C22.578 88.509 23.698 88.509 23.963 88.509C24.097 88.28 24.655 87.3121 24.655 87.3121L24.948 87.5521C25.332 87.8681 25.805 88.2061 26.311 88.5291L26.441 88.611C26.441 88.611 26.445 88.636 26.445 88.649C26.484 88.67 27.1 89.001 27.1 89.001L27.8 89.384L27.82 89.563C27.842 89.914 27.92 90.3511 28.041 90.7941C28.195 91.3741 28.369 91.7931 28.51 92.0621C28.498 91.7581 28.442 91.309 28.285 90.73C28.23 90.524 28.168 90.324 28.099 90.129L27.849 89.425L28.531 89.728C29.766 90.276 30.445 90.3631 30.644 90.3201C30.592 90.1661 30.308 89.735 29.413 89.038L28.894 88.634L29.563 88.465L29.623 88.4481C30.199 88.2971 30.622 88.1201 30.888 87.9791C30.588 87.9901 30.137 88.049 29.558 88.202C29.3 88.271 29.053 88.352 28.823 88.438L28.672 88.4971L27.507 87.7521L28.145 87.537C28.224 87.509 28.295 87.482 28.366 87.457C28.189 87.484 27.99 87.526 27.763 87.587L27.376 87.6981L27.253 87.6351C26.607 87.2791 25.968 86.981 25.403 86.77L25.048 86.634C25.048 86.634 25.679 85.5441 25.816 85.3071C25.682 85.0771 25.127 84.113 25.127 84.113L25.464 83.972C25.914 83.786 26.391 83.5551 26.881 83.2921L27.01 83.222L27.145 83.272C27.309 83.332 27.481 83.386 27.657 83.433C27.885 83.493 28.085 83.535 28.26 83.561C28.124 83.509 27.965 83.4561 27.782 83.4061L27.094 83.2081L28.409 82.3721L28.571 82.436C28.855 82.556 29.189 82.6691 29.541 82.7631C30.12 82.9201 30.57 82.977 30.871 82.988C30.604 82.847 30.182 82.6751 29.606 82.5211L28.59 82.269L29.109 81.86C30.029 81.148 30.319 80.7121 30.374 80.5521C30.213 80.5221 29.695 80.55 28.618 80.993L27.997 81.2451L28.299 80.2181C28.455 79.6401 28.514 79.1891 28.526 78.8901C28.385 79.1541 28.209 79.5781 28.053 80.1531C27.958 80.5081 27.891 80.862 27.854 81.168L27.834 81.3391L26.462 82.056L26.627 81.3641C26.671 81.1851 26.701 81.0271 26.726 80.8821C26.661 81.0491 26.598 81.241 26.538 81.467C26.491 81.64 26.453 81.8141 26.423 81.9821L26.397 82.124L26.274 82.201C25.794 82.497 25.351 82.7981 24.961 83.0991L24.67 83.322C24.67 83.322 24.103 82.335 23.966 82.103C23.695 82.103 22.486 82.103 22.486 82.103L22.546 81.7261C22.625 81.2691 22.677 80.7531 22.707 80.1921L22.714 80.05L22.821 79.959C22.96 79.848 23.098 79.718 23.234 79.582C23.401 79.416 23.537 79.262 23.65 79.124C23.537 79.215 23.414 79.324 23.274 79.457L22.74 79.97L22.719 78.569L22.855 78.467C23.11 78.28 23.387 78.0351 23.664 77.7631C24.086 77.3411 24.364 76.9761 24.523 76.7211C24.269 76.8821 23.906 77.161 23.483 77.584L22.729 78.371L22.658 77.6741C22.524 76.2201 22.243 75.5451 22.095 75.3881C21.95 75.5411 21.679 76.189 21.54 77.572ZM20.311 88.1L18.698 85.308L20.404 82.3511H23.816L25.521 85.308L23.816 88.2601H20.404L20.311 88.1ZM26.457 88.7661C26.485 89.0011 26.539 89.273 26.611 89.54C26.672 89.767 26.735 89.961 26.8 90.126C26.772 89.949 26.731 89.7531 26.671 89.5261C26.671 89.5261 26.503 88.9261 26.456 88.7571V88.7661H26.457Z" fill="url(#paint13_radial_14_1564)"/>
<path d="M21.051 83.4761C20.969 83.6181 20.076 85.165 19.994 85.308C20.076 85.448 20.969 86.9941 21.051 87.1381C21.215 87.1381 23.003 87.1381 23.166 87.1381C23.249 86.9941 24.142 85.448 24.223 85.308C24.142 85.165 23.249 83.6181 23.166 83.4761C23.004 83.4761 21.215 83.4761 21.051 83.4761Z" fill="url(#paint14_radial_14_1564)"/>
<path d="M59.238 93.1579C59.153 92.8429 57.956 92.8909 56.561 93.2639C56.197 93.3619 55.856 93.473 55.551 93.588C55.354 93.457 55.148 93.3269 54.939 93.1979C55.774 92.9179 56.354 92.5739 56.299 92.3669C56.231 92.1219 55.288 92.1559 54.194 92.4509C54.07 92.4829 53.954 92.5169 53.838 92.5549C52.945 92.0659 52.089 91.669 51.348 91.39L52.231 89.8609L51.445 88.4979C52.032 88.2509 52.676 87.9429 53.345 87.5819C53.564 87.6609 53.801 87.7369 54.058 87.8049C55.156 88.1009 56.098 88.1359 56.163 87.8879C56.226 87.6549 55.468 87.2419 54.447 86.9489C54.708 86.7919 54.962 86.6329 55.202 86.4699C55.579 86.6329 56.035 86.7909 56.534 86.9259C57.927 87.2989 59.129 87.3479 59.214 87.0289C59.298 86.7159 58.234 86.1599 56.841 85.7829C56.668 85.7379 56.499 85.6979 56.341 85.6599C57.63 84.6619 58.367 83.7739 58.138 83.3789C57.908 82.9829 56.775 83.177 55.268 83.791C55.321 83.626 55.373 83.4539 55.421 83.2729C55.795 81.8799 55.844 80.6819 55.527 80.5949C55.21 80.5119 54.653 81.5739 54.279 82.9709C54.145 83.4769 54.049 83.9569 54.003 84.3669C53.746 84.4969 53.484 84.6319 53.218 84.7749C53.477 83.7489 53.499 82.8919 53.263 82.8279C53.016 82.7649 52.575 83.5989 52.281 84.6949C52.218 84.9459 52.161 85.1869 52.123 85.4099C51.467 85.8139 50.871 86.2229 50.357 86.6159L49.551 85.218H47.854C47.956 84.612 48.029 83.9099 48.07 83.1479C48.255 82.9969 48.446 82.821 48.639 82.627C49.444 81.823 49.95 81.025 49.764 80.843C49.595 80.672 48.861 81.1199 48.1 81.8549C48.1 81.6339 48.097 81.4149 48.09 81.2009C48.432 80.9499 48.817 80.6209 49.206 80.2349C50.223 79.2119 50.864 78.1979 50.635 77.9659C50.404 77.7349 49.39 78.3759 48.367 79.3969C48.241 79.5259 48.121 79.6529 48.007 79.7789C47.816 77.7639 47.369 76.3459 46.846 76.3459C46.335 76.3459 45.896 77.6979 45.7 79.6419C45.632 79.5699 45.56 79.4959 45.488 79.4219C44.465 78.4019 43.453 77.7599 43.217 77.9899C42.988 78.2199 43.631 79.236 44.648 80.257C44.98 80.585 45.305 80.8699 45.604 81.1039C45.596 81.3529 45.59 81.6069 45.59 81.8659C44.829 81.1379 44.108 80.692 43.935 80.864C43.753 81.046 44.256 81.8429 45.063 82.6469C45.251 82.8359 45.443 83.0099 45.624 83.1619C45.664 83.9199 45.738 84.6159 45.837 85.2199H44.19L43.424 86.5479C42.717 85.9559 41.778 85.3019 40.711 84.6779C40.673 84.4619 40.621 84.2329 40.559 84.0009C40.266 82.9019 39.824 82.064 39.579 82.132C39.343 82.195 39.364 83.0499 39.617 84.0739C39.354 83.9369 39.093 83.809 38.839 83.692C38.794 83.275 38.696 82.7879 38.561 82.2729C38.189 80.8749 37.629 79.8149 37.316 79.8999C36.999 79.9829 37.046 81.1829 37.421 82.5789C37.476 82.7819 37.534 82.979 37.598 83.166C36.309 82.688 35.366 82.5659 35.163 82.9189C34.954 83.2809 35.548 84.05 36.625 84.937C36.423 84.978 36.216 85.0299 36.001 85.0849C34.605 85.4589 33.542 86.0189 33.628 86.3319C33.711 86.6459 34.91 86.5999 36.306 86.2249C36.835 86.0859 37.317 85.9189 37.702 85.7459C37.936 85.9079 38.186 86.0749 38.444 86.2399C37.4 86.5319 36.615 86.9489 36.677 87.1889C36.744 87.4369 37.688 87.4019 38.788 87.1079C39.043 87.0359 39.287 86.9599 39.509 86.8789C40.565 87.4789 41.578 87.9519 42.434 88.2669L41.513 89.864L42.363 91.3339C41.736 91.5699 41.039 91.8879 40.304 92.2739C40.13 92.2149 39.946 92.158 39.752 92.106C38.656 91.811 37.712 91.7729 37.645 92.0229C37.585 92.2429 38.248 92.6169 39.173 92.9039C39.011 93.0019 38.85 93.0989 38.694 93.1969C38.364 93.0659 37.986 92.9399 37.576 92.8329C36.18 92.4589 34.982 92.411 34.899 92.726C34.812 93.039 35.875 93.5989 37.27 93.9749C37.338 93.9919 37.401 94.0089 37.468 94.0239C35.922 95.1459 34.999 96.18 35.252 96.619C35.52 97.082 37.022 96.7359 38.912 95.8549C38.849 96.0469 38.789 96.2489 38.73 96.4589C38.359 97.8539 38.312 99.052 38.625 99.14C38.939 99.221 39.498 98.1599 39.873 96.7639C40.024 96.1979 40.12 95.6639 40.163 95.2249C40.331 95.1329 40.497 95.0389 40.665 94.9429C40.665 94.9479 40.662 94.9539 40.66 94.9599C40.366 96.0559 40.331 97.0009 40.576 97.0639C40.823 97.1319 41.265 96.296 41.559 95.2C41.647 94.872 41.71 94.559 41.752 94.278C42.365 93.882 42.917 93.4819 43.384 93.1019L44.192 94.5079H45.908C45.797 95.2289 45.721 96.0739 45.7 96.9829C45.495 97.1499 45.279 97.3429 45.066 97.5589C44.259 98.3619 43.756 99.1579 43.938 99.3409C44.116 99.5199 44.903 99.027 45.697 98.239C45.703 98.503 45.714 98.7619 45.728 99.0139C45.395 99.2609 45.025 99.5819 44.651 99.9519C43.634 100.974 42.991 101.992 43.22 102.22C43.455 102.449 44.468 101.811 45.491 100.787C45.618 100.66 45.741 100.533 45.855 100.405C46.073 102.079 46.481 103.207 46.945 103.207C47.412 103.207 47.816 102.079 48.033 100.413C48.141 100.529 48.256 100.646 48.371 100.764C49.394 101.785 50.408 102.427 50.639 102.197C50.868 101.965 50.227 100.952 49.21 99.9299C48.845 99.5689 48.487 99.2549 48.161 99.0129C48.176 98.8109 48.18 98.6039 48.186 98.3909C48.918 99.0789 49.604 99.4879 49.767 99.3239C49.953 99.1439 49.447 98.3439 48.642 97.5399C48.492 97.3899 48.339 97.2489 48.195 97.1219C48.175 96.1579 48.099 95.2669 47.98 94.5089H49.553L50.338 93.1509C50.849 93.5739 51.474 94.0229 52.176 94.4669C52.214 94.7859 52.283 95.1559 52.389 95.5499C52.684 96.6479 53.121 97.483 53.372 97.416C53.617 97.348 53.578 96.4039 53.284 95.3089C53.267 95.2369 53.249 95.167 53.225 95.101C53.473 95.239 53.72 95.3719 53.961 95.4999C53.99 95.9669 54.09 96.5629 54.265 97.2009C54.638 98.5959 55.197 99.6569 55.509 99.5739C55.825 99.4879 55.78 98.2909 55.403 96.8959C55.329 96.6029 55.242 96.329 55.15 96.075C56.894 96.85 58.247 97.1289 58.5 96.6929C58.724 96.2989 58.006 95.428 56.74 94.442C56.782 94.432 56.826 94.4229 56.87 94.4119C58.26 94.0299 59.324 93.4739 59.238 93.1579ZM48.869 93.325H44.869L42.868 89.8599L44.869 86.3919H48.869L50.872 89.8599L48.869 93.325Z" fill="url(#paint15_radial_14_1564)"/>
<path d="M46.119 79.6799L46.032 80.5859L45.185 79.718C44.628 79.162 44.153 78.7919 43.814 78.5819C44.026 78.9189 44.393 79.3959 44.948 79.9539C45.253 80.2569 45.568 80.5379 45.864 80.7669L46.032 80.8979L45.997 82.8359L45.298 82.1679C45.123 81.9999 44.96 81.8579 44.815 81.7379C44.962 81.9219 45.14 82.126 45.36 82.343C45.536 82.522 45.714 82.6859 45.896 82.8329L46.036 82.9529L46.047 83.1389C46.084 83.8709 46.156 84.5469 46.256 85.1489L46.339 85.6429C46.339 85.6429 44.788 85.6429 44.436 85.6429C44.264 85.9409 43.538 87.1949 43.538 87.1949L43.154 86.8679C42.432 86.2639 41.512 85.6349 40.497 85.0369L40.339 84.9449L40.292 84.7489L40.147 84.1039C40.068 83.8089 39.983 83.554 39.9 83.338C39.928 83.525 39.967 83.7309 40.03 83.9689L40.249 84.8519L38.452 83.9689L38.416 83.7339C38.37 83.3259 38.278 82.855 38.15 82.377C37.946 81.619 37.716 81.0639 37.531 80.7139C37.545 81.1099 37.622 81.7 37.826 82.463L38.237 83.843L37.445 83.5589C36.29 83.1299 35.74 83.1069 35.554 83.1479C35.617 83.3349 35.925 83.8139 36.892 84.6069L37.553 85.1499L36.107 85.4909C35.346 85.6959 34.793 85.9249 34.443 86.1109C34.839 86.0949 35.431 86.0179 36.193 85.8159C36.682 85.6849 37.146 85.5249 37.528 85.3569L37.74 85.2639L39.434 86.3889L38.555 86.6439C38.292 86.7179 38.072 86.7919 37.88 86.8659C38.108 86.8289 38.371 86.7759 38.672 86.6969C38.908 86.6329 39.141 86.56 39.36 86.481L39.546 86.4129L39.714 86.5089C40.72 87.0799 41.711 87.5509 42.577 87.8659L43.049 88.0389C43.049 88.0389 42.18 89.5429 41.998 89.8619C42.176 90.1729 42.973 91.5509 42.973 91.5509L42.509 91.7249C41.892 91.9589 41.195 92.2789 40.496 92.6479L40.341 92.7279L39.639 92.5119C39.341 92.4329 39.077 92.3809 38.847 92.3439C38.981 92.3949 39.128 92.4459 39.293 92.4979L40.189 92.7769L38.735 93.6619L38.534 93.5889C38.206 93.4579 37.843 93.3399 37.462 93.2379C36.698 93.0349 36.108 92.957 35.712 92.942C36.063 93.128 36.618 93.3569 37.379 93.5609L38.439 93.8319L37.712 94.3649C36.266 95.4149 35.724 96.1299 35.648 96.3859C35.934 96.4499 36.923 96.3129 38.731 95.4689L39.584 95.0719L39.139 96.562C38.933 97.329 38.856 97.9159 38.84 98.3159C39.029 97.9639 39.257 97.409 39.461 96.653C39.602 96.126 39.697 95.6189 39.739 95.1809L39.76 94.9589L41.327 94.0809L41.066 95.062C40.985 95.36 40.933 95.623 40.898 95.851C40.983 95.636 41.066 95.3809 41.147 95.0839C41.226 94.7829 41.289 94.491 41.328 94.213L41.357 94.0229L41.518 93.9189C42.111 93.5319 42.651 93.1439 43.11 92.7679L43.498 92.455C43.498 92.455 44.256 93.7719 44.434 94.0809C44.791 94.0809 46.398 94.0809 46.398 94.0809L46.321 94.567C46.212 95.284 46.141 96.1219 46.118 96.9909L46.114 97.1839L45.961 97.3069C45.761 97.4709 45.559 97.6549 45.359 97.8529C45.141 98.0699 44.964 98.2709 44.817 98.4529C44.993 98.3109 45.185 98.1409 45.395 97.9339L46.077 97.2579L46.156 99.2059L45.977 99.3479C45.649 99.5949 45.293 99.9049 44.948 100.246C44.393 100.805 44.026 101.282 43.814 101.618C44.153 101.408 44.628 101.041 45.185 100.482L46.152 99.4739L46.272 100.344C46.477 101.939 46.793 102.575 46.941 102.743C47.089 102.575 47.405 101.939 47.613 100.351L47.725 99.4739L48.666 100.46C49.225 101.016 49.701 101.383 50.039 101.593C49.828 101.258 49.46 100.779 48.901 100.221C48.57 99.8889 48.225 99.5859 47.901 99.3459L47.724 99.2099L47.801 97.45L48.475 98.0739C48.624 98.2179 48.761 98.3339 48.887 98.4359C48.737 98.2519 48.559 98.0519 48.341 97.8319L47.78 97.3109L47.766 97.1229C47.747 96.2039 47.675 95.3189 47.556 94.5639L47.48 94.0779C47.48 94.0779 48.955 94.0779 49.302 94.0779C49.476 93.7729 50.213 92.4979 50.213 92.4979L50.598 92.8149C51.106 93.2309 51.726 93.6769 52.396 94.0979L52.567 94.2069C52.567 94.2069 52.567 94.2379 52.571 94.2559C52.624 94.2829 53.43 94.7219 53.43 94.7219L54.356 95.226L54.38 95.4599C54.407 95.9209 54.511 96.4949 54.669 97.0809C54.871 97.8399 55.104 98.3949 55.286 98.7469C55.269 98.3489 55.196 97.7579 54.99 96.9949C54.919 96.7249 54.836 96.4629 54.748 96.2059L54.419 95.2769L55.317 95.6749C56.942 96.4009 57.834 96.5109 58.096 96.4519C58.026 96.2469 57.656 95.685 56.475 94.765L55.792 94.2339L56.676 94.0129L56.752 93.9899C57.508 93.7869 58.065 93.5569 58.418 93.3719C58.019 93.3899 57.429 93.4629 56.669 93.6669C56.327 93.7599 56.001 93.8629 55.698 93.9779L55.496 94.0549L53.964 93.075L54.802 92.7919C54.908 92.7539 55.004 92.7219 55.095 92.6859C54.863 92.7229 54.6 92.777 54.3 92.856L53.792 93.0039L53.631 92.9219C52.778 92.4569 51.938 92.0629 51.194 91.7829L50.727 91.6049C50.727 91.6049 51.557 90.1699 51.738 89.8569C51.563 89.5539 50.83 88.2849 50.83 88.2849L51.276 88.0999C51.868 87.8559 52.496 87.5519 53.138 87.2039L53.308 87.114L53.488 87.1779C53.701 87.2589 53.927 87.3279 54.16 87.3919C54.461 87.4719 54.723 87.5269 54.958 87.5609C54.774 87.4929 54.568 87.4209 54.327 87.3529L53.42 87.0939L55.152 85.9929L55.365 86.0769C55.739 86.2369 56.179 86.3859 56.642 86.5089C57.405 86.7139 57.995 86.7899 58.391 86.8069C58.04 86.6209 57.484 86.389 56.728 86.187L55.39 85.8609L56.075 85.3209C57.287 84.3829 57.665 83.81 57.738 83.601C57.525 83.558 56.843 83.597 55.425 84.179L54.609 84.5099L55.007 83.1609C55.21 82.3979 55.289 81.8049 55.302 81.4079C55.117 81.7609 54.888 82.314 54.682 83.075C54.559 83.544 54.469 84.0069 54.42 84.4119L54.396 84.6329L52.586 85.575L52.806 84.6669C52.864 84.4299 52.902 84.2209 52.935 84.0309C52.85 84.2519 52.767 84.5029 52.689 84.7979C52.624 85.0269 52.575 85.2559 52.534 85.4819L52.501 85.6689L52.34 85.7679C51.706 86.1569 51.125 86.554 50.614 86.95L50.229 87.2409C50.229 87.2409 49.478 85.9429 49.301 85.6389C48.944 85.6389 47.353 85.6389 47.353 85.6389L47.432 85.1449C47.536 84.5409 47.607 83.8609 47.645 83.1239L47.654 82.9359L47.796 82.8199C47.977 82.6699 48.16 82.5009 48.34 82.3219C48.558 82.1029 48.736 81.901 48.886 81.718C48.736 81.838 48.573 81.9819 48.392 82.1549L47.69 82.8329L47.663 80.9879L47.838 80.8549C48.175 80.6069 48.542 80.2849 48.901 79.9269C49.46 79.3709 49.828 78.8919 50.039 78.5559C49.701 78.7689 49.225 79.135 48.666 79.692L47.677 80.7249L47.585 79.8109C47.404 77.8949 47.036 77.0069 46.845 76.8009C46.659 77.0059 46.303 77.8559 46.119 79.6799ZM44.506 93.5379L42.379 89.8599L44.624 85.9699H49.115L51.359 89.8599L49.115 93.7479H44.624L44.506 93.5379ZM52.589 94.4109C52.63 94.7199 52.698 95.0759 52.794 95.4319C52.872 95.7289 52.959 95.983 53.042 96.2C53.003 95.968 52.953 95.7089 52.872 95.4119C52.872 95.4119 52.65 94.6229 52.589 94.4039V94.4109Z" fill="url(#paint16_radial_14_1564)"/>
<path d="M45.477 87.449C45.368 87.636 44.194 89.674 44.086 89.86C44.193 90.047 45.367 92.081 45.477 92.27C45.693 92.27 48.049 92.27 48.26 92.27C48.369 92.081 49.543 90.046 49.653 89.86C49.544 89.674 48.37 87.635 48.26 87.449C48.049 87.449 45.693 87.449 45.477 87.449Z" fill="url(#paint17_radial_14_1564)"/>
<path d="M83.451 92.455C83.387 92.232 82.55 92.2659 81.567 92.5269C81.313 92.5979 81.072 92.672 80.858 92.757C80.72 92.662 80.576 92.5709 80.428 92.4819C81.015 92.2839 81.424 92.0439 81.383 91.8979C81.337 91.7239 80.673 91.7499 79.901 91.9579C79.815 91.9819 79.733 92.0039 79.651 92.0309C79.023 91.6839 78.423 91.4099 77.904 91.2119L78.524 90.1369L77.969 89.1769C78.384 89.0069 78.837 88.7889 79.304 88.5349C79.458 88.5909 79.626 88.6449 79.805 88.6929C80.58 88.8969 81.241 88.9249 81.285 88.7499C81.329 88.5849 80.799 88.2989 80.079 88.0909C80.264 87.9809 80.44 87.8669 80.61 87.7539C80.877 87.8669 81.196 87.9809 81.546 88.0729C82.524 88.3329 83.369 88.3689 83.428 88.1479C83.489 87.9239 82.741 87.5369 81.761 87.2679C81.641 87.2369 81.524 87.2109 81.408 87.1839C82.318 86.4809 82.836 85.858 82.672 85.58C82.513 85.302 81.717 85.4389 80.657 85.8719C80.694 85.7549 80.732 85.6359 80.762 85.5079C81.027 84.5279 81.062 83.6849 80.836 83.6279C80.615 83.5669 80.226 84.3129 79.961 85.2929C79.868 85.6499 79.8 85.9849 79.77 86.2759C79.587 86.3649 79.403 86.4609 79.217 86.5639C79.396 85.8389 79.412 85.2379 79.246 85.1949C79.075 85.1499 78.765 85.7349 78.558 86.5049C78.51 86.6829 78.473 86.8509 78.448 87.0099C77.985 87.2929 77.567 87.579 77.207 87.856L76.639 86.8729H75.448C75.52 86.4469 75.57 85.9549 75.599 85.4189C75.729 85.3099 75.867 85.1899 76 85.0519C76.565 84.4879 76.922 83.9249 76.789 83.7979C76.672 83.6779 76.152 83.9919 75.62 84.5099C75.62 84.3539 75.619 84.2009 75.612 84.0479C75.855 83.8709 76.124 83.64 76.397 83.369C77.112 82.651 77.561 81.9369 77.402 81.7759C77.239 81.6119 76.526 82.0609 75.808 82.7809C75.718 82.8729 75.635 82.9609 75.554 83.0499C75.42 81.6359 75.105 80.6379 74.738 80.6379C74.381 80.6379 74.07 81.5889 73.932 82.9529C73.883 82.9019 73.833 82.85 73.784 82.799C73.067 82.082 72.352 81.6299 72.19 81.7939C72.029 81.9559 72.479 82.6689 73.194 83.3849C73.425 83.6169 73.654 83.8169 73.864 83.9819C73.859 84.1569 73.856 84.336 73.856 84.515C73.323 84.005 72.81 83.6919 72.693 83.8139C72.564 83.9389 72.92 84.5029 73.486 85.0659C73.617 85.1979 73.753 85.319 73.879 85.429C73.907 85.96 73.959 86.4479 74.03 86.8729H72.871L72.331 87.8059C71.835 87.3909 71.177 86.9289 70.427 86.4929C70.397 86.3439 70.366 86.1789 70.317 86.0139C70.114 85.2429 69.802 84.6529 69.629 84.7019C69.463 84.7449 69.481 85.3489 69.659 86.0659C69.474 85.9689 69.289 85.8809 69.11 85.7959C69.079 85.5069 69.011 85.1629 68.915 84.7999C68.651 83.8199 68.26 83.0729 68.04 83.1309C67.818 83.1929 67.849 84.0349 68.112 85.0159C68.151 85.1599 68.192 85.295 68.236 85.429C67.333 85.093 66.669 85.0039 66.527 85.2559C66.379 85.5109 66.795 86.05 67.553 86.674C67.413 86.704 67.265 86.7379 67.113 86.7789C66.134 87.0399 65.387 87.4329 65.447 87.6539C65.505 87.8759 66.345 87.8399 67.33 87.5819C67.7 87.4789 68.039 87.3619 68.31 87.2409C68.475 87.3559 68.648 87.4729 68.833 87.5889C68.096 87.7949 67.546 88.0889 67.591 88.2579C67.635 88.4299 68.3 88.408 69.074 88.2C69.253 88.148 69.423 88.0949 69.579 88.0369C70.321 88.4609 71.031 88.7929 71.635 89.0129L70.988 90.1359L71.583 91.1689C71.147 91.3339 70.653 91.5579 70.138 91.8279C70.016 91.7869 69.888 91.7479 69.75 91.7109C68.979 91.5029 68.316 91.476 68.269 91.653C68.226 91.807 68.695 92.0719 69.344 92.2719C69.23 92.3399 69.116 92.4099 69.006 92.4779C68.777 92.3859 68.509 92.2959 68.219 92.2209C67.241 91.9569 66.397 91.9239 66.338 92.1459C66.278 92.3669 67.026 92.7569 68.008 93.0229C68.054 93.0349 68.096 93.0449 68.146 93.0579C67.057 93.8469 66.409 94.5769 66.587 94.8799C66.776 95.2039 67.832 94.9639 69.161 94.3469C69.117 94.4819 69.075 94.6209 69.034 94.7689C68.771 95.7489 68.737 96.591 68.957 96.653C69.18 96.711 69.573 95.9639 69.837 94.9829C69.941 94.5849 70.012 94.2109 70.041 93.9019C70.159 93.8389 70.274 93.7709 70.392 93.7029C70.392 93.7059 70.392 93.7099 70.39 93.7169C70.181 94.4859 70.158 95.1509 70.33 95.1949C70.502 95.2409 70.813 94.6539 71.018 93.8849C71.082 93.6559 71.125 93.4339 71.158 93.2369C71.587 92.9579 71.974 92.6759 72.3 92.4109L72.871 93.3989H74.076C73.997 93.9029 73.946 94.5 73.931 95.14C73.787 95.255 73.634 95.3919 73.486 95.5419C72.92 96.1069 72.564 96.6689 72.693 96.7959C72.818 96.9199 73.37 96.5739 73.929 96.0219C73.932 96.2079 73.943 96.3889 73.95 96.5649C73.717 96.7419 73.458 96.965 73.194 97.226C72.479 97.944 72.029 98.6589 72.19 98.8199C72.352 98.9819 73.067 98.5299 73.784 97.8129C73.874 97.7229 73.96 97.6309 74.039 97.5419C74.192 98.7199 74.479 99.5109 74.807 99.5109C75.136 99.5109 75.418 98.7199 75.57 97.5479C75.648 97.6299 75.729 97.7119 75.809 97.7959C76.527 98.5129 77.24 98.9619 77.403 98.8009C77.562 98.6389 77.113 97.9279 76.398 97.2089C76.142 96.9549 75.89 96.7349 75.662 96.5639C75.669 96.4199 75.676 96.2779 75.68 96.1279C76.195 96.6109 76.678 96.8989 76.79 96.7799C76.923 96.6549 76.566 96.0929 76.001 95.5269C75.894 95.4219 75.788 95.3229 75.686 95.2329C75.668 94.5539 75.618 93.9319 75.536 93.3979H76.64L77.189 92.4449C77.551 92.7399 77.989 93.0549 78.486 93.3679C78.511 93.5939 78.56 93.8529 78.633 94.1299C78.84 94.9009 79.147 95.4869 79.322 95.4399C79.496 95.3919 79.469 94.7329 79.262 93.9579C79.25 93.9089 79.237 93.8609 79.223 93.8139C79.398 93.9109 79.569 94.0049 79.739 94.0939C79.761 94.4239 79.83 94.8399 79.953 95.2869C80.217 96.2709 80.605 97.0169 80.827 96.9569C81.051 96.8989 81.018 96.0559 80.755 95.0759C80.701 94.8719 80.639 94.6769 80.576 94.4989C81.799 95.0409 82.752 95.2399 82.929 94.9339C83.087 94.6589 82.58 94.0429 81.693 93.3529C81.723 93.3439 81.754 93.336 81.783 93.33C82.76 93.069 83.509 92.676 83.451 92.455ZM76.166 92.5709H73.351L71.947 90.1349L73.351 87.6979H76.166L77.569 90.1349L76.166 92.5709Z" fill="url(#paint18_radial_14_1564)"/>
<path d="M74.23 82.9819L74.166 83.6169L73.573 83.0079C73.182 82.6189 72.846 82.3569 72.609 82.2109C72.756 82.4449 73.015 82.7839 73.406 83.1729C73.619 83.3869 73.841 83.5839 74.05 83.7439L74.166 83.8369L74.143 85.1979L73.65 84.7278C73.527 84.6108 73.413 84.5089 73.311 84.4269C73.415 84.5559 73.543 84.6989 73.694 84.8509C73.82 84.9749 73.945 85.0919 74.072 85.1959L74.172 85.2779L74.179 85.4099C74.205 85.9259 74.254 86.4009 74.323 86.8229L74.383 87.1699C74.383 87.1699 73.293 87.1699 73.044 87.1699C72.924 87.3789 72.414 88.2618 72.414 88.2618L72.144 88.0349C71.64 87.6109 70.995 87.1679 70.278 86.7469L70.166 86.6829L70.136 86.5439L70.036 86.0898C69.978 85.8818 69.919 85.7049 69.858 85.5519C69.88 85.6829 69.908 85.8289 69.951 85.9969L70.104 86.6189L68.843 85.9969L68.818 85.8329C68.785 85.5419 68.719 85.2118 68.629 84.8788C68.484 84.3448 68.326 83.9538 68.194 83.7098C68.207 83.9868 68.257 84.4019 68.4 84.9379L68.69 85.9078L68.134 85.7079C67.322 85.4039 66.935 85.3919 66.804 85.4189C66.851 85.5499 67.064 85.8879 67.746 86.4449L68.21 86.8249L67.194 87.0649C66.657 87.2099 66.269 87.3709 66.022 87.5029C66.303 87.4909 66.717 87.4359 67.255 87.2949C67.598 87.2009 67.923 87.0888 68.191 86.9728L68.338 86.9048L69.53 87.6979L68.914 87.8759C68.728 87.9279 68.572 87.9809 68.439 88.0319C68.599 88.0059 68.785 87.9699 68.995 87.9159C69.161 87.8709 69.324 87.8188 69.478 87.7618L69.607 87.7119L69.727 87.7828C70.434 88.1838 71.13 88.5119 71.737 88.7349L72.07 88.8549C72.07 88.8549 71.461 89.9118 71.332 90.1368C71.456 90.3538 72.02 91.3229 72.02 91.3229L71.691 91.4479C71.26 91.6139 70.768 91.8369 70.277 92.0919L70.171 92.1509L69.674 92.0009C69.465 91.9419 69.281 91.9079 69.119 91.8839C69.212 91.9179 69.317 91.9538 69.433 91.9908L70.061 92.1859L69.04 92.8069L68.898 92.7579C68.668 92.6629 68.412 92.5818 68.145 92.5118C67.609 92.3668 67.194 92.3149 66.916 92.3029C67.161 92.4329 67.552 92.5939 68.084 92.7379L68.83 92.9289L68.319 93.2999C67.303 94.0379 66.926 94.5439 66.871 94.7209C67.07 94.7669 67.765 94.6689 69.037 94.0789L69.636 93.7999L69.325 94.8459C69.18 95.3849 69.126 95.7998 69.115 96.0768C69.246 95.8318 69.408 95.4399 69.551 94.9089C69.651 94.5409 69.716 94.1819 69.747 93.8729L69.76 93.7209L70.863 93.1019L70.681 93.7928C70.622 94.0018 70.587 94.1859 70.56 94.3489C70.62 94.1929 70.681 94.0159 70.735 93.8079C70.793 93.5979 70.836 93.3888 70.863 93.1968L70.885 93.0599L70.996 92.9889C71.414 92.7189 71.791 92.4469 72.116 92.1819L72.387 91.9589C72.387 91.9589 72.922 92.8859 73.044 93.1019C73.299 93.1019 74.426 93.1019 74.426 93.1019L74.371 93.4419C74.295 93.9499 74.244 94.5399 74.229 95.1459L74.226 95.2828L74.119 95.3708C73.977 95.4838 73.833 95.6159 73.693 95.7559C73.543 95.9079 73.418 96.0478 73.315 96.1758C73.436 96.0758 73.573 95.9579 73.72 95.8119L74.2 95.3369L74.255 96.7098L74.129 96.8069C73.896 96.9779 73.647 97.1969 73.405 97.4379C73.014 97.8289 72.756 98.1679 72.608 98.4009C72.845 98.2539 73.181 97.9959 73.572 97.6049L74.252 96.8948L74.335 97.5059C74.479 98.6259 74.703 99.0749 74.807 99.1909C74.91 99.0759 75.133 98.6268 75.277 97.5118L75.357 96.8948L76.022 97.5848C76.412 97.9808 76.749 98.2368 76.984 98.3868C76.836 98.1508 76.577 97.8148 76.186 97.4208C75.951 97.1878 75.709 96.9749 75.483 96.8039L75.357 96.7129L75.414 95.4739L75.884 95.9128C75.988 96.0148 76.087 96.0949 76.176 96.1699C76.069 96.0369 75.947 95.8989 75.791 95.7439L75.398 95.3779L75.388 95.2439C75.373 94.5989 75.323 93.9778 75.241 93.4438L75.188 93.1039C75.188 93.1039 76.221 93.1039 76.466 93.1039C76.59 92.8909 77.106 91.9958 77.106 91.9958L77.379 92.2189C77.733 92.5109 78.172 92.8229 78.642 93.1219L78.761 93.1968C78.761 93.1968 78.761 93.2178 78.764 93.2328C78.802 93.2518 79.368 93.5588 79.368 93.5588L80.019 93.9109L80.034 94.0768C80.055 94.3998 80.127 94.8039 80.24 95.2179C80.38 95.7479 80.547 96.1389 80.672 96.3859C80.662 96.1079 80.609 95.6918 80.463 95.1548C80.414 94.9648 80.357 94.7799 80.292 94.6009L80.064 93.9479L80.695 94.2309C81.838 94.7389 82.463 94.8169 82.648 94.7739C82.599 94.6309 82.338 94.2359 81.511 93.5909L81.029 93.2159L81.649 93.0588L81.705 93.0449C82.235 92.9019 82.627 92.7399 82.877 92.6089C82.594 92.6189 82.179 92.6729 81.644 92.8149C81.406 92.8819 81.176 92.9559 80.963 93.0369L80.823 93.0898L79.746 92.4039L80.334 92.2018C80.409 92.1768 80.476 92.1528 80.539 92.1288C80.375 92.1558 80.189 92.1909 79.98 92.2469L79.624 92.3528L79.51 92.2919C78.912 91.9679 78.321 91.6879 77.799 91.4919L77.47 91.3679C77.47 91.3679 78.052 90.3589 78.183 90.1389C78.057 89.9279 77.544 89.0339 77.544 89.0339L77.855 88.9059C78.271 88.7319 78.713 88.5188 79.166 88.2748L79.286 88.2119L79.41 88.2599C79.56 88.3149 79.72 88.3628 79.884 88.4048C80.094 88.4638 80.277 88.5009 80.442 88.5239C80.316 88.4759 80.17 88.4269 80 88.3779L79.364 88.1979L80.581 87.4239L80.728 87.4828C80.992 87.5948 81.301 87.7018 81.626 87.7878C82.163 87.9298 82.576 87.9859 82.856 87.9949C82.607 87.8669 82.219 87.7029 81.686 87.5609L80.747 87.3309L81.226 86.9509C82.079 86.2929 82.346 85.8899 82.397 85.7439C82.248 85.7139 81.767 85.7409 80.772 86.1509L80.199 86.3849L80.48 85.4359C80.622 84.8959 80.676 84.4819 80.684 84.2039C80.556 84.4499 80.395 84.8399 80.25 85.3729C80.162 85.7019 80.1 86.0259 80.066 86.3119L80.047 86.4679L78.775 87.1319L78.929 86.4919C78.971 86.3229 78.998 86.1789 79.021 86.0449C78.96 86.1999 78.9 86.3769 78.845 86.5859C78.802 86.7449 78.766 86.9059 78.738 87.0629L78.717 87.1938L78.603 87.2659C78.158 87.5389 77.748 87.8179 77.39 88.0929L77.12 88.3019C77.12 88.3019 76.592 87.3869 76.467 87.1729C76.217 87.1729 75.097 87.1729 75.097 87.1729L75.156 86.8259C75.226 86.4019 75.276 85.9239 75.305 85.4059L75.31 85.2739L75.41 85.1938C75.539 85.0848 75.666 84.9679 75.792 84.8419C75.947 84.6899 76.07 84.5469 76.177 84.4199C76.07 84.5049 75.958 84.6039 75.83 84.7239L75.336 85.2018L75.316 83.9059L75.439 83.8129C75.676 83.6369 75.937 83.4119 76.187 83.1589C76.578 82.7699 76.836 82.4319 76.985 82.1979C76.75 82.3449 76.413 82.6029 76.023 82.9969L75.324 83.7219L75.261 83.0768C75.134 81.7318 74.873 81.1099 74.739 80.9629C74.609 81.1029 74.359 81.6999 74.23 82.9819ZM73.094 92.7189L71.599 90.1359L73.176 87.4019H76.337L77.915 90.1359L76.337 92.8699H73.176L73.094 92.7189ZM78.776 93.3329C78.806 93.5529 78.851 93.8018 78.921 94.0508C78.976 94.2598 79.038 94.4379 79.096 94.5919C79.069 94.4299 79.036 94.2449 78.976 94.0369C78.976 94.0369 78.823 93.4829 78.777 93.3289L78.776 93.3329Z" fill="url(#paint19_radial_14_1564)"/>
<path d="M73.782 88.4419C73.702 88.5719 72.875 90.0029 72.8 90.1349C72.875 90.2639 73.702 91.6978 73.782 91.8268C73.931 91.8268 75.584 91.8268 75.735 91.8268C75.811 91.6968 76.636 90.2629 76.712 90.1349C76.637 90.0029 75.812 88.5719 75.735 88.4419C75.584 88.4419 73.931 88.4419 73.782 88.4419Z" fill="url(#paint20_radial_14_1564)"/>
<path d="M88.355 73.008C88.315 72.857 87.728 72.876 87.039 73.062C86.86 73.111 86.694 73.162 86.542 73.222C86.446 73.158 86.346 73.093 86.242 73.029C86.651 72.891 86.938 72.722 86.911 72.623C86.88 72.501 86.413 72.518 85.876 72.662C85.815 72.679 85.757 72.698 85.698 72.713C85.26 72.472 84.841 72.278 84.476 72.14L84.909 71.387L84.521 70.717C84.811 70.598 85.127 70.444 85.456 70.268C85.563 70.308 85.682 70.343 85.807 70.375C86.348 70.521 86.812 70.538 86.845 70.418C86.873 70.301 86.502 70.101 85.998 69.955C86.128 69.879 86.252 69.798 86.369 69.719C86.555 69.798 86.78 69.879 87.027 69.943C87.71 70.128 88.301 70.151 88.343 69.997C88.388 69.843 87.863 69.566 87.175 69.384C87.091 69.362 87.007 69.34 86.928 69.321C87.564 68.832 87.926 68.391 87.815 68.198C87.702 68.004 87.146 68.1 86.403 68.405C86.429 68.323 86.454 68.237 86.479 68.148C86.661 67.461 86.687 66.874 86.53 66.833C86.375 66.791 86.097 67.314 85.917 67.997C85.85 68.248 85.802 68.482 85.779 68.687C85.652 68.749 85.527 68.815 85.394 68.887C85.52 68.382 85.532 67.959 85.414 67.929C85.293 67.897 85.079 68.306 84.933 68.845C84.904 68.971 84.874 69.091 84.856 69.198C84.532 69.398 84.237 69.599 83.986 69.792L83.591 69.105H82.757C82.806 68.806 82.843 68.461 82.862 68.084C82.951 68.01 83.047 67.923 83.142 67.829C83.538 67.431 83.788 67.04 83.698 66.951C83.611 66.865 83.252 67.086 82.881 67.449C82.879 67.339 82.876 67.232 82.872 67.127C83.04 67.003 83.229 66.841 83.42 66.65C83.92 66.149 84.237 65.649 84.124 65.538C84.013 65.423 83.513 65.737 83.009 66.239C82.946 66.304 82.888 66.365 82.834 66.428C82.737 65.436 82.518 64.74 82.261 64.74C82.008 64.74 81.791 65.405 81.696 66.359C81.663 66.324 81.628 66.287 81.593 66.252C81.089 65.75 80.59 65.433 80.477 65.548C80.363 65.661 80.681 66.158 81.18 66.663C81.344 66.823 81.504 66.965 81.649 67.079C81.648 67.202 81.643 67.325 81.643 67.453C81.269 67.093 80.916 66.877 80.829 66.959C80.741 67.048 80.988 67.444 81.385 67.839C81.476 67.933 81.571 68.018 81.662 68.09C81.679 68.464 81.717 68.808 81.765 69.105H80.955L80.577 69.757C80.227 69.465 79.768 69.143 79.241 68.837C79.223 68.731 79.2 68.617 79.168 68.502C79.02 67.962 78.806 67.552 78.685 67.585C78.567 67.614 78.58 68.038 78.705 68.54C78.572 68.471 78.446 68.411 78.321 68.35C78.299 68.147 78.25 67.907 78.183 67.653C77.998 66.967 77.722 66.444 77.57 66.487C77.416 66.526 77.439 67.118 77.622 67.804C77.649 67.904 77.68 68 77.709 68.093C77.076 67.857 76.613 67.797 76.514 67.972C76.409 68.148 76.7 68.526 77.234 68.961C77.132 68.984 77.03 69.011 76.926 69.036C76.238 69.22 75.715 69.497 75.757 69.649C75.798 69.804 76.388 69.782 77.074 69.597C77.335 69.526 77.57 69.447 77.762 69.36C77.877 69.44 77.999 69.522 78.125 69.603C77.609 69.749 77.225 69.954 77.258 70.074C77.292 70.194 77.753 70.175 78.294 70.032C78.421 69.996 78.54 69.959 78.65 69.919C79.169 70.215 79.667 70.449 80.089 70.603L79.635 71.386L80.055 72.111C79.746 72.229 79.403 72.383 79.041 72.573C78.955 72.547 78.864 72.517 78.769 72.49C78.229 72.346 77.767 72.329 77.732 72.452C77.705 72.558 78.03 72.743 78.486 72.884C78.405 72.933 78.327 72.981 78.251 73.03C78.087 72.964 77.901 72.903 77.699 72.848C77.013 72.664 76.423 72.642 76.383 72.796C76.342 72.952 76.864 73.227 77.549 73.408C77.581 73.419 77.612 73.426 77.647 73.435C76.885 73.988 76.432 74.495 76.556 74.711C76.687 74.938 77.426 74.77 78.356 74.335C78.326 74.43 78.297 74.526 78.268 74.632C78.085 75.318 78.062 75.908 78.215 75.949C78.37 75.99 78.645 75.468 78.826 74.78C78.905 74.503 78.955 74.241 78.971 74.026C79.056 73.979 79.137 73.932 79.22 73.884C79.22 73.887 79.217 73.89 79.217 73.892C79.074 74.433 79.056 74.896 79.175 74.931C79.296 74.963 79.513 74.552 79.659 74.011C79.703 73.85 79.732 73.695 79.752 73.558C80.055 73.363 80.328 73.166 80.555 72.981L80.955 73.67H81.8C81.745 74.025 81.706 74.439 81.696 74.889C81.596 74.971 81.489 75.065 81.384 75.172C80.988 75.568 80.741 75.958 80.828 76.049C80.915 76.137 81.303 75.895 81.695 75.507C81.696 75.636 81.704 75.764 81.71 75.89C81.546 76.013 81.364 76.167 81.18 76.35C80.681 76.854 80.363 77.351 80.477 77.467C80.59 77.577 81.089 77.263 81.593 76.761C81.656 76.7 81.716 76.634 81.772 76.573C81.879 77.395 82.079 77.95 82.31 77.95C82.537 77.95 82.739 77.396 82.845 76.576C82.897 76.633 82.951 76.691 83.01 76.751C83.514 77.252 84.014 77.566 84.125 77.451C84.238 77.34 83.921 76.84 83.421 76.339C83.244 76.158 83.068 76.007 82.904 75.887C82.91 75.786 82.917 75.687 82.921 75.581C83.28 75.918 83.619 76.124 83.699 76.038C83.789 75.949 83.539 75.559 83.143 75.162C83.071 75.09 82.996 75.019 82.921 74.956C82.912 74.48 82.875 74.042 82.817 73.67H83.591L83.975 73.002C84.227 73.208 84.535 73.431 84.88 73.65C84.898 73.804 84.933 73.989 84.986 74.181C85.13 74.722 85.346 75.132 85.469 75.1C85.59 75.066 85.572 74.604 85.424 74.064C85.413 74.028 85.405 73.994 85.397 73.96C85.517 74.031 85.638 74.094 85.755 74.157C85.774 74.388 85.823 74.68 85.908 74.995C86.09 75.681 86.365 76.205 86.519 76.164C86.675 76.124 86.652 75.532 86.469 74.845C86.43 74.702 86.388 74.567 86.343 74.439C87.203 74.821 87.866 74.961 87.99 74.745C88.1 74.556 87.746 74.124 87.125 73.638C87.146 73.634 87.167 73.63 87.186 73.623C87.875 73.436 88.397 73.167 88.355 73.008ZM83.256 73.092H81.287L80.302 71.386L81.287 69.68H83.256L84.239 71.386L83.256 73.092Z" fill="url(#paint21_radial_14_1564)"/>
<path d="M81.9 66.3771L81.857 66.8231L81.444 66.395C81.171 66.124 80.934 65.9421 80.769 65.8381C80.873 66.0031 81.056 66.2391 81.327 66.5131C81.475 66.6641 81.631 66.7991 81.777 66.9141L81.857 66.973L81.843 67.9301L81.498 67.6011C81.412 67.5191 81.33 67.4491 81.26 67.3911C81.331 67.4811 81.42 67.5791 81.528 67.6871C81.614 67.7751 81.703 67.8551 81.791 67.9271L81.862 67.9871L81.867 68.0801C81.885 68.4371 81.919 68.773 81.97 69.066L82.011 69.311C82.011 69.311 81.247 69.311 81.075 69.311C80.99 69.456 80.634 70.074 80.634 70.074L80.444 69.915C80.09 69.618 79.638 69.306 79.137 69.017L79.059 68.9691L79.038 68.873L78.966 68.5551C78.929 68.4091 78.885 68.284 78.843 68.178C78.86 68.27 78.878 68.3701 78.906 68.4901L79.015 68.9241L78.133 68.4901L78.114 68.374C78.091 68.174 78.049 67.9401 77.982 67.7051C77.884 67.3321 77.77 67.0601 77.68 66.8881C77.685 67.0831 77.723 67.3731 77.822 67.7471L78.028 68.428L77.636 68.287C77.07 68.075 76.798 68.0641 76.704 68.0861C76.737 68.1751 76.891 68.4121 77.364 68.8021L77.69 69.0701L76.977 69.2371C76.604 69.3381 76.332 69.449 76.158 69.543C76.355 69.535 76.644 69.498 77.021 69.399C77.261 69.333 77.488 69.256 77.676 69.173L77.782 69.1251L78.613 69.678L78.18 69.8051C78.052 69.8421 77.943 69.878 77.847 69.913C77.964 69.895 78.09 69.8691 78.238 69.8301C78.355 69.8001 78.47 69.7631 78.577 69.7241L78.67 69.691L78.752 69.7391C79.246 70.0201 79.734 70.2491 80.158 70.4061L80.39 70.4901C80.39 70.4901 79.967 71.2301 79.874 71.3851C79.967 71.5371 80.354 72.2181 80.354 72.2181L80.126 72.3041C79.824 72.4201 79.482 72.576 79.135 72.756L79.062 72.796L78.713 72.6901C78.567 72.6511 78.44 72.6261 78.324 72.6071C78.39 72.6321 78.46 72.6591 78.545 72.6821L78.983 72.8201L78.269 73.256L78.172 73.2211C78.008 73.1571 77.83 73.0981 77.644 73.0471C77.27 72.9471 76.977 72.91 76.783 72.902C76.955 72.992 77.227 73.1071 77.6 73.2051L78.123 73.342L77.768 73.6021C77.055 74.1191 76.789 74.471 76.75 74.598C76.89 74.629 77.377 74.56 78.268 74.145L78.687 73.952L78.467 74.684C78.365 75.058 78.33 75.3491 78.321 75.5441C78.413 75.3731 78.527 75.1011 78.626 74.7271C78.695 74.4701 78.743 74.2191 78.766 74.0031L78.774 73.895L79.545 73.462L79.419 73.946C79.379 74.092 79.351 74.2201 79.334 74.3361C79.375 74.2281 79.419 74.1031 79.457 73.9581C79.495 73.8091 79.528 73.664 79.545 73.527L79.563 73.434L79.64 73.3831C79.933 73.1931 80.198 73.0021 80.424 72.8171L80.615 72.662C80.615 72.662 80.987 73.311 81.075 73.462C81.251 73.462 82.042 73.462 82.042 73.462L82.005 73.702C81.95 74.054 81.915 74.468 81.902 74.894V74.991L81.828 75.05C81.727 75.131 81.629 75.221 81.53 75.321C81.424 75.428 81.337 75.5271 81.262 75.6141C81.353 75.5441 81.446 75.462 81.549 75.358L81.884 75.0261L81.92 75.986L81.834 76.0551C81.672 76.1751 81.497 76.329 81.328 76.496C81.057 76.77 80.874 77.0071 80.77 77.1691C80.935 77.0681 81.171 76.888 81.445 76.613L81.918 76.1151L81.978 76.545C82.081 77.327 82.235 77.642 82.309 77.725C82.378 77.642 82.536 77.328 82.639 76.551L82.694 76.1151L83.157 76.6021C83.431 76.8741 83.666 77.0551 83.833 77.1591C83.73 76.9941 83.548 76.7611 83.274 76.4841C83.108 76.3221 82.94 76.173 82.781 76.053L82.695 75.988L82.731 75.124L83.061 75.4301C83.136 75.4981 83.204 75.5571 83.266 75.6091C83.191 75.5171 83.103 75.42 82.996 75.311L82.722 75.053L82.714 74.9611C82.704 74.5091 82.667 74.075 82.611 73.702L82.574 73.462C82.574 73.462 83.298 73.462 83.47 73.462C83.554 73.314 83.919 72.688 83.919 72.688L84.108 72.842C84.357 73.047 84.665 73.266 84.993 73.473L85.074 73.527C85.074 73.527 85.077 73.542 85.077 73.551C85.103 73.565 85.502 73.7791 85.502 73.7791L85.958 74.0281L85.969 74.145C85.983 74.371 86.033 74.655 86.113 74.941C86.212 75.315 86.326 75.587 86.414 75.759C86.408 75.565 86.371 75.276 86.27 74.899C86.236 74.765 86.195 74.635 86.15 74.512L85.989 74.0551L86.431 74.248C87.228 74.606 87.666 74.661 87.796 74.634C87.759 74.532 87.58 74.2541 87 73.8041L86.662 73.5411L87.097 73.431L87.132 73.4221C87.509 73.3201 87.782 73.205 87.953 73.118C87.759 73.123 87.467 73.161 87.093 73.262C86.928 73.307 86.768 73.358 86.615 73.415L86.52 73.4531L85.764 72.9681L86.177 72.8301C86.23 72.8121 86.275 72.793 86.32 72.777C86.209 72.796 86.076 72.82 85.93 72.861L85.68 72.9351L85.601 72.894C85.181 72.665 84.769 72.4681 84.401 72.3311L84.172 72.2451C84.172 72.2451 84.58 71.5371 84.671 71.3831C84.583 71.2371 84.223 70.613 84.223 70.613L84.443 70.5211C84.732 70.3991 85.041 70.2511 85.359 70.0801L85.441 70.037L85.529 70.069C85.637 70.107 85.75 70.1411 85.86 70.1721C86.009 70.2131 86.137 70.2381 86.254 70.2571C86.164 70.2231 86.06 70.1891 85.941 70.1531L85.497 70.0261L86.349 69.4841L86.453 69.525C86.639 69.604 86.854 69.678 87.083 69.741C87.457 69.841 87.749 69.8781 87.942 69.8851C87.772 69.7931 87.499 69.68 87.125 69.582L86.464 69.4221L86.804 69.1511C87.399 68.6941 87.586 68.413 87.62 68.308C87.516 68.289 87.181 68.307 86.485 68.595L86.083 68.7551L86.279 68.0911C86.378 67.7161 86.417 67.422 86.426 67.23C86.333 67.404 86.221 67.6751 86.12 68.0491C86.058 68.2761 86.012 68.5061 85.99 68.7051L85.976 68.816L85.087 69.2791L85.195 68.832C85.225 68.714 85.243 68.614 85.256 68.522C85.219 68.626 85.174 68.7511 85.137 68.8961C85.108 69.0081 85.081 69.1231 85.062 69.2311L85.043 69.326L84.966 69.3751C84.652 69.5661 84.369 69.7621 84.114 69.9551L83.928 70.0991C83.928 70.0991 83.557 69.4611 83.471 69.3121C83.293 69.3121 82.512 69.3121 82.512 69.3121L82.552 69.0671C82.602 68.7711 82.638 68.435 82.656 68.074L82.662 67.9821L82.729 67.926C82.818 67.851 82.909 67.7671 82.997 67.6801C83.103 67.5711 83.191 67.472 83.267 67.379C83.192 67.442 83.111 67.513 83.024 67.597L82.678 67.931L82.664 67.022L82.75 66.957C82.917 66.837 83.096 66.6791 83.274 66.5001C83.547 66.2281 83.729 65.993 83.833 65.829C83.666 65.932 83.432 66.1131 83.157 66.3851L82.668 66.895L82.625 66.446C82.536 65.504 82.355 65.0671 82.262 64.9661C82.171 65.0641 81.993 65.4811 81.9 66.3771ZM81.108 73.1951L80.062 71.3851L81.166 69.473H83.378L84.482 71.3851L83.378 73.3H81.166L81.108 73.1951ZM85.086 73.6271C85.107 73.7791 85.139 73.953 85.187 74.131C85.227 74.276 85.269 74.399 85.311 74.506C85.292 74.393 85.266 74.2651 85.227 74.1201C85.227 74.1201 85.118 73.73 85.086 73.621V73.6271Z" fill="url(#paint22_radial_14_1564)"/>
<path d="M81.589 70.2009C81.534 70.2909 80.955 71.2949 80.902 71.3859C80.955 71.4799 81.534 72.4819 81.589 72.5729C81.694 72.5729 82.851 72.5729 82.958 72.5729C83.009 72.4819 83.586 71.4799 83.643 71.3859C83.586 71.2949 83.009 70.2909 82.958 70.2009C82.85 70.2009 81.694 70.2009 81.589 70.2009Z" fill="url(#paint23_radial_14_1564)"/>
<path d="M28.159 61.1071C28.099 60.8851 27.262 60.9171 26.286 61.1801C26.032 61.2501 25.795 61.3261 25.582 61.4091C25.445 61.3151 25.302 61.224 25.153 61.134C25.739 60.94 26.144 60.6991 26.106 60.5541C26.056 60.3831 25.399 60.4081 24.632 60.6141C24.546 60.6361 24.464 60.659 24.385 60.686C23.76 60.343 23.161 60.0671 22.643 59.8721L23.261 58.803L22.711 57.847C23.123 57.679 23.571 57.4631 24.041 57.2111C24.192 57.2641 24.357 57.317 24.538 57.366C25.303 57.571 25.963 57.598 26.007 57.425C26.052 57.26 25.524 56.973 24.809 56.77C24.992 56.66 25.169 56.546 25.335 56.436C25.6 56.546 25.92 56.657 26.27 56.751C27.242 57.014 28.08 57.047 28.14 56.824C28.202 56.607 27.457 56.2141 26.481 55.9531C26.363 55.9221 26.245 55.8941 26.133 55.8701C27.033 55.1681 27.55 54.548 27.389 54.272C27.228 53.995 26.438 54.131 25.382 54.561C25.42 54.446 25.455 54.3261 25.491 54.2001C25.75 53.2261 25.783 52.3871 25.561 52.3281C25.343 52.2701 24.953 53.014 24.69 53.988C24.597 54.341 24.532 54.6771 24.501 54.9631C24.32 55.0521 24.137 55.15 23.953 55.249C24.131 54.53 24.147 53.933 23.98 53.892C23.808 53.841 23.502 54.4271 23.295 55.1951C23.252 55.3681 23.211 55.5381 23.185 55.6931C22.728 55.9741 22.31 56.262 21.953 56.537L21.389 55.559H20.205C20.276 55.138 20.325 54.645 20.355 54.113C20.483 54.006 20.617 53.8841 20.753 53.7471C21.313 53.1891 21.668 52.629 21.537 52.501C21.419 52.382 20.907 52.6941 20.376 53.2081C20.376 53.0551 20.372 52.9001 20.368 52.7521C20.605 52.5741 20.876 52.344 21.146 52.076C21.857 51.36 22.306 50.6531 22.145 50.4921C21.984 50.3311 21.277 50.776 20.561 51.493C20.472 51.58 20.389 51.6711 20.309 51.7571C20.176 50.3491 19.864 49.363 19.496 49.363C19.138 49.363 18.831 50.306 18.696 51.662C18.646 51.611 18.597 51.561 18.547 51.509C17.834 50.797 17.123 50.348 16.963 50.509C16.804 50.671 17.249 51.3801 17.963 52.0941C18.193 52.3241 18.417 52.5231 18.628 52.6851C18.623 52.8601 18.619 53.0371 18.619 53.2161C18.09 52.7071 17.582 52.399 17.463 52.519C17.335 52.644 17.686 53.202 18.251 53.762C18.382 53.898 18.516 54.018 18.642 54.121C18.67 54.649 18.721 55.14 18.791 55.561H17.641L17.104 56.491C16.61 56.076 15.955 55.618 15.209 55.184C15.182 55.031 15.146 54.871 15.103 54.707C14.898 53.942 14.589 53.3551 14.414 53.4041C14.252 53.4481 14.268 54.045 14.442 54.761C14.259 54.665 14.077 54.5761 13.899 54.4921C13.868 54.2021 13.802 53.8611 13.704 53.5001C13.444 52.5261 13.054 51.7821 12.833 51.8441C12.614 51.9021 12.647 52.7401 12.909 53.7141C12.947 53.8571 12.987 53.995 13.032 54.124C12.131 53.788 11.471 53.706 11.331 53.954C11.184 54.206 11.599 54.744 12.353 55.363C12.213 55.393 12.066 55.4281 11.914 55.4681C10.94 55.7291 10.198 56.1171 10.258 56.3391C10.314 56.5581 11.154 56.525 12.131 56.264C12.497 56.165 12.833 56.0501 13.104 55.9271C13.268 56.0441 13.444 56.1601 13.625 56.2711C12.892 56.4761 12.344 56.7711 12.39 56.9371C12.436 57.1111 13.095 57.086 13.865 56.881C14.044 56.83 14.213 56.777 14.367 56.723C15.105 57.139 15.814 57.4701 16.412 57.6901L15.769 58.8051L16.36 59.8331C15.924 59.9981 15.437 60.2191 14.922 60.4891C14.802 60.4471 14.674 60.409 14.537 60.371C13.769 60.167 13.114 60.139 13.063 60.314C13.021 60.467 13.487 60.7291 14.132 60.9301C14.018 60.9961 13.905 61.0671 13.796 61.1331C13.567 61.0421 13.302 60.955 13.015 60.879C12.041 60.617 11.202 60.5841 11.142 60.8041C11.084 61.0241 11.828 61.413 12.802 61.675C12.849 61.688 12.894 61.6991 12.94 61.7111C11.86 62.4941 11.214 63.217 11.393 63.524C11.578 63.845 12.629 63.6081 13.95 62.9921C13.906 63.1271 13.864 63.265 13.824 63.413C13.564 64.387 13.532 65.225 13.751 65.283C13.971 65.345 14.359 64.6 14.622 63.623C14.725 63.231 14.796 62.858 14.823 62.55C14.941 62.488 15.058 62.4221 15.175 62.3541C15.175 62.3561 15.172 62.3611 15.172 62.3651C14.965 63.1311 14.941 63.7901 15.115 63.8381C15.285 63.8851 15.592 63.2991 15.799 62.5341C15.861 62.3051 15.904 62.0851 15.934 61.8881C16.364 61.6121 16.748 61.332 17.074 61.069L17.64 62.0491H18.838C18.761 62.5531 18.707 63.1431 18.692 63.7811C18.549 63.8941 18.4 64.03 18.25 64.181C17.685 64.742 17.334 65.3 17.462 65.426C17.586 65.553 18.134 65.21 18.691 64.655C18.696 64.84 18.704 65.022 18.712 65.196C18.48 65.371 18.222 65.5941 17.963 65.8521C17.249 66.5671 16.804 67.278 16.963 67.436C17.123 67.599 17.834 67.153 18.547 66.436C18.635 66.348 18.721 66.2601 18.803 66.1691C18.954 67.3381 19.237 68.1271 19.563 68.1271C19.89 68.1271 20.173 67.339 20.324 66.173C20.4 66.255 20.478 66.3401 20.561 66.4191C21.277 67.1341 21.984 67.58 22.145 67.42C22.306 67.26 21.857 66.5511 21.146 65.8361C20.892 65.5841 20.642 65.366 20.413 65.194C20.422 65.053 20.43 64.911 20.433 64.759C20.944 65.241 21.424 65.5271 21.536 65.4111C21.667 65.2841 21.311 64.7271 20.752 64.1661C20.646 64.0621 20.539 63.962 20.437 63.874C20.422 63.199 20.371 62.574 20.289 62.046H21.388L21.937 61.1C22.296 61.394 22.729 61.705 23.221 62.019C23.246 62.24 23.295 62.5 23.369 62.775C23.575 63.54 23.88 64.1261 24.055 64.0781C24.227 64.0321 24.2 63.373 23.996 62.605C23.982 62.554 23.969 62.5061 23.955 62.4581C24.129 62.5581 24.299 62.649 24.469 62.738C24.488 63.065 24.56 63.483 24.681 63.928C24.942 64.903 25.331 65.644 25.552 65.587C25.773 65.525 25.738 64.6901 25.477 63.7131C25.425 63.5101 25.362 63.317 25.3 63.139C26.517 63.682 27.462 63.877 27.639 63.571C27.796 63.299 27.295 62.688 26.409 61.999C26.44 61.994 26.47 61.987 26.5 61.98C27.475 61.718 28.219 61.3271 28.159 61.1071ZM20.912 61.2241H18.116L16.718 58.8021L18.116 56.3801H20.912L22.313 58.8021L20.912 61.2241Z" fill="url(#paint24_radial_14_1564)"/>
<path d="M18.993 51.688L18.928 52.321L18.339 51.7141C17.948 51.3261 17.613 51.068 17.381 50.921C17.527 51.155 17.783 51.4901 18.173 51.8801C18.384 52.0911 18.604 52.288 18.812 52.447L18.928 52.537L18.905 53.895L18.415 53.428C18.294 53.308 18.182 53.2091 18.078 53.1251C18.181 53.2541 18.306 53.3951 18.46 53.5491C18.583 53.6721 18.707 53.7871 18.833 53.8911L18.933 53.9761L18.94 54.1041C18.966 54.6181 19.016 55.089 19.086 55.509L19.143 55.853C19.143 55.853 18.061 55.853 17.814 55.853C17.693 56.061 17.187 56.939 17.187 56.939L16.917 56.712C16.416 56.29 15.77 55.8511 15.062 55.4351L14.952 55.368L14.92 55.233L14.818 54.7811C14.763 54.5741 14.704 54.399 14.643 54.246C14.666 54.377 14.694 54.5191 14.736 54.6871L14.887 55.3051L13.632 54.6871L13.608 54.524C13.577 54.236 13.511 53.909 13.424 53.574C13.281 53.048 13.119 52.6581 12.989 52.4111C12.999 52.6891 13.053 53.103 13.194 53.636L13.485 54.5991L12.928 54.4011C12.123 54.1001 11.739 54.085 11.607 54.113C11.649 54.243 11.867 54.58 12.543 55.131L13.004 55.5131L11.995 55.754C11.464 55.893 11.076 56.056 10.831 56.184C11.109 56.171 11.522 56.1181 12.056 55.9761C12.398 55.8861 12.719 55.7751 12.986 55.6561L13.135 55.592L14.32 56.381L13.706 56.558C13.521 56.61 13.366 56.661 13.233 56.712C13.391 56.688 13.578 56.6481 13.788 56.5931C13.952 56.5491 14.113 56.4991 14.267 56.4451L14.396 56.397L14.515 56.4631C15.217 56.8631 15.911 57.191 16.514 57.41L16.846 57.533C16.846 57.533 16.239 58.5821 16.11 58.8041C16.237 59.0191 16.793 59.9841 16.793 59.9841L16.467 60.108C16.037 60.272 15.549 60.4951 15.062 60.7521L14.955 60.808L14.462 60.658C14.256 60.602 14.071 60.5651 13.912 60.5411C14.005 60.5781 14.105 60.612 14.221 60.65L14.849 60.8411L13.833 61.46L13.692 61.412C13.461 61.318 13.209 61.2351 12.943 61.1671C12.408 61.0231 11.996 60.9691 11.718 60.9581C11.964 61.0881 12.352 61.249 12.884 61.392L13.624 61.5801L13.116 61.949C12.105 62.686 11.726 63.1841 11.672 63.3651C11.872 63.4081 12.565 63.3141 13.826 62.7241L14.424 62.446L14.111 63.488C13.967 64.021 13.915 64.4331 13.905 64.7131C14.035 64.4671 14.194 64.0801 14.338 63.5491C14.436 63.1841 14.503 62.828 14.533 62.522L14.547 62.368L15.642 61.7551L15.462 62.4421C15.404 62.6501 15.366 62.8361 15.343 62.9951C15.402 62.8431 15.462 62.6651 15.514 62.4581C15.572 62.2501 15.617 62.0431 15.644 61.8491L15.665 61.7161L15.775 61.6431C16.192 61.3751 16.566 61.1051 16.889 60.8411L17.161 60.6201C17.161 60.6201 17.688 61.543 17.814 61.756C18.065 61.756 19.186 61.756 19.186 61.756L19.132 62.0961C19.056 62.5991 19.007 63.183 18.99 63.79L18.985 63.9271L18.881 64.014C18.74 64.126 18.599 64.254 18.459 64.394C18.308 64.547 18.182 64.685 18.081 64.813C18.204 64.713 18.338 64.595 18.485 64.452L18.962 63.9761L19.017 65.3411L18.891 65.439C18.661 65.608 18.414 65.8281 18.173 66.0681C17.783 66.4561 17.526 66.794 17.381 67.027C17.613 66.88 17.948 66.621 18.339 66.233L19.011 65.5261L19.099 66.1351C19.242 67.2471 19.463 67.6941 19.564 67.8121C19.669 67.6941 19.889 67.249 20.034 66.139L20.113 65.5261L20.773 66.2161C21.161 66.6061 21.495 66.861 21.731 67.009C21.583 66.774 21.327 66.441 20.936 66.05C20.705 65.819 20.462 65.6061 20.238 65.4371L20.113 65.3441L20.17 64.113L20.638 64.551C20.743 64.652 20.836 64.733 20.926 64.803C20.823 64.676 20.697 64.5351 20.544 64.3821L20.153 64.0181L20.142 63.887C20.129 63.244 20.078 62.626 19.997 62.098L19.944 61.7581C19.944 61.7581 20.972 61.7581 21.217 61.7581C21.336 61.5461 21.854 60.6541 21.854 60.6541L22.122 60.876C22.477 61.168 22.911 61.477 23.38 61.774L23.498 61.85C23.498 61.85 23.498 61.871 23.501 61.884C23.536 61.901 24.102 62.209 24.102 62.209L24.749 62.559L24.763 62.7261C24.784 63.0451 24.86 63.448 24.97 63.855C25.107 64.386 25.271 64.7771 25.4 65.0211C25.388 64.7441 25.336 64.3311 25.192 63.7971C25.143 63.6081 25.086 63.4221 25.024 63.2421L24.794 62.597L25.422 62.8751C26.555 63.3781 27.178 63.4571 27.363 63.4171C27.314 63.2751 27.057 62.8841 26.231 62.2391L25.753 61.8691L26.368 61.7111L26.426 61.697C26.953 61.556 27.341 61.3951 27.586 61.2651C27.311 61.2761 26.897 61.3271 26.363 61.4681C26.127 61.5351 25.898 61.605 25.686 61.688L25.545 61.741L24.475 61.056L25.063 60.8571C25.133 60.8341 25.202 60.8091 25.264 60.7861C25.102 60.8091 24.917 60.8481 24.707 60.9041L24.355 61.0081L24.242 60.947C23.648 60.625 23.059 60.347 22.54 60.152L22.212 60.0281C22.212 60.0281 22.794 59.026 22.919 58.806C22.8 58.594 22.286 57.7081 22.286 57.7081L22.598 57.579C23.011 57.407 23.45 57.196 23.9 56.954L24.018 56.8901L24.143 56.9371C24.29 56.9921 24.452 57.041 24.613 57.085C24.824 57.14 25.005 57.177 25.171 57.201C25.042 57.153 24.9 57.1041 24.731 57.0571L24.098 56.8751L25.305 56.1071L25.453 56.1661C25.717 56.2781 26.025 56.3831 26.348 56.4681C26.881 56.6121 27.294 56.664 27.571 56.676C27.324 56.546 26.936 56.3851 26.408 56.2451L25.473 56.0151L25.952 55.6381C26.798 54.9821 27.063 54.581 27.116 54.434C26.966 54.404 26.489 54.4341 25.499 54.8381L24.929 55.071L25.206 54.1251C25.349 53.5941 25.402 53.1811 25.415 52.9031C25.282 53.1471 25.124 53.535 24.979 54.066C24.892 54.394 24.83 54.7171 24.797 55.0001L24.777 55.1561L23.512 55.8171L23.665 55.1791C23.706 55.0121 23.734 54.869 23.755 54.735C23.697 54.888 23.638 55.065 23.583 55.27C23.539 55.433 23.504 55.5921 23.477 55.7441L23.454 55.8801L23.341 55.9481C22.899 56.2191 22.492 56.497 22.134 56.774L21.864 56.978C21.864 56.978 21.344 56.0691 21.219 55.8561C20.97 55.8561 19.857 55.8561 19.857 55.8561L19.913 55.512C19.986 55.091 20.035 54.6151 20.061 54.0991L20.068 53.97L20.167 53.886C20.294 53.781 20.421 53.664 20.547 53.54C20.699 53.386 20.825 53.245 20.929 53.116C20.826 53.203 20.711 53.301 20.585 53.423L20.094 53.8981L20.074 52.608L20.197 52.5151C20.434 52.3411 20.688 52.1181 20.939 51.8651C21.33 51.4771 21.585 51.141 21.734 50.908C21.498 51.054 21.164 51.3121 20.776 51.7001L20.082 52.426L20.017 51.7861C19.893 50.4451 19.635 49.8271 19.501 49.6801C19.369 49.8191 19.121 50.416 18.993 51.688ZM17.86 61.373L16.377 58.8021L17.947 56.085H21.086L22.654 58.8021L21.086 61.519H17.947L17.86 61.373ZM23.511 61.9811C23.541 62.1981 23.588 62.447 23.657 62.697C23.711 62.904 23.771 63.0791 23.831 63.2321C23.803 63.0711 23.768 62.889 23.711 62.681C23.711 62.681 23.556 62.1301 23.512 61.9761V61.9811H23.511Z" fill="url(#paint25_radial_14_1564)"/>
<path d="M18.542 57.1171C18.466 57.2481 17.646 58.6721 17.57 58.8021C17.646 58.9331 18.466 60.3561 18.542 60.4871C18.693 60.4871 20.339 60.4871 20.486 60.4871C20.562 60.3561 21.384 58.9331 21.46 58.8021C21.385 58.6721 20.563 57.2481 20.486 57.1171C20.339 57.1171 18.693 57.1171 18.542 57.1171Z" fill="url(#paint26_radial_14_1564)"/>
<defs>
<radialGradient id="paint0_radial_14_1564" cx="0" cy="0" r="1" gradientUnits="userSpaceOnUse" gradientTransform="translate(68.1087 68.0593) scale(77.7599 77.7598)">
<stop offset="0.0056" stop-color="#A9D1EF"/>
<stop offset="0.5393" stop-color="#1998D5"/>
<stop offset="1" stop-color="#0073BB"/>
</radialGradient>
<radialGradient id="paint1_radial_14_1564" cx="0" cy="0" r="1" gradientUnits="userSpaceOnUse" gradientTransform="translate(81.8287 19.5134) scale(49.2516)">
<stop offset="0.0056" stop-color="#A9D1EF"/>
<stop offset="0.5393" stop-color="#1998D5"/>
<stop offset="1" stop-color="#0073BB"/>
</radialGradient>
<radialGradient id="paint2_radial_14_1564" cx="0" cy="0" r="1" gradientUnits="userSpaceOnUse" gradientTransform="translate(81.7063 22.7978) scale(59.0591 59.0591)">
<stop stop-color="#CBEBFB"/>
<stop offset="0.7767" stop-color="#BDCDDA"/>
<stop offset="1" stop-color="#B9C4D0"/>
</radialGradient>
<radialGradient id="paint3_radial_14_1564" cx="0" cy="0" r="1" gradientUnits="userSpaceOnUse" gradientTransform="translate(44.1226 48.8856) scale(50.3897 50.3896)">
<stop offset="0.0056" stop-color="#A9D1EF"/>
<stop offset="0.5393" stop-color="#1998D5"/>
<stop offset="1" stop-color="#0073BB"/>
</radialGradient>
<radialGradient id="paint4_radial_14_1564" cx="0" cy="0" r="1" gradientUnits="userSpaceOnUse" gradientTransform="translate(53.0133 17.4272) scale(31.9165 31.9165)">
<stop offset="0.0056" stop-color="#A9D1EF"/>
<stop offset="0.5393" stop-color="#1998D5"/>
<stop offset="1" stop-color="#0073BB"/>
</radialGradient>
<radialGradient id="paint5_radial_14_1564" cx="0" cy="0" r="1" gradientUnits="userSpaceOnUse" gradientTransform="translate(52.5264 19.2763) scale(38.2678)">
<stop stop-color="#CBEBFB"/>
<stop offset="0.7767" stop-color="#BDCDDA"/>
<stop offset="1" stop-color="#B9C4D0"/>
</radialGradient>
<radialGradient id="paint6_radial_14_1564" cx="0" cy="0" r="1" gradientUnits="userSpaceOnUse" gradientTransform="translate(34.2548 74.2845) scale(16.6719 16.672)">
<stop offset="0.0056" stop-color="#A9D1EF"/>
<stop offset="0.5393" stop-color="#1998D5"/>
<stop offset="1" stop-color="#0073BB"/>
</radialGradient>
<radialGradient id="paint7_radial_14_1564" cx="0" cy="0" r="1" gradientUnits="userSpaceOnUse" gradientTransform="translate(40.8292 60.5721) scale(19.2004 19.2004)">
<stop offset="0.0056" stop-color="#A9D1EF"/>
<stop offset="0.5393" stop-color="#1998D5"/>
<stop offset="1" stop-color="#0073BB"/>
</radialGradient>
<radialGradient id="paint8_radial_14_1564" cx="0" cy="0" r="1" gradientUnits="userSpaceOnUse" gradientTransform="translate(37.0937 68.0021) scale(6.85996 6.85994)">
<stop offset="0.0056" stop-color="#A9D1EF"/>
<stop offset="0.5393" stop-color="#1998D5"/>
<stop offset="1" stop-color="#0073BB"/>
</radialGradient>
<radialGradient id="paint9_radial_14_1564" cx="0" cy="0" r="1" gradientUnits="userSpaceOnUse" gradientTransform="translate(56.1103 68.8976) scale(25.2694 25.2694)">
<stop offset="0.0056" stop-color="#A9D1EF"/>
<stop offset="0.5393" stop-color="#1998D5"/>
<stop offset="1" stop-color="#0073BB"/>
</radialGradient>
<radialGradient id="paint10_radial_14_1564" cx="0" cy="0" r="1" gradientUnits="userSpaceOnUse" gradientTransform="translate(66.0759 48.1146) scale(29.1026 29.1026)">
<stop offset="0.0056" stop-color="#A9D1EF"/>
<stop offset="0.5393" stop-color="#1998D5"/>
<stop offset="1" stop-color="#0073BB"/>
</radialGradient>
<radialGradient id="paint11_radial_14_1564" cx="0" cy="0" r="1" gradientUnits="userSpaceOnUse" gradientTransform="translate(60.7358 59.7193) scale(10.4003 10.4003)">
<stop offset="0.0056" stop-color="#A9D1EF"/>
<stop offset="0.5393" stop-color="#1998D5"/>
<stop offset="1" stop-color="#0073BB"/>
</radialGradient>
<radialGradient id="paint12_radial_14_1564" cx="0" cy="0" r="1" gradientUnits="userSpaceOnUse" gradientTransform="translate(17.5222 94.6136) scale(18.1245 18.1245)">
<stop offset="0.0056" stop-color="#A9D1EF"/>
<stop offset="0.5393" stop-color="#1998D5"/>
<stop offset="1" stop-color="#0073BB"/>
</radialGradient>
<radialGradient id="paint13_radial_14_1564" cx="0" cy="0" r="1" gradientUnits="userSpaceOnUse" gradientTransform="translate(24.6696 79.7063) scale(20.8734 20.8733)">
<stop offset="0.0056" stop-color="#A9D1EF"/>
<stop offset="0.5393" stop-color="#1998D5"/>
<stop offset="1" stop-color="#0073BB"/>
</radialGradient>
<radialGradient id="paint14_radial_14_1564" cx="0" cy="0" r="1" gradientUnits="userSpaceOnUse" gradientTransform="translate(20.683 87.854) scale(7.45776 7.45773)">
<stop offset="0.0056" stop-color="#A9D1EF"/>
<stop offset="0.5393" stop-color="#1998D5"/>
<stop offset="1" stop-color="#0073BB"/>
</radialGradient>
<radialGradient id="paint15_radial_14_1564" cx="0" cy="0" r="1" gradientUnits="userSpaceOnUse" gradientTransform="translate(40.8748 102.152) scale(23.8567 23.8567)">
<stop offset="0.0056" stop-color="#A9D1EF"/>
<stop offset="0.5393" stop-color="#1998D5"/>
<stop offset="1" stop-color="#0073BB"/>
</radialGradient>
<radialGradient id="paint16_radial_14_1564" cx="0" cy="0" r="1" gradientUnits="userSpaceOnUse" gradientTransform="translate(50.283 82.5301) scale(27.4743 27.4743)">
<stop offset="0.0056" stop-color="#A9D1EF"/>
<stop offset="0.5393" stop-color="#1998D5"/>
<stop offset="1" stop-color="#0073BB"/>
</radialGradient>
<radialGradient id="paint17_radial_14_1564" cx="0" cy="0" r="1" gradientUnits="userSpaceOnUse" gradientTransform="translate(45.5421 93.7991) scale(9.81971 9.8197)">
<stop offset="0.0056" stop-color="#A9D1EF"/>
<stop offset="0.5393" stop-color="#1998D5"/>
<stop offset="1" stop-color="#0073BB"/>
</radialGradient>
<radialGradient id="paint18_radial_14_1564" cx="0" cy="0" r="1" gradientUnits="userSpaceOnUse" gradientTransform="translate(70.0158 98.2534) scale(16.7605 16.7605)">
<stop offset="0.0056" stop-color="#A9D1EF"/>
<stop offset="0.5393" stop-color="#1998D5"/>
<stop offset="1" stop-color="#0073BB"/>
</radialGradient>
<radialGradient id="paint19_radial_14_1564" cx="0" cy="0" r="1" gradientUnits="userSpaceOnUse" gradientTransform="translate(76.6258 84.468) scale(19.3028 19.3028)">
<stop offset="0.0056" stop-color="#A9D1EF"/>
<stop offset="0.5393" stop-color="#1998D5"/>
<stop offset="1" stop-color="#0073BB"/>
</radialGradient>
<radialGradient id="paint20_radial_14_1564" cx="0" cy="0" r="1" gradientUnits="userSpaceOnUse" gradientTransform="translate(74.2907 93.4048) scale(6.90528 6.90515)">
<stop offset="0.0056" stop-color="#A9D1EF"/>
<stop offset="0.5393" stop-color="#1998D5"/>
<stop offset="1" stop-color="#0073BB"/>
</radialGradient>
<radialGradient id="paint21_radial_14_1564" cx="0" cy="0" r="1" gradientUnits="userSpaceOnUse" gradientTransform="translate(79.7685 77.8769) scale(11.7409 11.7409)">
<stop offset="0.0056" stop-color="#A9D1EF"/>
<stop offset="0.5393" stop-color="#1998D5"/>
<stop offset="1" stop-color="#0073BB"/>
</radialGradient>
<radialGradient id="paint22_radial_14_1564" cx="0" cy="0" r="1" gradientUnits="userSpaceOnUse" gradientTransform="translate(84.3988 68.22) scale(13.5219 13.5219)">
<stop offset="0.0056" stop-color="#A9D1EF"/>
<stop offset="0.5393" stop-color="#1998D5"/>
<stop offset="1" stop-color="#0073BB"/>
</radialGradient>
<radialGradient id="paint23_radial_14_1564" cx="0" cy="0" r="1" gradientUnits="userSpaceOnUse" gradientTransform="translate(81.1869 72.8608) scale(4.82799 4.82796)">
<stop offset="0.0056" stop-color="#A9D1EF"/>
<stop offset="0.5393" stop-color="#1998D5"/>
<stop offset="1" stop-color="#0073BB"/>
</radialGradient>
<radialGradient id="paint24_radial_14_1564" cx="0" cy="0" r="1" gradientUnits="userSpaceOnUse" gradientTransform="translate(15.413 67.4798) scale(16.671 16.6711)">
<stop offset="0.0056" stop-color="#A9D1EF"/>
<stop offset="0.5393" stop-color="#1998D5"/>
<stop offset="1" stop-color="#0073BB"/>
</radialGradient>
<radialGradient id="paint25_radial_14_1564" cx="0" cy="0" r="1" gradientUnits="userSpaceOnUse" gradientTransform="translate(21.9871 53.7673) scale(19.2007 19.2007)">
<stop offset="0.0056" stop-color="#A9D1EF"/>
<stop offset="0.5393" stop-color="#1998D5"/>
<stop offset="1" stop-color="#0073BB"/>
</radialGradient>
<radialGradient id="paint26_radial_14_1564" cx="0" cy="0" r="1" gradientUnits="userSpaceOnUse" gradientTransform="translate(18.2527 61.1963) scale(6.85874 6.85871)">
<stop offset="0.0056" stop-color="#A9D1EF"/>
<stop offset="0.5393" stop-color="#1998D5"/>
<stop offset="1" stop-color="#0073BB"/>
</radialGradient>
</defs>
</svg>
