<svg width="60" height="60" viewBox="0 0 60 60" fill="none" xmlns="http://www.w3.org/2000/svg">
<path d="M37.5165 8.1402C42.1207 7.14343 47.8327 7.19325 55.6058 9.1317C56.9453 9.46573 57.7595 10.8198 57.4248 12.156C57.09 13.4923 55.7327 14.3048 54.3932 13.9707C47.1665 12.1686 42.2537 12.2187 38.577 13.0147C34.8887 13.8131 32.2375 15.3967 29.4287 17.1091L29.2185 17.2374C26.511 18.8891 23.5129 20.7182 19.5518 21.3767C15.4433 22.0597 10.59 21.4559 4.07207 18.8547C2.79017 18.3431 2.16668 16.8917 2.6795 15.6128C3.1923 14.334 4.64722 13.712 5.92912 14.2236C11.9109 16.6108 15.8074 16.9425 18.73 16.4566C21.6972 15.9634 23.9593 14.5979 26.8215 12.853C29.6375 11.1361 32.9235 9.1345 37.5165 8.1402Z" fill="white"/>
<path d="M55.6058 19.1076C47.8328 17.1692 42.1207 17.1193 37.5165 18.1161C32.9235 19.1104 29.6375 21.112 26.8215 22.8289C23.9593 24.5738 21.6972 25.9393 18.73 26.4325C15.8074 26.9183 11.9109 26.5865 5.92912 24.1995C4.64722 23.6879 3.1923 24.3099 2.6795 25.5888C2.16668 26.8675 2.79017 28.319 4.07207 28.8305C10.59 31.4318 15.4433 32.0355 19.5518 31.3525C23.5129 30.694 26.511 28.865 29.2185 27.2133L29.4287 27.085C32.2375 25.3725 34.8887 23.789 38.577 22.9906C42.2537 22.1946 47.1665 22.1445 54.3932 23.9466C55.7327 24.2806 57.09 23.4682 57.4248 22.1319C57.7595 20.7957 56.9453 19.4416 55.6058 19.1076Z" fill="#DEDEDE"/>
<path fill-rule="evenodd" clip-rule="evenodd" d="M47.4995 25.0665C46.6315 25.0665 45.9083 25.5148 45.4035 26.193C45.2263 26.4325 44.8165 26.993 44.2723 27.7775C43.5483 28.8208 42.5793 30.2705 41.606 31.8888C40.6375 33.499 39.6383 35.32 38.8738 37.0993C38.1418 38.8033 37.4973 40.6535 37.4998 42.5293C37.5015 43.0558 37.5645 43.5848 37.651 44.103C37.7955 44.968 38.089 46.159 38.701 47.3803C39.318 48.6115 40.2828 49.9185 41.7768 50.912C43.2865 51.916 45.187 52.5 47.4995 52.5C49.812 52.5 51.7125 51.916 53.222 50.912C54.716 49.9185 55.681 48.6115 56.298 47.3805C56.91 46.159 57.2038 44.968 57.3483 44.1033C57.435 43.5843 57.4988 43.0538 57.4995 42.5268C57.5003 40.651 56.8575 38.8035 56.1253 37.0993C55.361 35.32 54.3618 33.499 53.3933 31.8888C52.42 30.2705 51.4508 28.8208 50.7268 27.7775C50.1825 26.993 49.7725 26.4325 49.5955 26.193C49.0908 25.5148 48.3673 25.0665 47.4995 25.0665ZM51.5298 39.0643C50.888 37.5703 50.0123 35.962 49.1058 34.455C48.5545 33.5385 48.0018 32.6755 47.4995 31.9185C46.9973 32.6755 46.4445 33.5385 45.8933 34.455C44.987 35.962 44.1113 37.5703 43.4695 39.0643L43.433 39.1488C42.9913 40.176 42.4693 41.3905 42.5003 42.5253C42.5303 43.4228 42.772 44.3493 43.1733 45.1498C43.4935 45.7893 43.935 46.3528 44.5503 46.762C45.15 47.1608 46.062 47.512 47.4995 47.512C48.937 47.512 49.849 47.1608 50.4488 46.762C51.064 46.3528 51.5055 45.789 51.826 45.1498C52.2273 44.3493 52.469 43.4228 52.499 42.525C52.5303 41.3908 52.008 40.1763 51.5663 39.1493L51.5298 39.0643Z" fill="url(#paint0_linear_1_51)"/>
<path d="M35.324 28.827C37.2247 28.2117 38.682 30.19 37.7882 31.973C37.38 32.7877 36.9207 33.481 36.0077 33.8035C33.565 34.6665 31.5415 35.8817 29.4287 37.1697L29.2185 37.298C26.511 38.9497 23.5129 40.7787 19.5518 41.4372C15.4433 42.1202 10.5901 41.5165 4.07207 38.9152C2.79017 38.4037 2.16669 36.9522 2.67949 35.6735C3.19232 34.3945 4.64722 33.7725 5.92914 34.2842C11.9109 36.6712 15.8074 37.003 18.73 36.5172C21.6972 36.024 23.9593 34.6585 26.8215 32.9135C29.5415 31.2552 32.3407 29.7927 35.324 28.827Z" fill="#C0BEBE"/>
<defs>
<linearGradient id="paint0_linear_1_51" x1="47.4996" y1="25.0665" x2="47.4996" y2="52.5" gradientUnits="userSpaceOnUse">
<stop offset="0.337436" stop-color="white"/>
<stop offset="1" stop-color="#999999"/>
</linearGradient>
</defs>
</svg>
