<svg width="363" height="207" viewBox="0 0 363 207" fill="none" xmlns="http://www.w3.org/2000/svg">
<path d="M60.5642 145.981V147.779C60.5642 153.075 63.6917 158.236 66.4548 162.793C68.8335 166.721 70.8846 170.106 70.8846 173.215C70.8846 180.688 61.3442 186.767 49.6183 186.767C37.8942 186.767 28.3539 180.688 28.3539 173.215C28.3539 166.48 40.948 150.569 54.3554 145.523L60.5624 143.188L60.5642 145.981Z" fill="url(#paint0_radial_14_1993)"/>
<path d="M58.2743 148.085C58.2743 153.641 61.5794 158.915 64.4921 163.569C66.837 167.313 68.8593 170.545 68.8593 173.339C68.8593 179.884 60.2288 185.211 49.6193 185.211C39.0136 185.211 30.3791 179.884 30.3791 173.339C30.3791 167.142 42.9336 151.889 55.7823 147.208L58.2743 146.301V148.085Z" fill="url(#paint1_radial_14_1993)"/>
<path d="M62.5545 169.86C62.5545 167.541 61.6014 164.847 60.282 161.865C62.6274 165.915 64.8088 169.489 64.8088 172.368C64.8088 178.601 57.2057 183.654 47.8223 183.654C47.405 183.654 46.995 183.632 46.5813 183.615C55.4891 183.184 62.5545 177.201 62.5545 169.86Z" fill="#D1DCEE"/>
<path d="M31.493 153.706C31.2115 153.399 31.3897 152.687 31.8798 152.118C32.3598 151.549 32.9795 151.337 33.257 151.642C33.5405 151.952 33.3765 152.671 32.8864 153.236C32.4023 153.809 31.7644 154.017 31.493 153.706Z" fill="#F1E6DD"/>
<path d="M40.7167 163.324C40.2167 163.116 40.638 162.648 41.6264 162.273C42.6078 161.895 43.7929 161.753 44.316 161.96C44.8391 162.167 44.4828 162.643 43.4851 163.021C42.4875 163.398 41.2282 163.53 40.7167 163.324Z" fill="#F1E6DD"/>
<path d="M130.334 90.3827V91.8207C130.334 96.0526 132.402 100.174 134.233 103.814C135.809 106.957 137.17 109.659 137.17 112.147C137.17 118.118 130.849 122.975 123.082 122.975C115.307 122.975 108.99 118.118 108.99 112.147C108.99 106.762 117.334 94.0495 126.219 90.0169L130.334 88.1523V90.3827Z" fill="url(#paint2_radial_14_1993)"/>
<path d="M128.676 91.8206C128.676 96.2937 130.808 100.536 132.69 104.283C134.205 107.293 135.513 109.898 135.513 112.147C135.513 117.414 129.935 121.7 123.082 121.7C116.226 121.7 110.649 117.414 110.649 112.147C110.649 107.156 118.758 94.8821 127.062 91.1141L128.674 90.3826L128.676 91.8206Z" fill="url(#paint3_radial_14_1993)"/>
<path d="M132.182 109.621C132.182 107.828 131.546 105.746 130.66 103.438C132.23 106.571 133.688 109.336 133.688 111.564C133.688 116.388 128.603 120.295 122.326 120.295C122.047 120.295 121.772 120.279 121.496 120.262C127.453 119.932 132.182 115.305 132.182 109.621Z" fill="#D1DCEE"/>
<path d="M121.239 99.83C121.069 99.6479 121.176 99.2183 121.468 98.879C121.763 98.5335 122.132 98.4059 122.304 98.5926C122.468 98.7747 122.373 99.209 122.077 99.5514C121.784 99.8938 121.403 100.018 121.239 99.83Z" fill="#F1E6DD"/>
<path d="M117.569 104.662C117.31 104.354 117.529 103.659 118.049 103.098C118.564 102.543 119.193 102.329 119.465 102.635C119.742 102.946 119.554 103.651 119.027 104.213C118.501 104.773 117.84 104.972 117.569 104.662Z" fill="#F1E6DD"/>
<path d="M133.956 127.096V128.169C133.956 131.331 135.505 134.411 136.872 137.129C138.047 139.473 139.061 141.493 139.061 143.35C139.061 147.806 134.344 151.434 128.54 151.434C122.738 151.434 118.021 147.806 118.021 143.35C118.021 139.33 124.253 129.832 130.885 126.822L133.958 125.429L133.956 127.096Z" fill="url(#paint4_radial_14_1993)"/>
<path d="M132.718 128.169C132.718 131.509 134.31 134.679 135.716 137.476C136.846 139.723 137.822 141.669 137.822 143.348C137.822 147.28 133.656 150.483 128.538 150.483C123.418 150.483 119.256 147.28 119.256 143.348C119.256 139.621 125.312 130.455 131.511 127.638L132.718 127.093V128.169Z" fill="url(#paint5_radial_14_1993)"/>
<path d="M135.335 141.465C135.335 140.125 134.859 138.572 134.199 136.847C135.371 139.185 136.461 141.25 136.461 142.914C136.461 146.516 132.662 149.435 127.979 149.435C127.768 149.435 127.564 149.421 127.355 149.414C131.807 149.166 135.335 145.708 135.335 141.465Z" fill="#D1DCEE"/>
<path d="M127.165 134.153C127.037 134.015 127.12 133.694 127.337 133.44C127.552 133.185 127.831 133.088 127.957 133.229C128.086 133.366 128.011 133.691 127.791 133.944C127.574 134.201 127.286 134.295 127.165 134.153Z" fill="#F1E6DD"/>
<path d="M124.427 137.761C124.228 137.532 124.394 137.014 124.781 136.592C125.17 136.175 125.64 136.019 125.84 136.248C126.047 136.477 125.903 137.004 125.51 137.424C125.121 137.843 124.627 137.991 124.427 137.761Z" fill="#F1E6DD"/>
<path d="M99.7284 128.947V130.019C99.7284 133.179 101.276 136.261 102.645 138.976C103.824 141.323 104.834 143.342 104.834 145.199C104.834 149.656 100.115 153.286 94.3108 153.286C88.5105 153.286 83.7936 149.656 83.7936 145.199C83.7936 141.179 90.0254 131.683 96.6581 128.673L99.7305 127.28V128.947H99.7284Z" fill="url(#paint6_radial_14_1993)"/>
<path d="M98.489 130.021C98.489 133.36 100.081 136.53 101.486 139.327C102.621 141.577 103.595 143.521 103.595 145.201C103.595 149.134 99.4268 152.337 94.3069 152.337C89.1911 152.337 85.027 149.134 85.027 145.201C85.027 141.473 91.0827 132.306 97.282 129.492L98.489 128.947V130.021Z" fill="url(#paint7_radial_14_1993)"/>
<path d="M101.108 143.317C101.108 141.979 100.634 140.421 99.9695 138.699C101.142 141.039 102.232 143.102 102.232 144.766C102.232 148.366 98.4323 151.284 93.7499 151.284C93.5393 151.284 93.3348 151.272 93.1262 151.263C97.5777 151.015 101.108 147.558 101.108 143.317Z" fill="#D1DCEE"/>
<path d="M92.9358 136.004C92.8082 135.865 92.8911 135.545 93.1079 135.289C93.3266 135.036 93.6021 134.939 93.7276 135.076C93.8573 135.215 93.7823 135.539 93.5615 135.794C93.3448 136.052 93.0593 136.142 92.9358 136.004Z" fill="#F1E6DD"/>
<path d="M90.1997 139.613C90.0012 139.383 90.1672 138.863 90.5541 138.444C90.9409 138.027 91.4087 137.868 91.6133 138.097C91.8199 138.329 91.676 138.855 91.2831 139.275C90.8902 139.694 90.3981 139.84 90.1997 139.613Z" fill="#F1E6DD"/>
<path d="M31.9588 88.8309V90.5772C31.9588 95.7117 34.4701 100.719 36.6939 105.136C38.6057 108.946 40.2543 112.227 40.2543 115.244C40.2543 122.486 32.5846 128.382 23.1549 128.382C13.7273 128.382 6.05554 122.486 6.05554 115.244C6.05554 108.708 16.188 93.2775 26.9665 88.3873L31.9607 86.1228L31.9588 88.8309Z" fill="url(#paint8_radial_14_1993)"/>
<path d="M29.9456 90.5772C29.9456 96.0028 32.5339 101.153 34.8184 105.699C36.6533 109.355 38.2432 112.518 38.2432 115.246C38.2432 121.638 31.4727 126.84 23.1549 126.84C14.8391 126.84 8.06857 121.637 8.06857 115.246C8.06857 109.189 17.9134 94.2908 27.9892 89.7212L29.9477 88.8325V90.5772H29.9456Z" fill="url(#paint9_radial_14_1993)"/>
<path d="M34.1988 112.186C34.1988 110.006 33.4231 107.48 32.3517 104.68C34.2575 108.479 36.0276 111.838 36.0276 114.541C36.0276 120.393 29.8525 125.137 22.2395 125.137C21.8992 125.137 21.5651 125.117 21.2309 125.103C28.4632 124.698 34.1988 119.076 34.1988 112.186Z" fill="#D1DCEE"/>
<path d="M20.921 100.302C20.7144 100.076 20.8482 99.556 21.2026 99.142C21.557 98.728 22.0086 98.5708 22.2091 98.795C22.4177 99.0191 22.2982 99.5436 21.9377 99.9576C21.5833 100.379 21.1175 100.526 20.921 100.302Z" fill="#F1E6DD"/>
<path d="M16.4694 106.166C16.1495 105.788 16.4188 104.946 17.0507 104.266C17.6765 103.587 18.4401 103.326 18.7682 103.705C19.1064 104.074 18.8754 104.933 18.2375 105.617C17.5995 106.3 16.7955 106.536 16.4694 106.166Z" fill="#F1E6DD"/>
<path d="M173.754 100.33V102.074C173.754 107.209 176.266 112.216 178.489 116.631C180.401 120.441 182.05 123.725 182.05 126.74C182.05 133.984 174.38 139.881 164.95 139.881C155.523 139.881 147.853 133.984 147.853 126.74C147.853 120.206 157.981 104.779 168.76 99.8861L173.754 97.6216V100.33Z" fill="url(#paint10_radial_14_1993)"/>
<path d="M171.737 102.074C171.737 107.5 174.327 112.648 176.612 117.196C178.447 120.854 180.037 124.013 180.037 126.74C180.037 133.134 173.264 138.337 164.946 138.337C156.629 138.337 149.86 133.134 149.86 126.74C149.86 120.686 159.705 105.788 169.781 101.217L171.737 100.331V102.074Z" fill="url(#paint11_radial_14_1993)"/>
<path d="M175.996 123.679C175.996 121.501 175.219 118.975 174.149 116.175C176.055 119.974 177.825 123.332 177.825 126.037C177.825 131.889 171.654 136.633 164.037 136.633C163.697 136.633 163.363 136.612 163.028 136.597C170.257 136.195 175.996 130.572 175.996 123.679Z" fill="#D1DCEE"/>
<path d="M162.715 111.799C162.508 111.573 162.64 111.052 162.996 110.639C163.35 110.224 163.8 110.068 164.003 110.294C164.209 110.516 164.092 111.041 163.731 111.455C163.377 111.875 162.913 112.023 162.715 111.799Z" fill="#F1E6DD"/>
<path d="M158.269 117.663C157.945 117.285 158.214 116.443 158.842 115.763C159.468 115.084 160.236 114.824 160.564 115.203C160.902 115.571 160.669 116.43 160.033 117.112C159.397 117.795 158.589 118.034 158.269 117.663Z" fill="#F1E6DD"/>
<path d="M162.068 30.443C162.145 29.7146 162.194 28.9831 162.194 28.2438C162.194 12.6441 145.135 0 124.088 0C106.93 0 92.4234 8.4076 87.6518 19.9685C82.1654 16.8853 75.1214 15.03 67.4395 15.03C49.9351 15.03 35.746 24.6579 35.746 36.5362C35.746 37.5837 35.8615 38.6125 36.0721 39.6241C15.307 42.1813 0.00198364 50.964 0.00198364 61.4136C0.00198364 73.8647 21.7413 83.958 48.56 83.958C57.9937 83.958 66.7895 82.7035 74.2404 80.5448C82.2423 83.34 92.1378 84.9945 102.847 84.9945C113.095 84.9945 122.582 83.4785 130.397 80.9058C137.384 83.8132 145.765 85.5128 154.782 85.5128C179.178 85.5128 198.953 73.0974 198.953 57.7841C198.947 44.0334 182.99 32.6251 162.068 30.443Z" fill="url(#paint12_radial_14_1993)"/>
<path d="M90.8902 21.8688L89.7479 24.6298L86.71 22.9193C81.821 20.1707 75.6176 18.6564 69.2278 18.6564C54.2185 18.6564 42.0102 26.8321 42.0102 36.8833C42.0102 37.7284 42.0993 38.6015 42.2856 39.4668L42.7231 41.5244L40.0396 41.8559C21.3321 44.1578 8.26303 51.7748 8.26303 60.3723C8.26303 70.962 27.6145 79.5766 51.4013 79.5766C59.6726 79.5766 67.7251 78.5058 74.69 76.4918L75.7452 76.1852L76.7699 76.5417C84.2918 79.1704 93.2416 80.5603 102.661 80.5603C111.647 80.5603 120.273 79.2809 127.6 76.8638L128.805 76.4669L129.958 76.9448C136.396 79.6295 143.916 81.049 151.691 81.049C173.193 81.049 190.686 70.2352 190.686 56.9451C190.686 45.1477 177.033 35.1557 158.212 33.1915L155.762 32.9363L155.985 29.0562C155.985 15.4984 141.062 4.46985 122.719 4.46985C107.98 4.46985 95.1879 11.4627 90.8902 21.8688Z" fill="url(#paint13_radial_14_1993)"/>
<path d="M185.6 56.1C185.6 46.5313 174.032 38.3774 158.091 36.7136L150.445 35.9152C150.445 35.9152 150.881 28.4445 150.897 28.1691C150.863 17.0611 138.533 8.03088 123.368 8.03088C115.507 8.03088 108.342 10.4168 103.275 14.3903C107.621 12.3203 112.794 11.1374 118.312 11.1374C133.47 11.1374 145.803 20.1692 145.838 31.2771C145.82 31.5573 145.388 39.0264 145.388 39.0264L153.032 39.8218C168.975 41.4871 180.545 49.641 180.545 59.2112C180.545 63.7372 177.951 67.9037 173.598 71.2344C180.928 67.6173 185.6 62.1762 185.6 56.1Z" fill="url(#paint14_radial_14_1993)"/>
<path d="M58.9132 59.2752C53.8703 59.5258 49.1473 62.8783 48.4161 66.7272L41.0097 105.898C40.2867 109.743 43.7925 112.477 48.8071 111.973L64.3125 110.412C69.3271 109.909 71.5185 112.317 69.1793 115.763L43.9383 152.993C41.6031 156.441 42.3383 156.819 45.5787 153.831L104.559 99.4815C107.797 96.4932 106.315 94.21 101.266 94.403L82.7871 95.1127C77.7381 95.3072 75.247 92.5446 77.2521 88.9774L91.3196 63.9553C93.3226 60.3896 90.8355 57.6783 85.7926 57.9289L58.9132 59.2752Z" fill="url(#paint15_radial_14_1993)"/>
<path d="M86.0863 61.4542L59.2109 62.802C56.3553 62.9421 53.3761 65.0541 52.967 67.2346L45.5625 106.406C45.4208 107.145 45.5869 107.741 46.0284 108.087C46.4679 108.429 47.2456 108.568 48.2096 108.471L63.7131 106.91C67.8629 106.493 71.3444 107.467 73.2684 109.584C74.2304 110.639 74.7084 111.875 74.7084 113.203C74.7084 114.54 74.2263 115.967 73.2562 117.396C73.2562 117.396 68.116 124.972 63.4741 131.823C80.4621 116.168 99.1736 98.9228 100.196 97.9843C97.9544 98.0714 83.02 98.6457 83.02 98.6457C78.9877 98.7982 75.5549 97.6418 73.5965 95.4722C72.5129 94.2707 71.964 92.8497 71.964 91.34C71.964 90.1245 72.3185 88.8482 73.0314 87.5813L87.0949 62.5561C87.3541 62.097 87.4149 61.7748 87.4149 61.6099C87.4149 61.5958 87.4089 61.5958 87.4089 61.5834C87.2853 61.5274 86.9045 61.4169 86.0863 61.4542Z" fill="url(#paint16_radial_14_1993)"/>
<path d="M105.025 27.1387C105.075 26.6671 105.108 26.1955 105.108 25.7162C105.108 15.6043 94.0496 7.40991 80.4114 7.40991C69.2967 7.40991 59.8934 12.8588 56.8029 20.3513C53.2465 18.3529 48.6835 17.1498 43.7034 17.1498C32.3578 17.1498 23.161 23.3894 23.161 31.0873C23.161 31.7659 23.238 32.432 23.3757 33.0872C9.91978 34.7448 0 40.4381 0 47.2099C0 55.2767 14.0858 61.8182 31.4667 61.8182C37.5789 61.8182 43.28 61.0058 48.1083 59.6035C53.2971 61.4182 59.7071 62.4875 66.6457 62.4875C73.2845 62.4875 79.4332 61.5069 84.4964 59.8369C89.0269 61.7233 94.4587 62.8237 100.298 62.8237C116.111 62.8237 128.925 54.7787 128.925 44.8551C128.925 35.9448 118.584 28.5519 105.025 27.1387Z" fill="url(#paint17_radial_14_1993)"/>
<path d="M58.899 21.5857L58.1617 23.374L56.1912 22.2643C53.0237 20.4822 48.9995 19.5017 44.8619 19.5017C35.1304 19.5017 27.2217 24.8012 27.2217 31.3132C27.2217 31.8626 27.2764 32.4275 27.3999 32.9878L27.6834 34.3216L25.9477 34.5349C13.8224 36.029 5.3548 40.9644 5.3548 46.5362C5.3548 53.3952 17.8933 58.9811 33.3076 58.9811C38.6685 58.9811 43.8856 58.2885 48.3999 56.9796L49.0804 56.7835L49.7447 57.0138C54.6216 58.715 60.42 59.6146 66.5242 59.6146C72.3509 59.6146 77.9386 58.7866 82.6858 57.2224L83.4675 56.964L84.2149 57.2738C88.3849 59.0154 93.2577 59.9336 98.2986 59.9336C112.233 59.9336 123.57 52.9252 123.57 44.3153C123.57 36.6687 114.72 30.1941 102.519 28.921L100.936 28.7544L101.079 26.2424C101.079 17.4535 91.4107 10.3081 79.5244 10.3081C69.9732 10.3081 61.6837 14.8403 58.899 21.5857Z" fill="url(#paint18_radial_14_1993)"/>
<path d="M120.273 43.7657C120.273 37.565 112.779 32.2826 102.446 31.2025L97.4946 30.6873C97.4946 30.6873 97.7761 25.8438 97.7842 25.6649C97.766 18.465 89.7723 12.6145 79.9457 12.6145C74.8521 12.6145 70.206 14.1631 66.923 16.7358C69.7422 15.3958 73.0941 14.6316 76.6667 14.6316C86.4933 14.6316 94.4851 20.4836 94.5094 27.6788C94.4972 27.8578 94.2137 32.7029 94.2137 32.7029L99.1694 33.218C109.5 34.2966 116.998 39.5805 116.998 45.7828C116.998 48.7134 115.317 51.4153 112.498 53.5709C117.245 51.2286 120.273 47.7049 120.273 43.7657Z" fill="url(#paint19_radial_14_1993)"/>
<path d="M200.494 168.09V169.806C200.494 174.858 202.952 179.781 205.123 184.129C206.992 187.877 208.603 191.106 208.603 194.072C208.603 201.201 201.107 207 191.894 207C182.682 207 175.186 201.201 175.186 194.072C175.186 187.646 185.082 172.468 195.616 167.654L200.493 165.426L200.494 168.09Z" fill="url(#paint20_radial_14_1993)"/>
<path d="M198.527 169.805C198.527 175.144 201.06 180.212 203.291 184.683C205.088 188.281 206.637 191.387 206.637 194.072C206.637 200.361 200.025 205.479 191.895 205.479C183.769 205.479 177.153 200.361 177.153 194.072C177.153 188.117 186.773 173.461 196.618 168.962L198.527 168.091V169.805Z" fill="url(#paint21_radial_14_1993)"/>
<path d="M202.687 191.063C202.687 188.921 201.931 186.433 200.885 183.678C202.745 187.419 204.475 190.721 204.475 193.379C204.475 199.137 198.445 203.804 191.002 203.804C190.671 203.804 190.346 203.784 190.018 203.769C197.083 203.371 202.687 197.844 202.687 191.063Z" fill="#D1DCEE"/>
<path d="M189.713 179.373C189.512 179.153 189.639 178.64 189.989 178.232C190.331 177.823 190.774 177.671 190.972 177.89C191.174 178.112 191.057 178.629 190.707 179.035C190.362 179.447 189.907 179.597 189.713 179.373Z" fill="#F1E6DD"/>
<path d="M185.363 185.141C185.051 184.772 185.314 183.941 185.932 183.275C186.544 182.605 187.284 182.352 187.611 182.72C187.938 183.087 187.715 183.932 187.092 184.603C186.469 185.272 185.683 185.508 185.363 185.141Z" fill="#F1E6DD"/>
<path d="M294.382 121.511V122.949C294.382 127.181 296.45 131.302 298.28 134.942C299.856 138.085 301.217 140.787 301.217 143.275C301.217 149.246 294.896 154.103 287.129 154.103C279.354 154.103 273.037 149.246 273.037 143.275C273.037 137.89 281.381 125.177 290.266 121.145L294.382 119.28V121.511Z" fill="url(#paint22_radial_14_1993)"/>
<path d="M292.723 122.948C292.723 127.422 294.856 131.664 296.737 135.411C298.252 138.421 299.56 141.026 299.56 143.275C299.56 148.542 293.983 152.828 287.129 152.828C280.274 152.828 274.696 148.542 274.696 143.275C274.696 138.284 282.805 126.01 291.109 122.242L292.721 121.51L292.723 122.948Z" fill="url(#paint23_radial_14_1993)"/>
<path d="M296.229 140.749C296.229 138.956 295.593 136.874 294.708 134.566C296.277 137.699 297.735 140.464 297.735 142.691C297.735 147.516 292.65 151.423 286.374 151.423C286.094 151.423 285.819 151.407 285.543 151.39C291.5 151.06 296.229 146.433 296.229 140.749Z" fill="#D1DCEE"/>
<path d="M285.286 130.958C285.116 130.776 285.223 130.346 285.515 130.007C285.811 129.661 286.179 129.534 286.351 129.72C286.515 129.903 286.42 130.337 286.125 130.679C285.831 131.022 285.45 131.146 285.286 130.958Z" fill="#F1E6DD"/>
<path d="M281.616 135.79C281.357 135.482 281.576 134.786 282.096 134.226C282.611 133.67 283.241 133.457 283.512 133.762C283.79 134.074 283.601 134.779 283.075 135.34C282.548 135.901 281.888 136.1 281.616 135.79Z" fill="#F1E6DD"/>
<path d="M298.003 158.224V159.297C298.003 162.459 299.552 165.539 300.919 168.257C302.094 170.601 303.109 172.621 303.109 174.478C303.109 178.934 298.392 182.562 292.587 182.562C286.785 182.562 282.068 178.934 282.068 174.478C282.068 170.457 288.3 160.96 294.933 157.95L298.005 156.557L298.003 158.224Z" fill="url(#paint24_radial_14_1993)"/>
<path d="M296.765 159.297C296.765 162.637 298.357 165.807 299.763 168.604C300.893 170.851 301.869 172.797 301.869 174.476C301.869 178.407 297.703 181.611 292.585 181.611C287.465 181.611 283.303 178.407 283.303 174.476C283.303 170.748 289.359 161.583 295.558 158.766L296.765 158.221V159.297Z" fill="url(#paint25_radial_14_1993)"/>
<path d="M299.382 172.593C299.382 171.253 298.906 169.7 298.246 167.975C299.418 170.313 300.508 172.378 300.508 174.042C300.508 177.643 296.709 180.563 292.026 180.563C291.816 180.563 291.611 180.549 291.403 180.541C295.854 180.294 299.382 176.836 299.382 172.593Z" fill="#D1DCEE"/>
<path d="M291.212 165.281C291.085 165.142 291.168 164.822 291.384 164.568C291.599 164.313 291.878 164.216 292.004 164.356C292.134 164.493 292.059 164.819 291.838 165.072C291.621 165.329 291.334 165.422 291.212 165.281Z" fill="#F1E6DD"/>
<path d="M288.474 168.888C288.275 168.66 288.442 168.141 288.828 167.72C289.217 167.302 289.687 167.147 289.888 167.376C290.094 167.604 289.95 168.132 289.557 168.552C289.169 168.971 288.674 169.119 288.474 168.888Z" fill="#F1E6DD"/>
<path d="M263.776 160.075V161.147C263.776 164.307 265.323 167.388 266.692 170.104C267.871 172.451 268.881 174.47 268.881 176.327C268.881 180.784 264.163 184.414 258.358 184.414C252.558 184.414 247.841 180.784 247.841 176.327C247.841 172.307 254.073 162.811 260.705 159.801L263.778 158.408V160.075H263.776Z" fill="url(#paint26_radial_14_1993)"/>
<path d="M262.536 161.149C262.536 164.487 264.128 167.658 265.534 170.455C266.668 172.705 267.642 174.649 267.642 176.328C267.642 180.261 263.474 183.464 258.354 183.464C253.238 183.464 249.074 180.261 249.074 176.328C249.074 172.601 255.13 163.434 261.329 160.62L262.536 160.075V161.149Z" fill="url(#paint27_radial_14_1993)"/>
<path d="M265.155 174.445C265.155 173.107 264.681 171.549 264.017 169.827C265.189 172.167 266.279 174.23 266.279 175.894C266.279 179.494 262.48 182.412 257.797 182.412C257.586 182.412 257.382 182.4 257.173 182.39C261.625 182.143 265.155 178.686 265.155 174.445Z" fill="#D1DCEE"/>
<path d="M256.983 167.132C256.855 166.993 256.938 166.673 257.155 166.417C257.374 166.164 257.649 166.067 257.775 166.204C257.904 166.343 257.829 166.666 257.609 166.922C257.392 167.18 257.107 167.27 256.983 167.132Z" fill="#F1E6DD"/>
<path d="M254.247 170.741C254.048 170.511 254.214 169.991 254.601 169.572C254.988 169.155 255.456 168.996 255.66 169.225C255.867 169.457 255.723 169.983 255.33 170.403C254.937 170.822 254.445 170.968 254.247 170.741Z" fill="#F1E6DD"/>
<path d="M196.006 119.959V121.705C196.006 126.84 198.517 131.846 200.741 136.263C202.653 140.074 204.302 143.354 204.302 146.372C204.302 153.614 196.632 159.51 187.202 159.51C177.774 159.51 170.103 153.614 170.103 146.372C170.103 139.835 180.235 124.405 191.014 119.515L196.008 117.251L196.006 119.959Z" fill="url(#paint28_radial_14_1993)"/>
<path d="M193.993 121.705C193.993 127.131 196.581 132.281 198.866 136.827C200.701 140.483 202.29 143.645 202.29 146.374C202.29 152.766 195.52 157.967 187.202 157.967C178.886 157.967 172.116 152.764 172.116 146.374C172.116 140.316 181.961 125.419 192.036 120.849L193.995 119.96V121.705H193.993Z" fill="url(#paint29_radial_14_1993)"/>
<path d="M198.246 143.314C198.246 141.133 197.47 138.607 196.399 135.807C198.305 139.607 200.075 142.965 200.075 145.669C200.075 151.521 193.9 156.265 186.287 156.265C185.946 156.265 185.612 156.244 185.278 156.23C192.51 155.826 198.246 150.204 198.246 143.314Z" fill="#D1DCEE"/>
<path d="M184.968 131.429C184.762 131.204 184.895 130.684 185.25 130.27C185.604 129.856 186.056 129.699 186.256 129.923C186.465 130.147 186.345 130.671 185.985 131.085C185.631 131.507 185.165 131.653 184.968 131.429Z" fill="#F1E6DD"/>
<path d="M180.517 137.294C180.197 136.916 180.466 136.074 181.098 135.393C181.724 134.715 182.487 134.453 182.815 134.833C183.154 135.202 182.923 136.061 182.285 136.744C181.647 137.428 180.843 137.664 180.517 137.294Z" fill="#F1E6DD"/>
<path d="M337.802 131.457V133.202C337.802 138.337 340.313 143.344 342.537 147.759C344.448 151.569 346.097 154.853 346.097 157.868C346.097 165.111 338.427 171.009 328.998 171.009C319.57 171.009 311.9 165.111 311.9 157.868C311.9 151.334 322.029 135.907 332.807 131.014L337.802 128.749V131.457Z" fill="url(#paint30_radial_14_1993)"/>
<path d="M335.784 133.202C335.784 138.628 338.375 143.776 340.659 148.324C342.494 151.982 344.084 155.141 344.084 157.868C344.084 164.261 337.311 169.465 328.994 169.465C320.676 169.465 313.907 164.261 313.907 157.868C313.907 151.813 323.752 136.916 333.828 132.345L335.784 131.459V133.202Z" fill="url(#paint31_radial_14_1993)"/>
<path d="M340.043 154.806C340.043 152.629 339.266 150.103 338.196 147.303C340.102 151.102 341.872 154.459 341.872 157.164C341.872 163.016 335.701 167.76 328.084 167.76C327.744 167.76 327.41 167.74 327.076 167.724C334.304 167.323 340.043 161.7 340.043 154.806Z" fill="#D1DCEE"/>
<path d="M326.762 142.926C326.555 142.701 326.687 142.179 327.043 141.767C327.398 141.351 327.847 141.196 328.05 141.421C328.256 141.644 328.139 142.169 327.778 142.583C327.424 143.003 326.96 143.151 326.762 142.926Z" fill="#F1E6DD"/>
<path d="M322.316 148.791C321.992 148.413 322.262 147.571 322.889 146.891C323.515 146.212 324.283 145.952 324.611 146.33C324.949 146.699 324.716 147.558 324.08 148.24C323.444 148.923 322.636 149.161 322.316 148.791Z" fill="#F1E6DD"/>
<path d="M326.116 61.5708C326.193 60.8424 326.241 60.1109 326.241 59.3716C326.241 43.7719 309.182 31.1278 288.136 31.1278C270.978 31.1278 256.471 39.5354 251.699 51.0963C246.213 48.0131 239.169 46.1578 231.487 46.1578C213.982 46.1578 199.793 55.7857 199.793 67.664C199.793 68.7115 199.909 69.7403 200.119 70.7519C179.354 73.3091 164.049 82.0918 164.049 92.5414C164.049 104.993 185.789 115.086 212.607 115.086C222.041 115.086 230.837 113.831 238.288 111.673C246.29 114.468 256.185 116.122 266.895 116.122C277.143 116.122 286.629 114.606 294.444 112.034C301.432 114.941 309.812 116.641 318.829 116.641C343.225 116.641 363 104.225 363 88.9119C362.994 75.1612 347.037 63.7529 326.116 61.5708Z" fill="url(#paint32_radial_14_1993)"/>
<path d="M254.937 52.9966L253.795 55.7576L250.757 54.0471C245.868 51.2985 239.665 49.7842 233.275 49.7842C218.266 49.7842 206.057 57.9599 206.057 68.0111C206.057 68.8562 206.147 69.7293 206.333 70.5947L206.77 72.6522L204.087 72.9837C185.379 75.2856 172.31 82.9026 172.31 91.5001C172.31 102.09 191.662 110.704 215.449 110.704C223.72 110.704 231.772 109.634 238.737 107.62L239.792 107.313L240.817 107.669C248.339 110.298 257.289 111.688 266.708 111.688C275.695 111.688 284.32 110.409 291.648 107.992L292.853 107.595L294.005 108.073C300.443 110.757 307.963 112.177 315.738 112.177C337.241 112.177 354.733 101.363 354.733 88.0729C354.733 76.2755 341.08 66.2835 322.26 64.3193L319.809 64.0641L320.032 60.184C320.032 46.6262 305.11 35.5977 286.767 35.5977C272.027 35.5977 259.235 42.5905 254.937 52.9966Z" fill="url(#paint33_radial_14_1993)"/>
<path d="M349.647 87.2278C349.647 77.6592 338.079 69.5052 322.138 67.8414L314.493 67.043C314.493 67.043 314.928 59.5724 314.944 59.2969C314.91 48.1889 302.58 39.1587 287.415 39.1587C279.555 39.1587 272.389 41.5446 267.322 45.5181C271.668 43.4481 276.841 42.2653 282.36 42.2653C297.517 42.2653 309.851 51.297 309.885 62.405C309.867 62.6851 309.436 70.1542 309.436 70.1542L317.079 70.9496C333.022 72.6149 344.592 80.7688 344.592 90.3391C344.592 94.865 341.998 99.0315 337.646 102.362C344.975 98.7451 349.647 93.304 349.647 87.2278Z" fill="url(#paint34_radial_14_1993)"/>
<path d="M218.234 90.162C214.516 90.3682 211.033 93.1275 210.494 96.2954L205.032 128.536C204.499 131.7 207.084 133.951 210.782 133.536L222.216 132.251C225.914 131.837 227.53 133.819 225.805 136.655L207.192 167.298C205.47 170.135 206.012 170.447 208.401 167.987L251.894 123.254C254.282 120.795 253.189 118.916 249.466 119.074L235.839 119.658C232.116 119.819 230.279 117.545 231.758 114.609L242.131 94.0139C243.608 91.0792 241.774 88.8476 238.056 89.0539L218.234 90.162Z" fill="url(#paint35_radial_14_1993)"/>
<path d="M238.272 91.9554L218.454 93.0648C216.348 93.1801 214.151 94.9184 213.85 96.7131L208.389 128.954C208.285 129.562 208.407 130.053 208.733 130.337C209.057 130.619 209.631 130.733 210.341 130.653L221.774 129.369C224.834 129.025 227.401 129.827 228.82 131.569C229.529 132.438 229.882 133.455 229.882 134.548C229.882 135.648 229.526 136.823 228.811 137.999C228.811 137.999 225.021 144.235 221.598 149.874C234.125 136.988 247.923 122.794 248.677 122.022C247.024 122.094 236.011 122.566 236.011 122.566C233.038 122.692 230.506 121.74 229.062 119.954C228.263 118.965 227.858 117.796 227.858 116.553C227.858 115.553 228.12 114.502 228.645 113.46L239.016 92.8624C239.207 92.4845 239.252 92.2193 239.252 92.0835C239.252 92.072 239.247 92.072 239.247 92.0618C239.156 92.0156 238.876 91.9247 238.272 91.9554Z" fill="url(#paint36_radial_14_1993)"/>
<path d="M269.072 58.2665C269.122 57.7949 269.155 57.3233 269.155 56.844C269.155 46.7321 258.097 38.5377 244.459 38.5377C233.344 38.5377 223.941 43.9866 220.85 51.4791C217.294 49.4807 212.731 48.2776 207.751 48.2776C196.405 48.2776 187.208 54.5172 187.208 62.2151C187.208 62.8937 187.285 63.5598 187.423 64.215C173.967 65.8726 164.047 71.5659 164.047 78.3377C164.047 86.4045 178.133 92.946 195.514 92.946C201.626 92.946 207.327 92.1336 212.156 90.7313C217.344 92.546 223.754 93.6153 230.693 93.6153C237.332 93.6153 243.48 92.6348 248.544 90.9647C253.074 92.8511 258.506 93.9515 264.345 93.9515C280.158 93.9515 292.972 85.9065 292.972 75.9829C292.972 67.0726 282.631 59.6797 269.072 58.2665Z" fill="url(#paint37_radial_14_1993)"/>
<path d="M222.946 52.7135L222.209 54.5018L220.238 53.3921C217.071 51.6101 213.047 50.6295 208.909 50.6295C199.178 50.6295 191.269 55.929 191.269 62.441C191.269 62.9904 191.324 63.5553 191.447 64.1156L191.731 65.4494L189.995 65.6627C177.87 67.1568 169.402 72.0922 169.402 77.664C169.402 84.5231 181.94 90.1089 197.355 90.1089C202.716 90.1089 207.933 89.4163 212.447 88.1074L213.128 87.9113L213.792 88.1417C218.669 89.8428 224.467 90.7424 230.571 90.7424C236.398 90.7424 241.986 89.9144 246.733 88.3502L247.515 88.0918L248.262 88.4016C252.432 90.1432 257.305 91.0615 262.346 91.0615C276.28 91.0615 287.617 84.053 287.617 75.4431C287.617 67.7965 278.767 61.3219 266.567 60.0488L264.983 59.8822L265.127 57.3703C265.127 48.5813 255.458 41.4359 243.572 41.4359C234.02 41.4359 225.731 45.9681 222.946 52.7135Z" fill="url(#paint38_radial_14_1993)"/>
<path d="M284.32 74.8935C284.32 68.6928 276.827 63.4104 266.494 62.3303L261.542 61.8151C261.542 61.8151 261.823 56.9716 261.831 56.7927C261.813 49.5928 253.82 43.7423 243.993 43.7423C238.899 43.7423 234.253 45.2909 230.97 47.8636C233.789 46.5236 237.141 45.7594 240.714 45.7594C250.541 45.7594 258.532 51.6114 258.557 58.8066C258.544 58.9856 258.261 63.8307 258.261 63.8307L263.217 64.3458C273.548 65.4244 281.045 70.7083 281.045 76.9106C281.045 79.8412 279.364 82.5431 276.545 84.6987C281.292 82.3564 284.32 78.8327 284.32 74.8935Z" fill="url(#paint39_radial_14_1993)"/>
<defs>
<radialGradient id="paint0_radial_14_1993" cx="0" cy="0" r="1" gradientUnits="userSpaceOnUse" gradientTransform="translate(30.1592 156.305) scale(69.2437 44.1284)">
<stop offset="0.0056" stop-color="#D3DFF2"/>
<stop offset="0.5393" stop-color="#1998D5"/>
<stop offset="1" stop-color="#0073BB"/>
</radialGradient>
<radialGradient id="paint1_radial_14_1993" cx="0" cy="0" r="1" gradientUnits="userSpaceOnUse" gradientTransform="translate(48.55 166.472) rotate(180) scale(26.1272 16.121)">
<stop offset="0.0056" stop-color="#A9D1EF"/>
<stop offset="0.5393" stop-color="#1998D5"/>
<stop offset="1" stop-color="#0073BB"/>
</radialGradient>
<radialGradient id="paint2_radial_14_1993" cx="0" cy="0" r="1" gradientUnits="userSpaceOnUse" gradientTransform="translate(109.211 97.9214) scale(45.8768 35.2558)">
<stop offset="0.0056" stop-color="#D3DFF2"/>
<stop offset="0.5393" stop-color="#1998D5"/>
<stop offset="1" stop-color="#0073BB"/>
</radialGradient>
<radialGradient id="paint3_radial_14_1993" cx="0" cy="0" r="1" gradientUnits="userSpaceOnUse" gradientTransform="translate(124.27 105.048) rotate(180) scale(16.869 12.9636)">
<stop offset="0.0056" stop-color="#A9D1EF"/>
<stop offset="0.5393" stop-color="#1998D5"/>
<stop offset="1" stop-color="#0073BB"/>
</radialGradient>
<radialGradient id="paint4_radial_14_1993" cx="0" cy="0" r="1" gradientUnits="userSpaceOnUse" gradientTransform="translate(118.964 133.296) scale(34.2656 26.3326)">
<stop offset="0.0056" stop-color="#D3DFF2"/>
<stop offset="0.5393" stop-color="#1998D5"/>
<stop offset="1" stop-color="#0073BB"/>
</radialGradient>
<radialGradient id="paint5_radial_14_1993" cx="0" cy="0" r="1" gradientUnits="userSpaceOnUse" gradientTransform="translate(128.826 138.55) rotate(180) scale(12.6029 9.68518)">
<stop offset="0.0056" stop-color="#A9D1EF"/>
<stop offset="0.5393" stop-color="#1998D5"/>
<stop offset="1" stop-color="#0073BB"/>
</radialGradient>
<radialGradient id="paint6_radial_14_1993" cx="0" cy="0" r="1" gradientUnits="userSpaceOnUse" gradientTransform="translate(84.7365 135.148) scale(34.2667 26.3333)">
<stop offset="0.0056" stop-color="#D3DFF2"/>
<stop offset="0.5393" stop-color="#1998D5"/>
<stop offset="1" stop-color="#0073BB"/>
</radialGradient>
<radialGradient id="paint7_radial_14_1993" cx="0" cy="0" r="1" gradientUnits="userSpaceOnUse" gradientTransform="translate(94.5976 140.402) rotate(180) scale(12.6027 9.68498)">
<stop offset="0.0056" stop-color="#A9D1EF"/>
<stop offset="0.5393" stop-color="#1998D5"/>
<stop offset="1" stop-color="#0073BB"/>
</radialGradient>
<radialGradient id="paint8_radial_14_1993" cx="0" cy="0" r="1" gradientUnits="userSpaceOnUse" gradientTransform="translate(6.78305 98.3192) scale(55.6791 42.7885)">
<stop offset="0.0056" stop-color="#D3DFF2"/>
<stop offset="0.5393" stop-color="#1998D5"/>
<stop offset="1" stop-color="#0073BB"/>
</radialGradient>
<radialGradient id="paint9_radial_14_1993" cx="0" cy="0" r="1" gradientUnits="userSpaceOnUse" gradientTransform="translate(23.3331 107.686) rotate(180) scale(20.4826 15.7405)">
<stop offset="0.0056" stop-color="#A9D1EF"/>
<stop offset="0.5393" stop-color="#1998D5"/>
<stop offset="1" stop-color="#0073BB"/>
</radialGradient>
<radialGradient id="paint10_radial_14_1993" cx="0" cy="0" r="1" gradientUnits="userSpaceOnUse" gradientTransform="translate(148.58 109.815) scale(55.678 42.7876)">
<stop offset="0.0056" stop-color="#D3DFF2"/>
<stop offset="0.5393" stop-color="#1998D5"/>
<stop offset="1" stop-color="#0073BB"/>
</radialGradient>
<radialGradient id="paint11_radial_14_1993" cx="0" cy="0" r="1" gradientUnits="userSpaceOnUse" gradientTransform="translate(165.125 119.182) rotate(180) scale(20.4818 15.7399)">
<stop offset="0.0056" stop-color="#A9D1EF"/>
<stop offset="0.5393" stop-color="#1998D5"/>
<stop offset="1" stop-color="#0073BB"/>
</radialGradient>
<radialGradient id="paint12_radial_14_1993" cx="0" cy="0" r="1" gradientUnits="userSpaceOnUse" gradientTransform="translate(136.807 105.059) scale(156.347 120.15)">
<stop offset="0.0056" stop-color="#A9D1EF"/>
<stop offset="0.5393" stop-color="#1998D5"/>
<stop offset="1" stop-color="#0073BB"/>
</radialGradient>
<radialGradient id="paint13_radial_14_1993" cx="0" cy="0" r="1" gradientUnits="userSpaceOnUse" gradientTransform="translate(164.39 30.047) scale(99.0305 76.1034)">
<stop offset="0.0056" stop-color="#A9D1EF"/>
<stop offset="0.5393" stop-color="#1998D5"/>
<stop offset="1" stop-color="#0073BB"/>
</radialGradient>
<radialGradient id="paint14_radial_14_1993" cx="0" cy="0" r="1" gradientUnits="userSpaceOnUse" gradientTransform="translate(163.822 34.9836) scale(118.765 91.2512)">
<stop stop-color="#CBEBFB"/>
<stop offset="0.7767" stop-color="#BDCDDA"/>
<stop offset="1" stop-color="#B9C4D0"/>
</radialGradient>
<radialGradient id="paint15_radial_14_1993" cx="0" cy="0" r="1" gradientUnits="userSpaceOnUse" gradientTransform="translate(75.8265 107.893) scale(83.7684 37.7068)">
<stop stop-color="#FBB01C"/>
<stop offset="0.7007" stop-color="#FBAE1C"/>
<stop offset="0.9529" stop-color="#F9A71A"/>
<stop offset="1" stop-color="#F9A51A"/>
</radialGradient>
<radialGradient id="paint16_radial_14_1993" cx="0" cy="0" r="1" gradientUnits="userSpaceOnUse" gradientTransform="translate(87.1725 118.969) scale(109.857 84.4233)">
<stop offset="0.19" stop-color="#FFF100"/>
<stop offset="0.5752" stop-color="#FAC217"/>
<stop offset="1" stop-color="#F58A33"/>
</radialGradient>
<radialGradient id="paint17_radial_14_1993" cx="0" cy="0" r="1" gradientUnits="userSpaceOnUse" gradientTransform="translate(87.1574 74.3134) scale(101.306 77.8522)">
<stop offset="0.0056" stop-color="#A9D1EF"/>
<stop offset="0.5393" stop-color="#1998D5"/>
<stop offset="1" stop-color="#0073BB"/>
</radialGradient>
<radialGradient id="paint18_radial_14_1993" cx="0" cy="0" r="1" gradientUnits="userSpaceOnUse" gradientTransform="translate(105.032 25.7133) scale(64.1675 49.3117)">
<stop offset="0.0056" stop-color="#A9D1EF"/>
<stop offset="0.5393" stop-color="#1998D5"/>
<stop offset="1" stop-color="#005588"/>
</radialGradient>
<radialGradient id="paint19_radial_14_1993" cx="0" cy="0" r="1" gradientUnits="userSpaceOnUse" gradientTransform="translate(104.832 29.3667) scale(76.9358 59.1238)">
<stop stop-color="#CBEBFB"/>
<stop offset="0.7767" stop-color="#BDCDDA"/>
<stop offset="1" stop-color="#B9C4D0"/>
</radialGradient>
<radialGradient id="paint20_radial_14_1993" cx="0" cy="0" r="1" gradientUnits="userSpaceOnUse" gradientTransform="translate(176.605 177.939) scale(54.4057 42.0986)">
<stop offset="0.0056" stop-color="#D3DFF2"/>
<stop offset="0.5393" stop-color="#1998D5"/>
<stop offset="1" stop-color="#0073BB"/>
</radialGradient>
<radialGradient id="paint21_radial_14_1993" cx="0" cy="0" r="1" gradientUnits="userSpaceOnUse" gradientTransform="translate(191.076 187.473) rotate(180) scale(20.019 15.4905)">
<stop offset="0.0056" stop-color="#A9D1EF"/>
<stop offset="0.5393" stop-color="#1998D5"/>
<stop offset="1" stop-color="#0073BB"/>
</radialGradient>
<radialGradient id="paint22_radial_14_1993" cx="0" cy="0" r="1" gradientUnits="userSpaceOnUse" gradientTransform="translate(273.258 129.049) scale(45.8768 35.2558)">
<stop offset="0.0056" stop-color="#D3DFF2"/>
<stop offset="0.5393" stop-color="#1998D5"/>
<stop offset="1" stop-color="#0073BB"/>
</radialGradient>
<radialGradient id="paint23_radial_14_1993" cx="0" cy="0" r="1" gradientUnits="userSpaceOnUse" gradientTransform="translate(288.318 136.175) rotate(180) scale(16.869 12.9636)">
<stop offset="0.0056" stop-color="#A9D1EF"/>
<stop offset="0.5393" stop-color="#1998D5"/>
<stop offset="1" stop-color="#0073BB"/>
</radialGradient>
<radialGradient id="paint24_radial_14_1993" cx="0" cy="0" r="1" gradientUnits="userSpaceOnUse" gradientTransform="translate(283.011 164.424) scale(34.2656 26.3326)">
<stop offset="0.0056" stop-color="#D3DFF2"/>
<stop offset="0.5393" stop-color="#1998D5"/>
<stop offset="1" stop-color="#0073BB"/>
</radialGradient>
<radialGradient id="paint25_radial_14_1993" cx="0" cy="0" r="1" gradientUnits="userSpaceOnUse" gradientTransform="translate(292.874 169.678) rotate(180) scale(12.6029 9.68518)">
<stop offset="0.0056" stop-color="#A9D1EF"/>
<stop offset="0.5393" stop-color="#1998D5"/>
<stop offset="1" stop-color="#0073BB"/>
</radialGradient>
<radialGradient id="paint26_radial_14_1993" cx="0" cy="0" r="1" gradientUnits="userSpaceOnUse" gradientTransform="translate(248.784 166.276) scale(34.2667 26.3333)">
<stop offset="0.0056" stop-color="#D3DFF2"/>
<stop offset="0.5393" stop-color="#1998D5"/>
<stop offset="1" stop-color="#0073BB"/>
</radialGradient>
<radialGradient id="paint27_radial_14_1993" cx="0" cy="0" r="1" gradientUnits="userSpaceOnUse" gradientTransform="translate(258.645 171.53) rotate(180) scale(12.6027 9.68498)">
<stop offset="0.0056" stop-color="#A9D1EF"/>
<stop offset="0.5393" stop-color="#1998D5"/>
<stop offset="1" stop-color="#0073BB"/>
</radialGradient>
<radialGradient id="paint28_radial_14_1993" cx="0" cy="0" r="1" gradientUnits="userSpaceOnUse" gradientTransform="translate(170.83 129.447) scale(55.6791 42.7885)">
<stop offset="0.0056" stop-color="#D3DFF2"/>
<stop offset="0.5393" stop-color="#1998D5"/>
<stop offset="1" stop-color="#0073BB"/>
</radialGradient>
<radialGradient id="paint29_radial_14_1993" cx="0" cy="0" r="1" gradientUnits="userSpaceOnUse" gradientTransform="translate(187.38 138.814) rotate(180) scale(20.4826 15.7405)">
<stop offset="0.0056" stop-color="#A9D1EF"/>
<stop offset="0.5393" stop-color="#1998D5"/>
<stop offset="1" stop-color="#0073BB"/>
</radialGradient>
<radialGradient id="paint30_radial_14_1993" cx="0" cy="0" r="1" gradientUnits="userSpaceOnUse" gradientTransform="translate(312.627 140.943) scale(55.678 42.7876)">
<stop offset="0.0056" stop-color="#D3DFF2"/>
<stop offset="0.5393" stop-color="#1998D5"/>
<stop offset="1" stop-color="#0073BB"/>
</radialGradient>
<radialGradient id="paint31_radial_14_1993" cx="0" cy="0" r="1" gradientUnits="userSpaceOnUse" gradientTransform="translate(329.172 150.309) rotate(180) scale(20.4818 15.7399)">
<stop offset="0.0056" stop-color="#A9D1EF"/>
<stop offset="0.5393" stop-color="#1998D5"/>
<stop offset="1" stop-color="#0073BB"/>
</radialGradient>
<radialGradient id="paint32_radial_14_1993" cx="0" cy="0" r="1" gradientUnits="userSpaceOnUse" gradientTransform="translate(300.854 136.187) scale(156.347 120.15)">
<stop offset="0.0056" stop-color="#A9D1EF"/>
<stop offset="0.5393" stop-color="#1998D5"/>
<stop offset="1" stop-color="#0073BB"/>
</radialGradient>
<radialGradient id="paint33_radial_14_1993" cx="0" cy="0" r="1" gradientUnits="userSpaceOnUse" gradientTransform="translate(328.438 61.1748) scale(99.0305 76.1034)">
<stop offset="0.0056" stop-color="#A9D1EF"/>
<stop offset="0.5393" stop-color="#1998D5"/>
<stop offset="1" stop-color="#0073BB"/>
</radialGradient>
<radialGradient id="paint34_radial_14_1993" cx="0" cy="0" r="1" gradientUnits="userSpaceOnUse" gradientTransform="translate(327.869 66.1114) scale(118.765 91.2512)">
<stop stop-color="#CBEBFB"/>
<stop offset="0.7767" stop-color="#BDCDDA"/>
<stop offset="1" stop-color="#B9C4D0"/>
</radialGradient>
<radialGradient id="paint35_radial_14_1993" cx="0" cy="0" r="1" gradientUnits="userSpaceOnUse" gradientTransform="translate(230.706 130.177) scale(61.7718 31.0351)">
<stop stop-color="#FBB01C"/>
<stop offset="0.7007" stop-color="#FBAE1C"/>
<stop offset="0.9529" stop-color="#F9A71A"/>
<stop offset="1" stop-color="#F9A51A"/>
</radialGradient>
<radialGradient id="paint36_radial_14_1993" cx="0" cy="0" r="1" gradientUnits="userSpaceOnUse" gradientTransform="translate(239.073 139.294) scale(81.0098 69.4858)">
<stop offset="0.19" stop-color="#FFF100"/>
<stop offset="0.5752" stop-color="#FAC217"/>
<stop offset="1" stop-color="#F58A33"/>
</radialGradient>
<radialGradient id="paint37_radial_14_1993" cx="0" cy="0" r="1" gradientUnits="userSpaceOnUse" gradientTransform="translate(251.205 105.441) scale(101.306 77.8522)">
<stop offset="0.0056" stop-color="#A9D1EF"/>
<stop offset="0.5393" stop-color="#1998D5"/>
<stop offset="1" stop-color="#0073BB"/>
</radialGradient>
<radialGradient id="paint38_radial_14_1993" cx="0" cy="0" r="1" gradientUnits="userSpaceOnUse" gradientTransform="translate(269.079 56.8411) scale(64.1675 49.3117)">
<stop offset="0.0056" stop-color="#A9D1EF"/>
<stop offset="0.5393" stop-color="#1998D5"/>
<stop offset="1" stop-color="#005588"/>
</radialGradient>
<radialGradient id="paint39_radial_14_1993" cx="0" cy="0" r="1" gradientUnits="userSpaceOnUse" gradientTransform="translate(268.879 60.4945) scale(76.9358 59.1238)">
<stop stop-color="#CBEBFB"/>
<stop offset="0.7767" stop-color="#BDCDDA"/>
<stop offset="1" stop-color="#B9C4D0"/>
</radialGradient>
</defs>
</svg>
